%TF.GenerationSoftware,KiCad,Pcbnew,(5.1.6)-1*%
%TF.CreationDate,2022-05-09T12:52:55-05:00*%
%TF.ProjectId,edge_connector,65646765-5f63-46f6-9e6e-6563746f722e,rev?*%
%TF.SameCoordinates,Original*%
%TF.FileFunction,Copper,L2,Bot*%
%TF.FilePolarity,Positive*%
%FSLAX46Y46*%
G04 Gerber Fmt 4.6, Leading zero omitted, Abs format (unit mm)*
G04 Created by KiCad (PCBNEW (5.1.6)-1) date 2022-05-09 12:52:55*
%MOMM*%
%LPD*%
G01*
G04 APERTURE LIST*
%TA.AperFunction,ComponentPad*%
%ADD10C,3.000000*%
%TD*%
%TA.AperFunction,ViaPad*%
%ADD11C,5.000000*%
%TD*%
%TA.AperFunction,Conductor*%
%ADD12C,4.500000*%
%TD*%
%TA.AperFunction,Conductor*%
%ADD13C,0.254000*%
%TD*%
G04 APERTURE END LIST*
D10*
%TO.P,J7,4*%
%TO.N,Net-(J1-Pad1)*%
X10160000Y5080000D03*
%TO.P,J7,3*%
%TO.N,Net-(J1-Pad2)*%
X15240000Y5080000D03*
%TO.P,J7,2*%
%TO.N,Net-(J1-Pad3)*%
X20320000Y5080000D03*
%TO.P,J7,1*%
%TO.N,Net-(J1-Pad4)*%
X25400000Y5080000D03*
%TD*%
%TO.P,J8,1*%
%TO.N,Net-(J2-Pad4)*%
X53340000Y5080000D03*
%TO.P,J8,2*%
%TO.N,Net-(J2-Pad3)*%
X48260000Y5080000D03*
%TO.P,J8,3*%
%TO.N,Net-(J2-Pad2)*%
X43180000Y5080000D03*
%TO.P,J8,4*%
%TO.N,Net-(J2-Pad1)*%
X38100000Y5080000D03*
%TD*%
%TO.P,J9,4*%
%TO.N,Net-(J3-Pad1)*%
X66040000Y5080000D03*
%TO.P,J9,3*%
%TO.N,Net-(J3-Pad2)*%
X71120000Y5080000D03*
%TO.P,J9,2*%
%TO.N,Net-(J3-Pad3)*%
X76200000Y5080000D03*
%TO.P,J9,1*%
%TO.N,Net-(J3-Pad4)*%
X81280000Y5080000D03*
%TD*%
%TO.P,J1,5*%
%TO.N,GND*%
X30480000Y17780000D03*
%TO.P,J1,4*%
%TO.N,Net-(J1-Pad4)*%
X25400000Y17780000D03*
%TO.P,J1,3*%
%TO.N,Net-(J1-Pad3)*%
X20320000Y17780000D03*
%TO.P,J1,2*%
%TO.N,Net-(J1-Pad2)*%
X15240000Y17780000D03*
%TO.P,J1,1*%
%TO.N,Net-(J1-Pad1)*%
X10160000Y17780000D03*
%TD*%
%TO.P,J2,1*%
%TO.N,Net-(J2-Pad1)*%
X38100000Y17780000D03*
%TO.P,J2,2*%
%TO.N,Net-(J2-Pad2)*%
X43180000Y17780000D03*
%TO.P,J2,3*%
%TO.N,Net-(J2-Pad3)*%
X48260000Y17780000D03*
%TO.P,J2,4*%
%TO.N,Net-(J2-Pad4)*%
X53340000Y17780000D03*
%TO.P,J2,5*%
%TO.N,GND*%
X58420000Y17780000D03*
%TD*%
%TO.P,J3,5*%
%TO.N,GND*%
X86360000Y17780000D03*
%TO.P,J3,4*%
%TO.N,Net-(J3-Pad4)*%
X81280000Y17780000D03*
%TO.P,J3,3*%
%TO.N,Net-(J3-Pad3)*%
X76200000Y17780000D03*
%TO.P,J3,2*%
%TO.N,Net-(J3-Pad2)*%
X71120000Y17780000D03*
%TO.P,J3,1*%
%TO.N,Net-(J3-Pad1)*%
X66040000Y17780000D03*
%TD*%
%TO.P,J4,1*%
%TO.N,Net-(J10-Pad5)*%
X93980000Y17780000D03*
%TO.P,J4,2*%
%TO.N,Net-(J10-Pad4)*%
X99060000Y17780000D03*
%TO.P,J4,3*%
%TO.N,Net-(J10-Pad3)*%
X104140000Y17780000D03*
%TO.P,J4,4*%
%TO.N,Net-(J10-Pad2)*%
X109220000Y17780000D03*
%TO.P,J4,5*%
%TO.N,GND*%
X114300000Y17780000D03*
%TD*%
%TO.P,J10,5*%
%TO.N,Net-(J10-Pad5)*%
X93980000Y5080000D03*
%TO.P,J10,4*%
%TO.N,Net-(J10-Pad4)*%
X99060000Y5080000D03*
%TO.P,J10,3*%
%TO.N,Net-(J10-Pad3)*%
X104140000Y5080000D03*
%TO.P,J10,2*%
%TO.N,Net-(J10-Pad2)*%
X109220000Y5080000D03*
%TO.P,J10,1*%
%TO.N,GND*%
X114300000Y5080000D03*
%TD*%
D11*
%TO.N,GND*%
X3810000Y12065000D03*
X59690000Y12065000D03*
X115570000Y12065000D03*
%TD*%
D12*
%TO.N,Net-(J1-Pad1)*%
X10160000Y17780000D02*
X10160000Y5080000D01*
%TO.N,Net-(J1-Pad2)*%
X15240000Y17780000D02*
X15240000Y5080000D01*
%TO.N,Net-(J1-Pad3)*%
X20320000Y17780000D02*
X20320000Y5080000D01*
%TO.N,Net-(J1-Pad4)*%
X25400000Y17780000D02*
X25400000Y5080000D01*
%TO.N,Net-(J2-Pad4)*%
X53340000Y17780000D02*
X53340000Y5080000D01*
%TO.N,Net-(J2-Pad3)*%
X48260000Y17780000D02*
X48260000Y5080000D01*
%TO.N,Net-(J2-Pad2)*%
X43180000Y17780000D02*
X43180000Y5080000D01*
%TO.N,Net-(J2-Pad1)*%
X38100000Y17780000D02*
X38100000Y5080000D01*
%TO.N,Net-(J3-Pad1)*%
X66040000Y17780000D02*
X66040000Y5080000D01*
%TO.N,Net-(J3-Pad2)*%
X71120000Y17780000D02*
X71120000Y5080000D01*
%TO.N,Net-(J3-Pad3)*%
X76200000Y17780000D02*
X76200000Y5080000D01*
%TO.N,Net-(J3-Pad4)*%
X81280000Y17780000D02*
X81280000Y5080000D01*
%TO.N,Net-(J10-Pad2)*%
X109220000Y17780000D02*
X109220000Y5080000D01*
%TO.N,Net-(J10-Pad3)*%
X104140000Y17780000D02*
X104140000Y5080000D01*
%TO.N,Net-(J10-Pad4)*%
X99060000Y17780000D02*
X99060000Y5080000D01*
%TO.N,Net-(J10-Pad5)*%
X93980000Y17780000D02*
X93980000Y5080000D01*
%TD*%
D13*
%TO.N,GND*%
G36*
X118720000Y660000D02*
G01*
X660000Y660000D01*
X660000Y17921726D01*
X7275000Y17921726D01*
X7275001Y4938273D01*
X7316745Y4514441D01*
X7481712Y3970616D01*
X7749605Y3469425D01*
X8110127Y3030126D01*
X8549426Y2669604D01*
X9050617Y2401711D01*
X9594442Y2236744D01*
X10160000Y2181041D01*
X10725559Y2236744D01*
X11269384Y2401711D01*
X11770575Y2669604D01*
X12209874Y3030126D01*
X12570396Y3469425D01*
X12700001Y3711897D01*
X12829605Y3469425D01*
X13190127Y3030126D01*
X13629426Y2669604D01*
X14130617Y2401711D01*
X14674442Y2236744D01*
X15240000Y2181041D01*
X15805559Y2236744D01*
X16349384Y2401711D01*
X16850575Y2669604D01*
X17289874Y3030126D01*
X17650396Y3469425D01*
X17780001Y3711897D01*
X17909605Y3469425D01*
X18270127Y3030126D01*
X18709426Y2669604D01*
X19210617Y2401711D01*
X19754442Y2236744D01*
X20320000Y2181041D01*
X20885559Y2236744D01*
X21429384Y2401711D01*
X21930575Y2669604D01*
X22369874Y3030126D01*
X22730396Y3469425D01*
X22860001Y3711897D01*
X22989605Y3469425D01*
X23350127Y3030126D01*
X23789426Y2669604D01*
X24290617Y2401711D01*
X24834442Y2236744D01*
X25400000Y2181041D01*
X25965559Y2236744D01*
X26509384Y2401711D01*
X27010575Y2669604D01*
X27449874Y3030126D01*
X27810396Y3469425D01*
X28078289Y3970616D01*
X28243256Y4514441D01*
X28285000Y4938273D01*
X28285000Y17921726D01*
X35215000Y17921726D01*
X35215001Y4938273D01*
X35256745Y4514441D01*
X35421712Y3970616D01*
X35689605Y3469425D01*
X36050127Y3030126D01*
X36489426Y2669604D01*
X36990617Y2401711D01*
X37534442Y2236744D01*
X38100000Y2181041D01*
X38665559Y2236744D01*
X39209384Y2401711D01*
X39710575Y2669604D01*
X40149874Y3030126D01*
X40510396Y3469425D01*
X40640001Y3711897D01*
X40769605Y3469425D01*
X41130127Y3030126D01*
X41569426Y2669604D01*
X42070617Y2401711D01*
X42614442Y2236744D01*
X43180000Y2181041D01*
X43745559Y2236744D01*
X44289384Y2401711D01*
X44790575Y2669604D01*
X45229874Y3030126D01*
X45590396Y3469425D01*
X45720001Y3711897D01*
X45849605Y3469425D01*
X46210127Y3030126D01*
X46649426Y2669604D01*
X47150617Y2401711D01*
X47694442Y2236744D01*
X48260000Y2181041D01*
X48825559Y2236744D01*
X49369384Y2401711D01*
X49870575Y2669604D01*
X50309874Y3030126D01*
X50670396Y3469425D01*
X50800001Y3711897D01*
X50929605Y3469425D01*
X51290127Y3030126D01*
X51729426Y2669604D01*
X52230617Y2401711D01*
X52774442Y2236744D01*
X53340000Y2181041D01*
X53905559Y2236744D01*
X54449384Y2401711D01*
X54950575Y2669604D01*
X55389874Y3030126D01*
X55750396Y3469425D01*
X56018289Y3970616D01*
X56183256Y4514441D01*
X56225000Y4938273D01*
X56225000Y17921726D01*
X63155000Y17921726D01*
X63155001Y4938273D01*
X63196745Y4514441D01*
X63361712Y3970616D01*
X63629605Y3469425D01*
X63990127Y3030126D01*
X64429426Y2669604D01*
X64930617Y2401711D01*
X65474442Y2236744D01*
X66040000Y2181041D01*
X66605559Y2236744D01*
X67149384Y2401711D01*
X67650575Y2669604D01*
X68089874Y3030126D01*
X68450396Y3469425D01*
X68580001Y3711897D01*
X68709605Y3469425D01*
X69070127Y3030126D01*
X69509426Y2669604D01*
X70010617Y2401711D01*
X70554442Y2236744D01*
X71120000Y2181041D01*
X71685559Y2236744D01*
X72229384Y2401711D01*
X72730575Y2669604D01*
X73169874Y3030126D01*
X73530396Y3469425D01*
X73660001Y3711897D01*
X73789605Y3469425D01*
X74150127Y3030126D01*
X74589426Y2669604D01*
X75090617Y2401711D01*
X75634442Y2236744D01*
X76200000Y2181041D01*
X76765559Y2236744D01*
X77309384Y2401711D01*
X77810575Y2669604D01*
X78249874Y3030126D01*
X78610396Y3469425D01*
X78740001Y3711897D01*
X78869605Y3469425D01*
X79230127Y3030126D01*
X79669426Y2669604D01*
X80170617Y2401711D01*
X80714442Y2236744D01*
X81280000Y2181041D01*
X81845559Y2236744D01*
X82389384Y2401711D01*
X82890575Y2669604D01*
X83329874Y3030126D01*
X83690396Y3469425D01*
X83958289Y3970616D01*
X84123256Y4514441D01*
X84165000Y4938273D01*
X84165000Y17921726D01*
X91095000Y17921726D01*
X91095001Y4938273D01*
X91136745Y4514441D01*
X91301712Y3970616D01*
X91569605Y3469425D01*
X91930127Y3030126D01*
X92369426Y2669604D01*
X92870617Y2401711D01*
X93414442Y2236744D01*
X93980000Y2181041D01*
X94545559Y2236744D01*
X95089384Y2401711D01*
X95590575Y2669604D01*
X96029874Y3030126D01*
X96390396Y3469425D01*
X96520001Y3711897D01*
X96649605Y3469425D01*
X97010127Y3030126D01*
X97449426Y2669604D01*
X97950617Y2401711D01*
X98494442Y2236744D01*
X99060000Y2181041D01*
X99625559Y2236744D01*
X100169384Y2401711D01*
X100670575Y2669604D01*
X101109874Y3030126D01*
X101470396Y3469425D01*
X101600001Y3711897D01*
X101729605Y3469425D01*
X102090127Y3030126D01*
X102529426Y2669604D01*
X103030617Y2401711D01*
X103574442Y2236744D01*
X104140000Y2181041D01*
X104705559Y2236744D01*
X105249384Y2401711D01*
X105750575Y2669604D01*
X106189874Y3030126D01*
X106550396Y3469425D01*
X106680001Y3711897D01*
X106809605Y3469425D01*
X107170127Y3030126D01*
X107609426Y2669604D01*
X108110617Y2401711D01*
X108654442Y2236744D01*
X109220000Y2181041D01*
X109785559Y2236744D01*
X110329384Y2401711D01*
X110830575Y2669604D01*
X111269874Y3030126D01*
X111630396Y3469425D01*
X111898289Y3970616D01*
X112063256Y4514441D01*
X112105000Y4938273D01*
X112105000Y17921727D01*
X112063256Y18345559D01*
X111898289Y18889384D01*
X111630396Y19390575D01*
X111269873Y19829874D01*
X110830574Y20190396D01*
X110329383Y20458289D01*
X109785558Y20623256D01*
X109220000Y20678959D01*
X108654441Y20623256D01*
X108110616Y20458289D01*
X107609425Y20190396D01*
X107170126Y19829873D01*
X106809604Y19390574D01*
X106680000Y19148103D01*
X106550396Y19390575D01*
X106189873Y19829874D01*
X105750574Y20190396D01*
X105249383Y20458289D01*
X104705558Y20623256D01*
X104140000Y20678959D01*
X103574441Y20623256D01*
X103030616Y20458289D01*
X102529425Y20190396D01*
X102090126Y19829873D01*
X101729604Y19390574D01*
X101600000Y19148103D01*
X101470396Y19390575D01*
X101109873Y19829874D01*
X100670574Y20190396D01*
X100169383Y20458289D01*
X99625558Y20623256D01*
X99060000Y20678959D01*
X98494441Y20623256D01*
X97950616Y20458289D01*
X97449425Y20190396D01*
X97010126Y19829873D01*
X96649604Y19390574D01*
X96520000Y19148103D01*
X96390396Y19390575D01*
X96029873Y19829874D01*
X95590574Y20190396D01*
X95089383Y20458289D01*
X94545558Y20623256D01*
X93980000Y20678959D01*
X93414441Y20623256D01*
X92870616Y20458289D01*
X92369425Y20190396D01*
X91930126Y19829873D01*
X91569604Y19390574D01*
X91301711Y18889383D01*
X91136744Y18345558D01*
X91095000Y17921726D01*
X84165000Y17921726D01*
X84165000Y17921727D01*
X84123256Y18345559D01*
X83958289Y18889384D01*
X83690396Y19390575D01*
X83329873Y19829874D01*
X82890574Y20190396D01*
X82389383Y20458289D01*
X81845558Y20623256D01*
X81280000Y20678959D01*
X80714441Y20623256D01*
X80170616Y20458289D01*
X79669425Y20190396D01*
X79230126Y19829873D01*
X78869604Y19390574D01*
X78740000Y19148103D01*
X78610396Y19390575D01*
X78249873Y19829874D01*
X77810574Y20190396D01*
X77309383Y20458289D01*
X76765558Y20623256D01*
X76200000Y20678959D01*
X75634441Y20623256D01*
X75090616Y20458289D01*
X74589425Y20190396D01*
X74150126Y19829873D01*
X73789604Y19390574D01*
X73660000Y19148103D01*
X73530396Y19390575D01*
X73169873Y19829874D01*
X72730574Y20190396D01*
X72229383Y20458289D01*
X71685558Y20623256D01*
X71120000Y20678959D01*
X70554441Y20623256D01*
X70010616Y20458289D01*
X69509425Y20190396D01*
X69070126Y19829873D01*
X68709604Y19390574D01*
X68580000Y19148103D01*
X68450396Y19390575D01*
X68089873Y19829874D01*
X67650574Y20190396D01*
X67149383Y20458289D01*
X66605558Y20623256D01*
X66040000Y20678959D01*
X65474441Y20623256D01*
X64930616Y20458289D01*
X64429425Y20190396D01*
X63990126Y19829873D01*
X63629604Y19390574D01*
X63361711Y18889383D01*
X63196744Y18345558D01*
X63155000Y17921726D01*
X56225000Y17921726D01*
X56225000Y17921727D01*
X56183256Y18345559D01*
X56018289Y18889384D01*
X55750396Y19390575D01*
X55389873Y19829874D01*
X54950574Y20190396D01*
X54449383Y20458289D01*
X53905558Y20623256D01*
X53340000Y20678959D01*
X52774441Y20623256D01*
X52230616Y20458289D01*
X51729425Y20190396D01*
X51290126Y19829873D01*
X50929604Y19390574D01*
X50800000Y19148103D01*
X50670396Y19390575D01*
X50309873Y19829874D01*
X49870574Y20190396D01*
X49369383Y20458289D01*
X48825558Y20623256D01*
X48260000Y20678959D01*
X47694441Y20623256D01*
X47150616Y20458289D01*
X46649425Y20190396D01*
X46210126Y19829873D01*
X45849604Y19390574D01*
X45720000Y19148103D01*
X45590396Y19390575D01*
X45229873Y19829874D01*
X44790574Y20190396D01*
X44289383Y20458289D01*
X43745558Y20623256D01*
X43180000Y20678959D01*
X42614441Y20623256D01*
X42070616Y20458289D01*
X41569425Y20190396D01*
X41130126Y19829873D01*
X40769604Y19390574D01*
X40640000Y19148103D01*
X40510396Y19390575D01*
X40149873Y19829874D01*
X39710574Y20190396D01*
X39209383Y20458289D01*
X38665558Y20623256D01*
X38100000Y20678959D01*
X37534441Y20623256D01*
X36990616Y20458289D01*
X36489425Y20190396D01*
X36050126Y19829873D01*
X35689604Y19390574D01*
X35421711Y18889383D01*
X35256744Y18345558D01*
X35215000Y17921726D01*
X28285000Y17921726D01*
X28285000Y17921727D01*
X28243256Y18345559D01*
X28078289Y18889384D01*
X27810396Y19390575D01*
X27449873Y19829874D01*
X27010574Y20190396D01*
X26509383Y20458289D01*
X25965558Y20623256D01*
X25400000Y20678959D01*
X24834441Y20623256D01*
X24290616Y20458289D01*
X23789425Y20190396D01*
X23350126Y19829873D01*
X22989604Y19390574D01*
X22860000Y19148103D01*
X22730396Y19390575D01*
X22369873Y19829874D01*
X21930574Y20190396D01*
X21429383Y20458289D01*
X20885558Y20623256D01*
X20320000Y20678959D01*
X19754441Y20623256D01*
X19210616Y20458289D01*
X18709425Y20190396D01*
X18270126Y19829873D01*
X17909604Y19390574D01*
X17780000Y19148103D01*
X17650396Y19390575D01*
X17289873Y19829874D01*
X16850574Y20190396D01*
X16349383Y20458289D01*
X15805558Y20623256D01*
X15240000Y20678959D01*
X14674441Y20623256D01*
X14130616Y20458289D01*
X13629425Y20190396D01*
X13190126Y19829873D01*
X12829604Y19390574D01*
X12700000Y19148103D01*
X12570396Y19390575D01*
X12209873Y19829874D01*
X11770574Y20190396D01*
X11269383Y20458289D01*
X10725558Y20623256D01*
X10160000Y20678959D01*
X9594441Y20623256D01*
X9050616Y20458289D01*
X8549425Y20190396D01*
X8110126Y19829873D01*
X7749604Y19390574D01*
X7481711Y18889383D01*
X7316744Y18345558D01*
X7275000Y17921726D01*
X660000Y17921726D01*
X660000Y22200000D01*
X118720001Y22200000D01*
X118720000Y660000D01*
G37*
X118720000Y660000D02*
X660000Y660000D01*
X660000Y17921726D01*
X7275000Y17921726D01*
X7275001Y4938273D01*
X7316745Y4514441D01*
X7481712Y3970616D01*
X7749605Y3469425D01*
X8110127Y3030126D01*
X8549426Y2669604D01*
X9050617Y2401711D01*
X9594442Y2236744D01*
X10160000Y2181041D01*
X10725559Y2236744D01*
X11269384Y2401711D01*
X11770575Y2669604D01*
X12209874Y3030126D01*
X12570396Y3469425D01*
X12700001Y3711897D01*
X12829605Y3469425D01*
X13190127Y3030126D01*
X13629426Y2669604D01*
X14130617Y2401711D01*
X14674442Y2236744D01*
X15240000Y2181041D01*
X15805559Y2236744D01*
X16349384Y2401711D01*
X16850575Y2669604D01*
X17289874Y3030126D01*
X17650396Y3469425D01*
X17780001Y3711897D01*
X17909605Y3469425D01*
X18270127Y3030126D01*
X18709426Y2669604D01*
X19210617Y2401711D01*
X19754442Y2236744D01*
X20320000Y2181041D01*
X20885559Y2236744D01*
X21429384Y2401711D01*
X21930575Y2669604D01*
X22369874Y3030126D01*
X22730396Y3469425D01*
X22860001Y3711897D01*
X22989605Y3469425D01*
X23350127Y3030126D01*
X23789426Y2669604D01*
X24290617Y2401711D01*
X24834442Y2236744D01*
X25400000Y2181041D01*
X25965559Y2236744D01*
X26509384Y2401711D01*
X27010575Y2669604D01*
X27449874Y3030126D01*
X27810396Y3469425D01*
X28078289Y3970616D01*
X28243256Y4514441D01*
X28285000Y4938273D01*
X28285000Y17921726D01*
X35215000Y17921726D01*
X35215001Y4938273D01*
X35256745Y4514441D01*
X35421712Y3970616D01*
X35689605Y3469425D01*
X36050127Y3030126D01*
X36489426Y2669604D01*
X36990617Y2401711D01*
X37534442Y2236744D01*
X38100000Y2181041D01*
X38665559Y2236744D01*
X39209384Y2401711D01*
X39710575Y2669604D01*
X40149874Y3030126D01*
X40510396Y3469425D01*
X40640001Y3711897D01*
X40769605Y3469425D01*
X41130127Y3030126D01*
X41569426Y2669604D01*
X42070617Y2401711D01*
X42614442Y2236744D01*
X43180000Y2181041D01*
X43745559Y2236744D01*
X44289384Y2401711D01*
X44790575Y2669604D01*
X45229874Y3030126D01*
X45590396Y3469425D01*
X45720001Y3711897D01*
X45849605Y3469425D01*
X46210127Y3030126D01*
X46649426Y2669604D01*
X47150617Y2401711D01*
X47694442Y2236744D01*
X48260000Y2181041D01*
X48825559Y2236744D01*
X49369384Y2401711D01*
X49870575Y2669604D01*
X50309874Y3030126D01*
X50670396Y3469425D01*
X50800001Y3711897D01*
X50929605Y3469425D01*
X51290127Y3030126D01*
X51729426Y2669604D01*
X52230617Y2401711D01*
X52774442Y2236744D01*
X53340000Y2181041D01*
X53905559Y2236744D01*
X54449384Y2401711D01*
X54950575Y2669604D01*
X55389874Y3030126D01*
X55750396Y3469425D01*
X56018289Y3970616D01*
X56183256Y4514441D01*
X56225000Y4938273D01*
X56225000Y17921726D01*
X63155000Y17921726D01*
X63155001Y4938273D01*
X63196745Y4514441D01*
X63361712Y3970616D01*
X63629605Y3469425D01*
X63990127Y3030126D01*
X64429426Y2669604D01*
X64930617Y2401711D01*
X65474442Y2236744D01*
X66040000Y2181041D01*
X66605559Y2236744D01*
X67149384Y2401711D01*
X67650575Y2669604D01*
X68089874Y3030126D01*
X68450396Y3469425D01*
X68580001Y3711897D01*
X68709605Y3469425D01*
X69070127Y3030126D01*
X69509426Y2669604D01*
X70010617Y2401711D01*
X70554442Y2236744D01*
X71120000Y2181041D01*
X71685559Y2236744D01*
X72229384Y2401711D01*
X72730575Y2669604D01*
X73169874Y3030126D01*
X73530396Y3469425D01*
X73660001Y3711897D01*
X73789605Y3469425D01*
X74150127Y3030126D01*
X74589426Y2669604D01*
X75090617Y2401711D01*
X75634442Y2236744D01*
X76200000Y2181041D01*
X76765559Y2236744D01*
X77309384Y2401711D01*
X77810575Y2669604D01*
X78249874Y3030126D01*
X78610396Y3469425D01*
X78740001Y3711897D01*
X78869605Y3469425D01*
X79230127Y3030126D01*
X79669426Y2669604D01*
X80170617Y2401711D01*
X80714442Y2236744D01*
X81280000Y2181041D01*
X81845559Y2236744D01*
X82389384Y2401711D01*
X82890575Y2669604D01*
X83329874Y3030126D01*
X83690396Y3469425D01*
X83958289Y3970616D01*
X84123256Y4514441D01*
X84165000Y4938273D01*
X84165000Y17921726D01*
X91095000Y17921726D01*
X91095001Y4938273D01*
X91136745Y4514441D01*
X91301712Y3970616D01*
X91569605Y3469425D01*
X91930127Y3030126D01*
X92369426Y2669604D01*
X92870617Y2401711D01*
X93414442Y2236744D01*
X93980000Y2181041D01*
X94545559Y2236744D01*
X95089384Y2401711D01*
X95590575Y2669604D01*
X96029874Y3030126D01*
X96390396Y3469425D01*
X96520001Y3711897D01*
X96649605Y3469425D01*
X97010127Y3030126D01*
X97449426Y2669604D01*
X97950617Y2401711D01*
X98494442Y2236744D01*
X99060000Y2181041D01*
X99625559Y2236744D01*
X100169384Y2401711D01*
X100670575Y2669604D01*
X101109874Y3030126D01*
X101470396Y3469425D01*
X101600001Y3711897D01*
X101729605Y3469425D01*
X102090127Y3030126D01*
X102529426Y2669604D01*
X103030617Y2401711D01*
X103574442Y2236744D01*
X104140000Y2181041D01*
X104705559Y2236744D01*
X105249384Y2401711D01*
X105750575Y2669604D01*
X106189874Y3030126D01*
X106550396Y3469425D01*
X106680001Y3711897D01*
X106809605Y3469425D01*
X107170127Y3030126D01*
X107609426Y2669604D01*
X108110617Y2401711D01*
X108654442Y2236744D01*
X109220000Y2181041D01*
X109785559Y2236744D01*
X110329384Y2401711D01*
X110830575Y2669604D01*
X111269874Y3030126D01*
X111630396Y3469425D01*
X111898289Y3970616D01*
X112063256Y4514441D01*
X112105000Y4938273D01*
X112105000Y17921727D01*
X112063256Y18345559D01*
X111898289Y18889384D01*
X111630396Y19390575D01*
X111269873Y19829874D01*
X110830574Y20190396D01*
X110329383Y20458289D01*
X109785558Y20623256D01*
X109220000Y20678959D01*
X108654441Y20623256D01*
X108110616Y20458289D01*
X107609425Y20190396D01*
X107170126Y19829873D01*
X106809604Y19390574D01*
X106680000Y19148103D01*
X106550396Y19390575D01*
X106189873Y19829874D01*
X105750574Y20190396D01*
X105249383Y20458289D01*
X104705558Y20623256D01*
X104140000Y20678959D01*
X103574441Y20623256D01*
X103030616Y20458289D01*
X102529425Y20190396D01*
X102090126Y19829873D01*
X101729604Y19390574D01*
X101600000Y19148103D01*
X101470396Y19390575D01*
X101109873Y19829874D01*
X100670574Y20190396D01*
X100169383Y20458289D01*
X99625558Y20623256D01*
X99060000Y20678959D01*
X98494441Y20623256D01*
X97950616Y20458289D01*
X97449425Y20190396D01*
X97010126Y19829873D01*
X96649604Y19390574D01*
X96520000Y19148103D01*
X96390396Y19390575D01*
X96029873Y19829874D01*
X95590574Y20190396D01*
X95089383Y20458289D01*
X94545558Y20623256D01*
X93980000Y20678959D01*
X93414441Y20623256D01*
X92870616Y20458289D01*
X92369425Y20190396D01*
X91930126Y19829873D01*
X91569604Y19390574D01*
X91301711Y18889383D01*
X91136744Y18345558D01*
X91095000Y17921726D01*
X84165000Y17921726D01*
X84165000Y17921727D01*
X84123256Y18345559D01*
X83958289Y18889384D01*
X83690396Y19390575D01*
X83329873Y19829874D01*
X82890574Y20190396D01*
X82389383Y20458289D01*
X81845558Y20623256D01*
X81280000Y20678959D01*
X80714441Y20623256D01*
X80170616Y20458289D01*
X79669425Y20190396D01*
X79230126Y19829873D01*
X78869604Y19390574D01*
X78740000Y19148103D01*
X78610396Y19390575D01*
X78249873Y19829874D01*
X77810574Y20190396D01*
X77309383Y20458289D01*
X76765558Y20623256D01*
X76200000Y20678959D01*
X75634441Y20623256D01*
X75090616Y20458289D01*
X74589425Y20190396D01*
X74150126Y19829873D01*
X73789604Y19390574D01*
X73660000Y19148103D01*
X73530396Y19390575D01*
X73169873Y19829874D01*
X72730574Y20190396D01*
X72229383Y20458289D01*
X71685558Y20623256D01*
X71120000Y20678959D01*
X70554441Y20623256D01*
X70010616Y20458289D01*
X69509425Y20190396D01*
X69070126Y19829873D01*
X68709604Y19390574D01*
X68580000Y19148103D01*
X68450396Y19390575D01*
X68089873Y19829874D01*
X67650574Y20190396D01*
X67149383Y20458289D01*
X66605558Y20623256D01*
X66040000Y20678959D01*
X65474441Y20623256D01*
X64930616Y20458289D01*
X64429425Y20190396D01*
X63990126Y19829873D01*
X63629604Y19390574D01*
X63361711Y18889383D01*
X63196744Y18345558D01*
X63155000Y17921726D01*
X56225000Y17921726D01*
X56225000Y17921727D01*
X56183256Y18345559D01*
X56018289Y18889384D01*
X55750396Y19390575D01*
X55389873Y19829874D01*
X54950574Y20190396D01*
X54449383Y20458289D01*
X53905558Y20623256D01*
X53340000Y20678959D01*
X52774441Y20623256D01*
X52230616Y20458289D01*
X51729425Y20190396D01*
X51290126Y19829873D01*
X50929604Y19390574D01*
X50800000Y19148103D01*
X50670396Y19390575D01*
X50309873Y19829874D01*
X49870574Y20190396D01*
X49369383Y20458289D01*
X48825558Y20623256D01*
X48260000Y20678959D01*
X47694441Y20623256D01*
X47150616Y20458289D01*
X46649425Y20190396D01*
X46210126Y19829873D01*
X45849604Y19390574D01*
X45720000Y19148103D01*
X45590396Y19390575D01*
X45229873Y19829874D01*
X44790574Y20190396D01*
X44289383Y20458289D01*
X43745558Y20623256D01*
X43180000Y20678959D01*
X42614441Y20623256D01*
X42070616Y20458289D01*
X41569425Y20190396D01*
X41130126Y19829873D01*
X40769604Y19390574D01*
X40640000Y19148103D01*
X40510396Y19390575D01*
X40149873Y19829874D01*
X39710574Y20190396D01*
X39209383Y20458289D01*
X38665558Y20623256D01*
X38100000Y20678959D01*
X37534441Y20623256D01*
X36990616Y20458289D01*
X36489425Y20190396D01*
X36050126Y19829873D01*
X35689604Y19390574D01*
X35421711Y18889383D01*
X35256744Y18345558D01*
X35215000Y17921726D01*
X28285000Y17921726D01*
X28285000Y17921727D01*
X28243256Y18345559D01*
X28078289Y18889384D01*
X27810396Y19390575D01*
X27449873Y19829874D01*
X27010574Y20190396D01*
X26509383Y20458289D01*
X25965558Y20623256D01*
X25400000Y20678959D01*
X24834441Y20623256D01*
X24290616Y20458289D01*
X23789425Y20190396D01*
X23350126Y19829873D01*
X22989604Y19390574D01*
X22860000Y19148103D01*
X22730396Y19390575D01*
X22369873Y19829874D01*
X21930574Y20190396D01*
X21429383Y20458289D01*
X20885558Y20623256D01*
X20320000Y20678959D01*
X19754441Y20623256D01*
X19210616Y20458289D01*
X18709425Y20190396D01*
X18270126Y19829873D01*
X17909604Y19390574D01*
X17780000Y19148103D01*
X17650396Y19390575D01*
X17289873Y19829874D01*
X16850574Y20190396D01*
X16349383Y20458289D01*
X15805558Y20623256D01*
X15240000Y20678959D01*
X14674441Y20623256D01*
X14130616Y20458289D01*
X13629425Y20190396D01*
X13190126Y19829873D01*
X12829604Y19390574D01*
X12700000Y19148103D01*
X12570396Y19390575D01*
X12209873Y19829874D01*
X11770574Y20190396D01*
X11269383Y20458289D01*
X10725558Y20623256D01*
X10160000Y20678959D01*
X9594441Y20623256D01*
X9050616Y20458289D01*
X8549425Y20190396D01*
X8110126Y19829873D01*
X7749604Y19390574D01*
X7481711Y18889383D01*
X7316744Y18345558D01*
X7275000Y17921726D01*
X660000Y17921726D01*
X660000Y22200000D01*
X118720001Y22200000D01*
X118720000Y660000D01*
%TD*%
M02*
