M48
; DRILL file {KiCad (5.1.6)-1} date 05/09/22 12:53:01
; FORMAT={-:-/ absolute / metric / decimal}
; #@! TF.CreationDate,2022-05-09T12:53:01-05:00
; #@! TF.GenerationSoftware,Kicad,Pcbnew,(5.1.6)-1
FMAT,2
METRIC
T1C1.000
T2C1.200
T3C3.200
%
G90
G05
T1
X66.04Y5.08
X71.12Y5.08
X76.2Y5.08
X81.28Y5.08
X38.1Y5.08
X43.18Y5.08
X48.26Y5.08
X53.34Y5.08
X93.98Y5.08
X99.06Y5.08
X104.14Y5.08
X109.22Y5.08
X114.3Y5.08
X10.16Y5.08
X15.24Y5.08
X20.32Y5.08
X25.4Y5.08
T2
X38.1Y17.78
X43.18Y17.78
X48.26Y17.78
X53.34Y17.78
X58.42Y17.78
X10.16Y17.78
X15.24Y17.78
X20.32Y17.78
X25.4Y17.78
X30.48Y17.78
X93.98Y17.78
X99.06Y17.78
X104.14Y17.78
X109.22Y17.78
X114.3Y17.78
X66.04Y17.78
X71.12Y17.78
X76.2Y17.78
X81.28Y17.78
X86.36Y17.78
T3
X3.81Y12.065
X59.69Y12.065
X115.57Y12.065
T0
M30
