M48
; DRILL file {KiCad (5.1.6)-1} date 07/04/22 15:30:05
; FORMAT={-:-/ absolute / metric / decimal}
; #@! TF.CreationDate,2022-07-04T15:30:05-05:00
; #@! TF.GenerationSoftware,Kicad,Pcbnew,(5.1.6)-1
FMAT,2
METRIC
T1C0.800
T2C1.000
T3C1.200
T4C3.200
%
G90
G05
T1
X7.62Y12.7
X7.62Y10.16
T2
X15.24Y30.226
X15.24Y29.21
X15.24Y28.194
X17.272Y34.036
X18.288Y34.036
X19.304Y34.036
X21.336Y30.226
X21.336Y29.21
X21.336Y28.194
X5.588Y32.44
X5.842Y27.94
X5.842Y23.44
X6.35Y32.44
X6.35Y27.94
X6.35Y23.44
X7.112Y32.44
X7.112Y27.94
X7.112Y23.44
T3
X19.05Y17.78
X19.05Y12.7
X19.05Y7.62
T4
X12.7Y38.1
X12.7Y3.81
T0
M30
