%TF.GenerationSoftware,KiCad,Pcbnew,(5.1.6)-1*%
%TF.CreationDate,2022-07-04T15:30:00-05:00*%
%TF.ProjectId,laser_board,6c617365-725f-4626-9f61-72642e6b6963,rev?*%
%TF.SameCoordinates,Original*%
%TF.FileFunction,Copper,L2,Bot*%
%TF.FilePolarity,Positive*%
%FSLAX46Y46*%
G04 Gerber Fmt 4.6, Leading zero omitted, Abs format (unit mm)*
G04 Created by KiCad (PCBNEW (5.1.6)-1) date 2022-07-04 15:30:00*
%MOMM*%
%LPD*%
G01*
G04 APERTURE LIST*
%TA.AperFunction,ComponentPad*%
%ADD10C,2.200000*%
%TD*%
%TA.AperFunction,ComponentPad*%
%ADD11C,3.000000*%
%TD*%
%TA.AperFunction,ViaPad*%
%ADD12C,3.400000*%
%TD*%
%TA.AperFunction,Conductor*%
%ADD13C,4.000000*%
%TD*%
%TA.AperFunction,Conductor*%
%ADD14C,2.200000*%
%TD*%
%TA.AperFunction,Conductor*%
%ADD15C,0.300000*%
%TD*%
G04 APERTURE END LIST*
D10*
%TO.P,J1,2*%
%TO.N,Net-(J1-Pad2)*%
X21336000Y28194000D03*
X21336000Y29210000D03*
X21336000Y30226000D03*
%TO.P,J1,1*%
%TO.N,Net-(J1-Pad1)*%
X15240000Y28194000D03*
X15240000Y29210000D03*
X15240000Y30226000D03*
%TO.P,J1,3*%
%TO.N,Net-(J1-Pad3)*%
X19304000Y34036000D03*
X18288000Y34036000D03*
X17272000Y34036000D03*
%TD*%
D11*
%TO.P,J2,1*%
%TO.N,Net-(J2-Pad1)*%
X19050000Y17780000D03*
%TO.P,J2,2*%
%TO.N,Net-(J2-Pad2)*%
X19050000Y12700000D03*
%TO.P,J2,3*%
%TO.N,Net-(J1-Pad2)*%
X19050000Y7620000D03*
%TD*%
D10*
%TO.P,J3,1*%
%TO.N,Net-(J1-Pad2)*%
X7620000Y10160000D03*
%TO.P,J3,2*%
%TO.N,Net-(J2-Pad2)*%
X7620000Y12700000D03*
%TD*%
%TO.P,SW1,3*%
%TO.N,Net-(J2-Pad1)*%
X5842000Y23440000D03*
X7112000Y23440000D03*
%TO.P,SW1,2*%
%TO.N,Net-(J1-Pad1)*%
X5842000Y27940000D03*
X7112000Y27940000D03*
%TO.P,SW1,1*%
X5588000Y32440000D03*
X7112000Y32440000D03*
X6350000Y32440000D03*
%TO.P,SW1,2*%
X6350000Y27940000D03*
%TO.P,SW1,3*%
%TO.N,Net-(J2-Pad1)*%
X6350000Y23440000D03*
%TD*%
D12*
%TO.N,Net-(J1-Pad2)*%
X12700000Y38100000D03*
X12700000Y3810000D03*
%TD*%
D13*
%TO.N,Net-(J1-Pad1)*%
X15240000Y28194000D02*
X7366000Y28194000D01*
X6350000Y29210000D02*
X6350000Y32440000D01*
X7366000Y28194000D02*
X6350000Y29210000D01*
%TO.N,Net-(J2-Pad1)*%
X6350000Y23440000D02*
X12010000Y17780000D01*
X12010000Y17780000D02*
X19050000Y17780000D01*
D14*
%TO.N,Net-(J2-Pad2)*%
X7620000Y12700000D02*
X19050000Y12700000D01*
%TD*%
D15*
%TO.N,Net-(J1-Pad2)*%
G36*
X23455000Y675000D02*
G01*
X675000Y675000D01*
X675000Y12700000D01*
X5861533Y12700000D01*
X5870000Y12614032D01*
X5870000Y12527640D01*
X5886854Y12442909D01*
X5895321Y12356940D01*
X5920397Y12274276D01*
X5937251Y12189544D01*
X5970313Y12109727D01*
X5995388Y12027064D01*
X6036109Y11950881D01*
X6069170Y11871064D01*
X6117168Y11799231D01*
X6157888Y11723048D01*
X6212688Y11656274D01*
X6260686Y11584440D01*
X6321776Y11523350D01*
X6376576Y11456576D01*
X6443350Y11401776D01*
X6504440Y11340686D01*
X6576274Y11292688D01*
X6643048Y11237888D01*
X6719231Y11197168D01*
X6791064Y11149170D01*
X6870881Y11116109D01*
X6947064Y11075388D01*
X7029727Y11050313D01*
X7109544Y11017251D01*
X7194276Y11000397D01*
X7276940Y10975321D01*
X7362909Y10966854D01*
X7447640Y10950000D01*
X17799163Y10950000D01*
X18031593Y10794695D01*
X18422868Y10632623D01*
X18838243Y10550000D01*
X19261757Y10550000D01*
X19677132Y10632623D01*
X20068407Y10794695D01*
X20420545Y11029986D01*
X20720014Y11329455D01*
X20955305Y11681593D01*
X21117377Y12072868D01*
X21200000Y12488243D01*
X21200000Y12911757D01*
X21117377Y13327132D01*
X20955305Y13718407D01*
X20720014Y14070545D01*
X20420545Y14370014D01*
X20068407Y14605305D01*
X19677132Y14767377D01*
X19261757Y14850000D01*
X18838243Y14850000D01*
X18422868Y14767377D01*
X18031593Y14605305D01*
X17799163Y14450000D01*
X7447640Y14450000D01*
X7362909Y14433146D01*
X7276940Y14424679D01*
X7194276Y14399603D01*
X7109544Y14382749D01*
X7029727Y14349687D01*
X6947064Y14324612D01*
X6870881Y14283891D01*
X6791064Y14250830D01*
X6719231Y14202832D01*
X6643048Y14162112D01*
X6576274Y14107312D01*
X6504440Y14059314D01*
X6443350Y13998224D01*
X6376576Y13943424D01*
X6321776Y13876650D01*
X6260686Y13815560D01*
X6212688Y13743726D01*
X6157888Y13676952D01*
X6117168Y13600769D01*
X6069170Y13528936D01*
X6036109Y13449119D01*
X5995388Y13372936D01*
X5970313Y13290273D01*
X5937251Y13210456D01*
X5920397Y13125724D01*
X5895321Y13043060D01*
X5886854Y12957091D01*
X5870000Y12872360D01*
X5870000Y12785968D01*
X5861533Y12700000D01*
X675000Y12700000D01*
X675000Y29210000D01*
X3687179Y29210000D01*
X3700000Y29079823D01*
X3700000Y29079816D01*
X3738343Y28690510D01*
X3889873Y28190983D01*
X4092000Y27812830D01*
X4092000Y27767640D01*
X4159251Y27429544D01*
X4291170Y27111064D01*
X4482686Y26824440D01*
X4726440Y26580686D01*
X5013064Y26389170D01*
X5331544Y26257251D01*
X5618193Y26200233D01*
X5807674Y26044730D01*
X5330983Y25900127D01*
X4870616Y25654055D01*
X4467101Y25322899D01*
X4135945Y24919384D01*
X3889873Y24459017D01*
X3738343Y23959490D01*
X3687179Y23440000D01*
X3738343Y22920510D01*
X3889873Y22420983D01*
X4135945Y21960616D01*
X4384113Y21658222D01*
X10044116Y15998218D01*
X10127101Y15897101D01*
X10228218Y15814116D01*
X10228221Y15814113D01*
X10351887Y15712623D01*
X10530615Y15565944D01*
X10990982Y15319873D01*
X11490509Y15168343D01*
X11879815Y15130000D01*
X11879823Y15130000D01*
X12010000Y15117179D01*
X12140177Y15130000D01*
X19180185Y15130000D01*
X19569491Y15168343D01*
X20069018Y15319873D01*
X20529385Y15565944D01*
X20932899Y15897101D01*
X21264056Y16300615D01*
X21510127Y16760982D01*
X21661657Y17260509D01*
X21712822Y17780000D01*
X21661657Y18299491D01*
X21510127Y18799018D01*
X21264056Y19259385D01*
X20932899Y19662899D01*
X20529385Y19994056D01*
X20069018Y20240127D01*
X19569491Y20391657D01*
X19180185Y20430000D01*
X13107666Y20430000D01*
X8131778Y25405887D01*
X7963487Y25544000D01*
X15370185Y25544000D01*
X15759491Y25582343D01*
X16259018Y25733873D01*
X16719385Y25979944D01*
X17122899Y26311101D01*
X17454056Y26714615D01*
X17700127Y27174982D01*
X17851657Y27674509D01*
X17902822Y28194000D01*
X17851657Y28713491D01*
X17700127Y29213018D01*
X17454056Y29673385D01*
X17122899Y30076899D01*
X16990000Y30185967D01*
X16990000Y30398360D01*
X16922749Y30736456D01*
X16790830Y31054936D01*
X16599314Y31341560D01*
X16355560Y31585314D01*
X16068936Y31776830D01*
X15750456Y31908749D01*
X15412360Y31976000D01*
X15067640Y31976000D01*
X14729544Y31908749D01*
X14411064Y31776830D01*
X14124440Y31585314D01*
X13880686Y31341560D01*
X13689170Y31054936D01*
X13601797Y30844000D01*
X9000000Y30844000D01*
X9000000Y32570185D01*
X8961657Y32959491D01*
X8810127Y33459018D01*
X8564056Y33919385D01*
X8326900Y34208360D01*
X15522000Y34208360D01*
X15522000Y33863640D01*
X15589251Y33525544D01*
X15721170Y33207064D01*
X15912686Y32920440D01*
X16156440Y32676686D01*
X16443064Y32485170D01*
X16761544Y32353251D01*
X17099640Y32286000D01*
X17444360Y32286000D01*
X17780000Y32352762D01*
X18115640Y32286000D01*
X18460360Y32286000D01*
X18796000Y32352762D01*
X19131640Y32286000D01*
X19476360Y32286000D01*
X19814456Y32353251D01*
X20132936Y32485170D01*
X20419560Y32676686D01*
X20663314Y32920440D01*
X20854830Y33207064D01*
X20986749Y33525544D01*
X21054000Y33863640D01*
X21054000Y34208360D01*
X20986749Y34546456D01*
X20854830Y34864936D01*
X20663314Y35151560D01*
X20419560Y35395314D01*
X20132936Y35586830D01*
X19814456Y35718749D01*
X19476360Y35786000D01*
X19131640Y35786000D01*
X18796000Y35719238D01*
X18460360Y35786000D01*
X18115640Y35786000D01*
X17780000Y35719238D01*
X17444360Y35786000D01*
X17099640Y35786000D01*
X16761544Y35718749D01*
X16443064Y35586830D01*
X16156440Y35395314D01*
X15912686Y35151560D01*
X15721170Y34864936D01*
X15589251Y34546456D01*
X15522000Y34208360D01*
X8326900Y34208360D01*
X8232899Y34322899D01*
X7829385Y34654056D01*
X7369018Y34900127D01*
X6869491Y35051657D01*
X6350000Y35102822D01*
X5830510Y35051657D01*
X5330983Y34900127D01*
X4870616Y34654056D01*
X4467102Y34322899D01*
X4135945Y33919385D01*
X3889874Y33459018D01*
X3738343Y32959491D01*
X3700000Y32570185D01*
X3700000Y29340177D01*
X3687179Y29210000D01*
X675000Y29210000D01*
X675000Y41235000D01*
X23455001Y41235000D01*
X23455000Y675000D01*
G37*
X23455000Y675000D02*
X675000Y675000D01*
X675000Y12700000D01*
X5861533Y12700000D01*
X5870000Y12614032D01*
X5870000Y12527640D01*
X5886854Y12442909D01*
X5895321Y12356940D01*
X5920397Y12274276D01*
X5937251Y12189544D01*
X5970313Y12109727D01*
X5995388Y12027064D01*
X6036109Y11950881D01*
X6069170Y11871064D01*
X6117168Y11799231D01*
X6157888Y11723048D01*
X6212688Y11656274D01*
X6260686Y11584440D01*
X6321776Y11523350D01*
X6376576Y11456576D01*
X6443350Y11401776D01*
X6504440Y11340686D01*
X6576274Y11292688D01*
X6643048Y11237888D01*
X6719231Y11197168D01*
X6791064Y11149170D01*
X6870881Y11116109D01*
X6947064Y11075388D01*
X7029727Y11050313D01*
X7109544Y11017251D01*
X7194276Y11000397D01*
X7276940Y10975321D01*
X7362909Y10966854D01*
X7447640Y10950000D01*
X17799163Y10950000D01*
X18031593Y10794695D01*
X18422868Y10632623D01*
X18838243Y10550000D01*
X19261757Y10550000D01*
X19677132Y10632623D01*
X20068407Y10794695D01*
X20420545Y11029986D01*
X20720014Y11329455D01*
X20955305Y11681593D01*
X21117377Y12072868D01*
X21200000Y12488243D01*
X21200000Y12911757D01*
X21117377Y13327132D01*
X20955305Y13718407D01*
X20720014Y14070545D01*
X20420545Y14370014D01*
X20068407Y14605305D01*
X19677132Y14767377D01*
X19261757Y14850000D01*
X18838243Y14850000D01*
X18422868Y14767377D01*
X18031593Y14605305D01*
X17799163Y14450000D01*
X7447640Y14450000D01*
X7362909Y14433146D01*
X7276940Y14424679D01*
X7194276Y14399603D01*
X7109544Y14382749D01*
X7029727Y14349687D01*
X6947064Y14324612D01*
X6870881Y14283891D01*
X6791064Y14250830D01*
X6719231Y14202832D01*
X6643048Y14162112D01*
X6576274Y14107312D01*
X6504440Y14059314D01*
X6443350Y13998224D01*
X6376576Y13943424D01*
X6321776Y13876650D01*
X6260686Y13815560D01*
X6212688Y13743726D01*
X6157888Y13676952D01*
X6117168Y13600769D01*
X6069170Y13528936D01*
X6036109Y13449119D01*
X5995388Y13372936D01*
X5970313Y13290273D01*
X5937251Y13210456D01*
X5920397Y13125724D01*
X5895321Y13043060D01*
X5886854Y12957091D01*
X5870000Y12872360D01*
X5870000Y12785968D01*
X5861533Y12700000D01*
X675000Y12700000D01*
X675000Y29210000D01*
X3687179Y29210000D01*
X3700000Y29079823D01*
X3700000Y29079816D01*
X3738343Y28690510D01*
X3889873Y28190983D01*
X4092000Y27812830D01*
X4092000Y27767640D01*
X4159251Y27429544D01*
X4291170Y27111064D01*
X4482686Y26824440D01*
X4726440Y26580686D01*
X5013064Y26389170D01*
X5331544Y26257251D01*
X5618193Y26200233D01*
X5807674Y26044730D01*
X5330983Y25900127D01*
X4870616Y25654055D01*
X4467101Y25322899D01*
X4135945Y24919384D01*
X3889873Y24459017D01*
X3738343Y23959490D01*
X3687179Y23440000D01*
X3738343Y22920510D01*
X3889873Y22420983D01*
X4135945Y21960616D01*
X4384113Y21658222D01*
X10044116Y15998218D01*
X10127101Y15897101D01*
X10228218Y15814116D01*
X10228221Y15814113D01*
X10351887Y15712623D01*
X10530615Y15565944D01*
X10990982Y15319873D01*
X11490509Y15168343D01*
X11879815Y15130000D01*
X11879823Y15130000D01*
X12010000Y15117179D01*
X12140177Y15130000D01*
X19180185Y15130000D01*
X19569491Y15168343D01*
X20069018Y15319873D01*
X20529385Y15565944D01*
X20932899Y15897101D01*
X21264056Y16300615D01*
X21510127Y16760982D01*
X21661657Y17260509D01*
X21712822Y17780000D01*
X21661657Y18299491D01*
X21510127Y18799018D01*
X21264056Y19259385D01*
X20932899Y19662899D01*
X20529385Y19994056D01*
X20069018Y20240127D01*
X19569491Y20391657D01*
X19180185Y20430000D01*
X13107666Y20430000D01*
X8131778Y25405887D01*
X7963487Y25544000D01*
X15370185Y25544000D01*
X15759491Y25582343D01*
X16259018Y25733873D01*
X16719385Y25979944D01*
X17122899Y26311101D01*
X17454056Y26714615D01*
X17700127Y27174982D01*
X17851657Y27674509D01*
X17902822Y28194000D01*
X17851657Y28713491D01*
X17700127Y29213018D01*
X17454056Y29673385D01*
X17122899Y30076899D01*
X16990000Y30185967D01*
X16990000Y30398360D01*
X16922749Y30736456D01*
X16790830Y31054936D01*
X16599314Y31341560D01*
X16355560Y31585314D01*
X16068936Y31776830D01*
X15750456Y31908749D01*
X15412360Y31976000D01*
X15067640Y31976000D01*
X14729544Y31908749D01*
X14411064Y31776830D01*
X14124440Y31585314D01*
X13880686Y31341560D01*
X13689170Y31054936D01*
X13601797Y30844000D01*
X9000000Y30844000D01*
X9000000Y32570185D01*
X8961657Y32959491D01*
X8810127Y33459018D01*
X8564056Y33919385D01*
X8326900Y34208360D01*
X15522000Y34208360D01*
X15522000Y33863640D01*
X15589251Y33525544D01*
X15721170Y33207064D01*
X15912686Y32920440D01*
X16156440Y32676686D01*
X16443064Y32485170D01*
X16761544Y32353251D01*
X17099640Y32286000D01*
X17444360Y32286000D01*
X17780000Y32352762D01*
X18115640Y32286000D01*
X18460360Y32286000D01*
X18796000Y32352762D01*
X19131640Y32286000D01*
X19476360Y32286000D01*
X19814456Y32353251D01*
X20132936Y32485170D01*
X20419560Y32676686D01*
X20663314Y32920440D01*
X20854830Y33207064D01*
X20986749Y33525544D01*
X21054000Y33863640D01*
X21054000Y34208360D01*
X20986749Y34546456D01*
X20854830Y34864936D01*
X20663314Y35151560D01*
X20419560Y35395314D01*
X20132936Y35586830D01*
X19814456Y35718749D01*
X19476360Y35786000D01*
X19131640Y35786000D01*
X18796000Y35719238D01*
X18460360Y35786000D01*
X18115640Y35786000D01*
X17780000Y35719238D01*
X17444360Y35786000D01*
X17099640Y35786000D01*
X16761544Y35718749D01*
X16443064Y35586830D01*
X16156440Y35395314D01*
X15912686Y35151560D01*
X15721170Y34864936D01*
X15589251Y34546456D01*
X15522000Y34208360D01*
X8326900Y34208360D01*
X8232899Y34322899D01*
X7829385Y34654056D01*
X7369018Y34900127D01*
X6869491Y35051657D01*
X6350000Y35102822D01*
X5830510Y35051657D01*
X5330983Y34900127D01*
X4870616Y34654056D01*
X4467102Y34322899D01*
X4135945Y33919385D01*
X3889874Y33459018D01*
X3738343Y32959491D01*
X3700000Y32570185D01*
X3700000Y29340177D01*
X3687179Y29210000D01*
X675000Y29210000D01*
X675000Y41235000D01*
X23455001Y41235000D01*
X23455000Y675000D01*
%TD*%
M02*
