M48
; DRILL file {KiCad (5.1.6)-1} date 08/08/22 10:00:37
; FORMAT={-:-/ absolute / metric / decimal}
; #@! TF.CreationDate,2022-08-08T10:00:37-05:00
; #@! TF.GenerationSoftware,Kicad,Pcbnew,(5.1.6)-1
FMAT,2
METRIC
T1C0.800
T2C0.900
T3C3.100
%
G90
G05
T1
X40.64Y95.19
X40.64Y86.3
X55.88Y95.19
X55.88Y86.3
X38.1Y24.07
X38.1Y16.45
X67.31Y21.53
X67.31Y18.99
X31.75Y91.38
X31.75Y88.84
X69.85Y21.53
X69.85Y13.91
X34.29Y21.53
X34.29Y13.91
X48.26Y30.42
X48.26Y27.88
X58.42Y21.53
X58.42Y18.99
X31.75Y6.29
X34.29Y6.29
X36.83Y6.29
X39.37Y6.29
X41.91Y6.29
X5.08Y65.98
X5.08Y63.44
X5.08Y60.9
X29.21Y24.07
X29.21Y16.45
X69.85Y52.01
X69.85Y49.47
X69.85Y46.93
X69.85Y44.39
X52.07Y6.29
X54.61Y6.29
X57.15Y6.29
X59.69Y6.29
X8.89Y16.45
X16.51Y16.45
X64.77Y24.07
X64.77Y16.45
X52.07Y21.53
X52.07Y13.91
X69.85Y65.98
X69.85Y63.44
X69.85Y60.9
X69.85Y58.36
X49.53Y21.53
X49.53Y18.99
X69.79Y38.04
X69.79Y35.5
X69.79Y32.96
X69.79Y30.42
X43.18Y21.53
X43.18Y13.91
X46.99Y24.07
X46.99Y16.45
X60.96Y21.53
X60.96Y13.91
X69.85Y79.95
X69.85Y77.41
X69.85Y74.87
X69.85Y72.33
X31.75Y21.53
X31.75Y18.99
X6.35Y20.26
X8.89Y20.26
X11.43Y20.26
X13.97Y20.26
X16.51Y20.26
X19.05Y20.26
X21.59Y6.29
X24.13Y6.29
X63.5Y95.19
X68.58Y95.19
X40.64Y21.53
X40.64Y18.99
X5.08Y53.28
X5.08Y50.74
X5.08Y48.2
X5.08Y45.66
X5.08Y43.12
X5.08Y40.58
X5.08Y38.04
X5.08Y35.5
X55.88Y24.07
X55.88Y16.45
X13.97Y10.1
X13.97Y7.56
T2
X5.08Y72.33
X8.89Y65.98
X8.89Y53.28
X8.89Y45.66
X8.89Y25.34
X11.43Y48.2
X11.43Y25.2
X16.51Y58.36
X16.51Y25.34
X19.05Y79.95
X21.59Y35.5
X21.59Y10.1
X24.13Y68.52
X24.13Y30.42
X24.13Y27.88
X27.94Y77.41
X31.75Y72.33
X31.75Y68.52
X40.64Y79.95
X40.64Y77.41
X40.64Y68.52
X44.45Y27.88
X62.23Y77.41
X62.23Y65.98
X62.23Y63.44
X62.23Y52.01
X62.23Y49.47
X62.23Y38.04
X64.77Y79.95
X64.77Y68.52
X64.77Y65.98
X64.77Y54.55
X64.77Y52.01
X64.77Y38.04
X19.05Y68.52
X19.05Y65.98
X19.05Y63.44
X19.05Y60.9
X19.05Y58.36
X19.05Y55.82
X19.05Y53.28
X19.05Y50.74
X19.05Y48.2
X19.05Y45.66
X19.05Y43.12
X19.05Y40.58
X19.05Y38.04
X19.05Y35.5
X19.05Y32.96
X44.45Y68.52
X44.45Y65.98
X44.45Y63.44
X44.45Y60.9
X44.45Y58.36
X44.45Y55.82
X44.45Y53.28
X44.45Y50.74
X44.45Y48.2
X44.45Y45.66
X44.45Y43.12
X44.45Y40.58
X44.45Y38.04
X44.45Y35.5
X44.45Y32.96
T3
X5.08Y93.92
X5.08Y5.02
X69.85Y87.57
X69.85Y5.02
T0
M30
