%TF.GenerationSoftware,KiCad,Pcbnew,(5.1.6)-1*%
%TF.CreationDate,2022-04-05T12:30:06-05:00*%
%TF.ProjectId,usb_connector,7573625f-636f-46e6-9e65-63746f722e6b,rev?*%
%TF.SameCoordinates,Original*%
%TF.FileFunction,Copper,L2,Bot*%
%TF.FilePolarity,Positive*%
%FSLAX46Y46*%
G04 Gerber Fmt 4.6, Leading zero omitted, Abs format (unit mm)*
G04 Created by KiCad (PCBNEW (5.1.6)-1) date 2022-04-05 12:30:06*
%MOMM*%
%LPD*%
G01*
G04 APERTURE LIST*
%TA.AperFunction,ComponentPad*%
%ADD10C,1.600000*%
%TD*%
%TA.AperFunction,ComponentPad*%
%ADD11R,1.600000X1.600000*%
%TD*%
%TA.AperFunction,ComponentPad*%
%ADD12C,4.000000*%
%TD*%
%TA.AperFunction,ComponentPad*%
%ADD13C,2.200000*%
%TD*%
%TA.AperFunction,ViaPad*%
%ADD14C,3.300000*%
%TD*%
%TA.AperFunction,Conductor*%
%ADD15C,1.500000*%
%TD*%
%TA.AperFunction,Conductor*%
%ADD16C,2.200000*%
%TD*%
%TA.AperFunction,Conductor*%
%ADD17C,2.300000*%
%TD*%
%TA.AperFunction,NonConductor*%
%ADD18C,0.254000*%
%TD*%
G04 APERTURE END LIST*
D10*
%TO.P,J1,1*%
%TO.N,Net-(J1-Pad1)*%
X10160000Y15610000D03*
%TO.P,J1,2*%
%TO.N,Net-(J1-Pad2)*%
X10160000Y18110000D03*
D11*
%TO.P,J1,3*%
%TO.N,Net-(J1-Pad3)*%
X8160000Y18110000D03*
%TO.P,J1,4*%
%TO.N,Net-(J1-Pad4)*%
X8160000Y15610000D03*
D12*
%TO.P,J1,5*%
%TO.N,N/C*%
X5300000Y22860000D03*
X5300000Y10860000D03*
%TD*%
D13*
%TO.P,J2,1*%
%TO.N,Net-(J1-Pad3)*%
X17780000Y20700000D03*
%TO.P,J2,2*%
%TO.N,Net-(J1-Pad2)*%
X17780000Y18160000D03*
%TO.P,J2,3*%
%TO.N,Net-(J1-Pad1)*%
X17780000Y15620000D03*
%TO.P,J2,4*%
%TO.N,Net-(J1-Pad4)*%
X17780000Y13080000D03*
%TD*%
D14*
%TO.N,*%
X8890000Y30480000D03*
X8890000Y3810000D03*
%TD*%
D15*
%TO.N,Net-(J1-Pad1)*%
X17770000Y15610000D02*
X17780000Y15620000D01*
D16*
X10270001Y15620000D02*
X10260001Y15610000D01*
D17*
X11345549Y15610000D02*
X10310001Y15610000D01*
X17780000Y15620000D02*
X11355549Y15620000D01*
X11355549Y15620000D02*
X11345549Y15610000D01*
D15*
%TO.N,Net-(J1-Pad2)*%
X17730000Y18110000D02*
X17780000Y18160000D01*
D16*
X17780000Y18160000D02*
X17525000Y18160000D01*
X17525000Y18160000D02*
X17475000Y18110000D01*
D17*
X10360001Y18160000D02*
X10310001Y18110000D01*
X17780000Y18160000D02*
X10360001Y18160000D01*
D15*
%TO.N,Net-(J1-Pad3)*%
X17525000Y20700000D02*
X17145000Y20320000D01*
X17780000Y20700000D02*
X17525000Y20700000D01*
X16510000Y20320000D02*
X16450010Y20260010D01*
X17145000Y20320000D02*
X16510000Y20320000D01*
X16450010Y20260010D02*
X9490149Y20260010D01*
X8160000Y18929861D02*
X8160000Y18110000D01*
X9490149Y20260010D02*
X8160000Y18929861D01*
%TO.N,Net-(J1-Pad4)*%
X8160000Y14790139D02*
X8160000Y15610000D01*
X17780000Y13335000D02*
X17595010Y13519990D01*
X17780000Y13080000D02*
X17780000Y13335000D01*
X17585010Y13509990D02*
X9440149Y13509990D01*
X17595010Y13519990D02*
X17585010Y13509990D01*
X9440149Y13509990D02*
X8160000Y14790139D01*
%TD*%
D18*
G36*
X21138001Y452000D02*
G01*
X452000Y452000D01*
X452000Y4014567D01*
X6813000Y4014567D01*
X6813000Y3605433D01*
X6892818Y3204161D01*
X7049386Y2826171D01*
X7276689Y2485989D01*
X7565989Y2196689D01*
X7906171Y1969386D01*
X8284161Y1812818D01*
X8685433Y1733000D01*
X9094567Y1733000D01*
X9495839Y1812818D01*
X9873829Y1969386D01*
X10214011Y2196689D01*
X10503311Y2485989D01*
X10730614Y2826171D01*
X10887182Y3204161D01*
X10967000Y3605433D01*
X10967000Y4014567D01*
X10887182Y4415839D01*
X10730614Y4793829D01*
X10503311Y5134011D01*
X10214011Y5423311D01*
X9873829Y5650614D01*
X9495839Y5807182D01*
X9094567Y5887000D01*
X8685433Y5887000D01*
X8284161Y5807182D01*
X7906171Y5650614D01*
X7565989Y5423311D01*
X7276689Y5134011D01*
X7049386Y4793829D01*
X6892818Y4415839D01*
X6813000Y4014567D01*
X452000Y4014567D01*
X452000Y11099039D01*
X2873000Y11099039D01*
X2873000Y10620961D01*
X2966268Y10152070D01*
X3149221Y9710385D01*
X3414826Y9312878D01*
X3752878Y8974826D01*
X4150385Y8709221D01*
X4592070Y8526268D01*
X5060961Y8433000D01*
X5539039Y8433000D01*
X6007930Y8526268D01*
X6449615Y8709221D01*
X6847122Y8974826D01*
X7185174Y9312878D01*
X7450779Y9710385D01*
X7633732Y10152070D01*
X7727000Y10620961D01*
X7727000Y11099039D01*
X7633732Y11567930D01*
X7450779Y12009615D01*
X7185174Y12407122D01*
X6847122Y12745174D01*
X6449615Y13010779D01*
X6007930Y13193732D01*
X5539039Y13287000D01*
X5060961Y13287000D01*
X4592070Y13193732D01*
X4150385Y13010779D01*
X3752878Y12745174D01*
X3414826Y12407122D01*
X3149221Y12009615D01*
X2966268Y11567930D01*
X2873000Y11099039D01*
X452000Y11099039D01*
X452000Y18910000D01*
X6930934Y18910000D01*
X6930934Y17310000D01*
X6939178Y17226293D01*
X6963595Y17145804D01*
X7003245Y17071624D01*
X7056605Y17006605D01*
X7121624Y16953245D01*
X7195804Y16913595D01*
X7276293Y16889178D01*
X7360000Y16880934D01*
X8960000Y16880934D01*
X9043707Y16889178D01*
X9124196Y16913595D01*
X9198376Y16953245D01*
X9216025Y16967729D01*
X9347292Y16860001D01*
X9216024Y16752272D01*
X9198376Y16766755D01*
X9124196Y16806405D01*
X9043707Y16830822D01*
X8960000Y16839066D01*
X7360000Y16839066D01*
X7276293Y16830822D01*
X7195804Y16806405D01*
X7121624Y16766755D01*
X7056605Y16713395D01*
X7003245Y16648376D01*
X6963595Y16574196D01*
X6939178Y16493707D01*
X6930934Y16410000D01*
X6930934Y14810000D01*
X6939178Y14726293D01*
X6963595Y14645804D01*
X6997830Y14581755D01*
X7000031Y14559408D01*
X7067333Y14337543D01*
X7176626Y14133070D01*
X7323709Y13953848D01*
X7368623Y13916988D01*
X8567002Y12718608D01*
X8603858Y12673699D01*
X8783079Y12526616D01*
X8987552Y12417323D01*
X9187419Y12356694D01*
X9209417Y12350021D01*
X9440148Y12327296D01*
X9497960Y12332990D01*
X16442628Y12332990D01*
X16593901Y12106594D01*
X16806594Y11893901D01*
X17056694Y11726790D01*
X17334590Y11611681D01*
X17629604Y11553000D01*
X17930396Y11553000D01*
X18225410Y11611681D01*
X18503306Y11726790D01*
X18753406Y11893901D01*
X18966099Y12106594D01*
X19133210Y12356694D01*
X19248319Y12634590D01*
X19307000Y12929604D01*
X19307000Y13230396D01*
X19248319Y13525410D01*
X19133210Y13803306D01*
X18966099Y14053406D01*
X18753406Y14266099D01*
X18677724Y14316668D01*
X18900503Y14499497D01*
X19097572Y14739627D01*
X19244007Y15013588D01*
X19334182Y15310854D01*
X19364630Y15620000D01*
X19334182Y15929146D01*
X19244007Y16226412D01*
X19097572Y16500373D01*
X18900503Y16740503D01*
X18718340Y16890000D01*
X18900503Y17039497D01*
X19097572Y17279627D01*
X19244007Y17553588D01*
X19334182Y17850854D01*
X19364630Y18160000D01*
X19334182Y18469146D01*
X19244007Y18766412D01*
X19097572Y19040373D01*
X18900503Y19280503D01*
X18677724Y19463332D01*
X18753406Y19513901D01*
X18966099Y19726594D01*
X19133210Y19976694D01*
X19248319Y20254590D01*
X19307000Y20549604D01*
X19307000Y20850396D01*
X19248319Y21145410D01*
X19133210Y21423306D01*
X18966099Y21673406D01*
X18753406Y21886099D01*
X18503306Y22053210D01*
X18225410Y22168319D01*
X17930396Y22227000D01*
X17629604Y22227000D01*
X17334590Y22168319D01*
X17056694Y22053210D01*
X16806594Y21886099D01*
X16593901Y21673406D01*
X16477710Y21499514D01*
X16452188Y21497000D01*
X16279268Y21479969D01*
X16137651Y21437010D01*
X9547961Y21437010D01*
X9490149Y21442704D01*
X9432337Y21437010D01*
X9259417Y21419979D01*
X9037552Y21352677D01*
X8833079Y21243384D01*
X8722455Y21152597D01*
X8653858Y21096301D01*
X8617007Y21051398D01*
X7368622Y19803011D01*
X7323709Y19766152D01*
X7176626Y19586930D01*
X7067333Y19382457D01*
X7025629Y19244976D01*
X7000031Y19160592D01*
X6997830Y19138245D01*
X6963595Y19074196D01*
X6939178Y18993707D01*
X6930934Y18910000D01*
X452000Y18910000D01*
X452000Y23099039D01*
X2873000Y23099039D01*
X2873000Y22620961D01*
X2966268Y22152070D01*
X3149221Y21710385D01*
X3414826Y21312878D01*
X3752878Y20974826D01*
X4150385Y20709221D01*
X4592070Y20526268D01*
X5060961Y20433000D01*
X5539039Y20433000D01*
X6007930Y20526268D01*
X6449615Y20709221D01*
X6847122Y20974826D01*
X7185174Y21312878D01*
X7450779Y21710385D01*
X7633732Y22152070D01*
X7727000Y22620961D01*
X7727000Y23099039D01*
X7633732Y23567930D01*
X7450779Y24009615D01*
X7185174Y24407122D01*
X6847122Y24745174D01*
X6449615Y25010779D01*
X6007930Y25193732D01*
X5539039Y25287000D01*
X5060961Y25287000D01*
X4592070Y25193732D01*
X4150385Y25010779D01*
X3752878Y24745174D01*
X3414826Y24407122D01*
X3149221Y24009615D01*
X2966268Y23567930D01*
X2873000Y23099039D01*
X452000Y23099039D01*
X452000Y30684567D01*
X6813000Y30684567D01*
X6813000Y30275433D01*
X6892818Y29874161D01*
X7049386Y29496171D01*
X7276689Y29155989D01*
X7565989Y28866689D01*
X7906171Y28639386D01*
X8284161Y28482818D01*
X8685433Y28403000D01*
X9094567Y28403000D01*
X9495839Y28482818D01*
X9873829Y28639386D01*
X10214011Y28866689D01*
X10503311Y29155989D01*
X10730614Y29496171D01*
X10887182Y29874161D01*
X10967000Y30275433D01*
X10967000Y30684567D01*
X10887182Y31085839D01*
X10730614Y31463829D01*
X10503311Y31804011D01*
X10214011Y32093311D01*
X9873829Y32320614D01*
X9495839Y32477182D01*
X9094567Y32557000D01*
X8685433Y32557000D01*
X8284161Y32477182D01*
X7906171Y32320614D01*
X7565989Y32093311D01*
X7276689Y31804011D01*
X7049386Y31463829D01*
X6892818Y31085839D01*
X6813000Y30684567D01*
X452000Y30684567D01*
X452000Y33838000D01*
X21138000Y33838000D01*
X21138001Y452000D01*
G37*
X21138001Y452000D02*
X452000Y452000D01*
X452000Y4014567D01*
X6813000Y4014567D01*
X6813000Y3605433D01*
X6892818Y3204161D01*
X7049386Y2826171D01*
X7276689Y2485989D01*
X7565989Y2196689D01*
X7906171Y1969386D01*
X8284161Y1812818D01*
X8685433Y1733000D01*
X9094567Y1733000D01*
X9495839Y1812818D01*
X9873829Y1969386D01*
X10214011Y2196689D01*
X10503311Y2485989D01*
X10730614Y2826171D01*
X10887182Y3204161D01*
X10967000Y3605433D01*
X10967000Y4014567D01*
X10887182Y4415839D01*
X10730614Y4793829D01*
X10503311Y5134011D01*
X10214011Y5423311D01*
X9873829Y5650614D01*
X9495839Y5807182D01*
X9094567Y5887000D01*
X8685433Y5887000D01*
X8284161Y5807182D01*
X7906171Y5650614D01*
X7565989Y5423311D01*
X7276689Y5134011D01*
X7049386Y4793829D01*
X6892818Y4415839D01*
X6813000Y4014567D01*
X452000Y4014567D01*
X452000Y11099039D01*
X2873000Y11099039D01*
X2873000Y10620961D01*
X2966268Y10152070D01*
X3149221Y9710385D01*
X3414826Y9312878D01*
X3752878Y8974826D01*
X4150385Y8709221D01*
X4592070Y8526268D01*
X5060961Y8433000D01*
X5539039Y8433000D01*
X6007930Y8526268D01*
X6449615Y8709221D01*
X6847122Y8974826D01*
X7185174Y9312878D01*
X7450779Y9710385D01*
X7633732Y10152070D01*
X7727000Y10620961D01*
X7727000Y11099039D01*
X7633732Y11567930D01*
X7450779Y12009615D01*
X7185174Y12407122D01*
X6847122Y12745174D01*
X6449615Y13010779D01*
X6007930Y13193732D01*
X5539039Y13287000D01*
X5060961Y13287000D01*
X4592070Y13193732D01*
X4150385Y13010779D01*
X3752878Y12745174D01*
X3414826Y12407122D01*
X3149221Y12009615D01*
X2966268Y11567930D01*
X2873000Y11099039D01*
X452000Y11099039D01*
X452000Y18910000D01*
X6930934Y18910000D01*
X6930934Y17310000D01*
X6939178Y17226293D01*
X6963595Y17145804D01*
X7003245Y17071624D01*
X7056605Y17006605D01*
X7121624Y16953245D01*
X7195804Y16913595D01*
X7276293Y16889178D01*
X7360000Y16880934D01*
X8960000Y16880934D01*
X9043707Y16889178D01*
X9124196Y16913595D01*
X9198376Y16953245D01*
X9216025Y16967729D01*
X9347292Y16860001D01*
X9216024Y16752272D01*
X9198376Y16766755D01*
X9124196Y16806405D01*
X9043707Y16830822D01*
X8960000Y16839066D01*
X7360000Y16839066D01*
X7276293Y16830822D01*
X7195804Y16806405D01*
X7121624Y16766755D01*
X7056605Y16713395D01*
X7003245Y16648376D01*
X6963595Y16574196D01*
X6939178Y16493707D01*
X6930934Y16410000D01*
X6930934Y14810000D01*
X6939178Y14726293D01*
X6963595Y14645804D01*
X6997830Y14581755D01*
X7000031Y14559408D01*
X7067333Y14337543D01*
X7176626Y14133070D01*
X7323709Y13953848D01*
X7368623Y13916988D01*
X8567002Y12718608D01*
X8603858Y12673699D01*
X8783079Y12526616D01*
X8987552Y12417323D01*
X9187419Y12356694D01*
X9209417Y12350021D01*
X9440148Y12327296D01*
X9497960Y12332990D01*
X16442628Y12332990D01*
X16593901Y12106594D01*
X16806594Y11893901D01*
X17056694Y11726790D01*
X17334590Y11611681D01*
X17629604Y11553000D01*
X17930396Y11553000D01*
X18225410Y11611681D01*
X18503306Y11726790D01*
X18753406Y11893901D01*
X18966099Y12106594D01*
X19133210Y12356694D01*
X19248319Y12634590D01*
X19307000Y12929604D01*
X19307000Y13230396D01*
X19248319Y13525410D01*
X19133210Y13803306D01*
X18966099Y14053406D01*
X18753406Y14266099D01*
X18677724Y14316668D01*
X18900503Y14499497D01*
X19097572Y14739627D01*
X19244007Y15013588D01*
X19334182Y15310854D01*
X19364630Y15620000D01*
X19334182Y15929146D01*
X19244007Y16226412D01*
X19097572Y16500373D01*
X18900503Y16740503D01*
X18718340Y16890000D01*
X18900503Y17039497D01*
X19097572Y17279627D01*
X19244007Y17553588D01*
X19334182Y17850854D01*
X19364630Y18160000D01*
X19334182Y18469146D01*
X19244007Y18766412D01*
X19097572Y19040373D01*
X18900503Y19280503D01*
X18677724Y19463332D01*
X18753406Y19513901D01*
X18966099Y19726594D01*
X19133210Y19976694D01*
X19248319Y20254590D01*
X19307000Y20549604D01*
X19307000Y20850396D01*
X19248319Y21145410D01*
X19133210Y21423306D01*
X18966099Y21673406D01*
X18753406Y21886099D01*
X18503306Y22053210D01*
X18225410Y22168319D01*
X17930396Y22227000D01*
X17629604Y22227000D01*
X17334590Y22168319D01*
X17056694Y22053210D01*
X16806594Y21886099D01*
X16593901Y21673406D01*
X16477710Y21499514D01*
X16452188Y21497000D01*
X16279268Y21479969D01*
X16137651Y21437010D01*
X9547961Y21437010D01*
X9490149Y21442704D01*
X9432337Y21437010D01*
X9259417Y21419979D01*
X9037552Y21352677D01*
X8833079Y21243384D01*
X8722455Y21152597D01*
X8653858Y21096301D01*
X8617007Y21051398D01*
X7368622Y19803011D01*
X7323709Y19766152D01*
X7176626Y19586930D01*
X7067333Y19382457D01*
X7025629Y19244976D01*
X7000031Y19160592D01*
X6997830Y19138245D01*
X6963595Y19074196D01*
X6939178Y18993707D01*
X6930934Y18910000D01*
X452000Y18910000D01*
X452000Y23099039D01*
X2873000Y23099039D01*
X2873000Y22620961D01*
X2966268Y22152070D01*
X3149221Y21710385D01*
X3414826Y21312878D01*
X3752878Y20974826D01*
X4150385Y20709221D01*
X4592070Y20526268D01*
X5060961Y20433000D01*
X5539039Y20433000D01*
X6007930Y20526268D01*
X6449615Y20709221D01*
X6847122Y20974826D01*
X7185174Y21312878D01*
X7450779Y21710385D01*
X7633732Y22152070D01*
X7727000Y22620961D01*
X7727000Y23099039D01*
X7633732Y23567930D01*
X7450779Y24009615D01*
X7185174Y24407122D01*
X6847122Y24745174D01*
X6449615Y25010779D01*
X6007930Y25193732D01*
X5539039Y25287000D01*
X5060961Y25287000D01*
X4592070Y25193732D01*
X4150385Y25010779D01*
X3752878Y24745174D01*
X3414826Y24407122D01*
X3149221Y24009615D01*
X2966268Y23567930D01*
X2873000Y23099039D01*
X452000Y23099039D01*
X452000Y30684567D01*
X6813000Y30684567D01*
X6813000Y30275433D01*
X6892818Y29874161D01*
X7049386Y29496171D01*
X7276689Y29155989D01*
X7565989Y28866689D01*
X7906171Y28639386D01*
X8284161Y28482818D01*
X8685433Y28403000D01*
X9094567Y28403000D01*
X9495839Y28482818D01*
X9873829Y28639386D01*
X10214011Y28866689D01*
X10503311Y29155989D01*
X10730614Y29496171D01*
X10887182Y29874161D01*
X10967000Y30275433D01*
X10967000Y30684567D01*
X10887182Y31085839D01*
X10730614Y31463829D01*
X10503311Y31804011D01*
X10214011Y32093311D01*
X9873829Y32320614D01*
X9495839Y32477182D01*
X9094567Y32557000D01*
X8685433Y32557000D01*
X8284161Y32477182D01*
X7906171Y32320614D01*
X7565989Y32093311D01*
X7276689Y31804011D01*
X7049386Y31463829D01*
X6892818Y31085839D01*
X6813000Y30684567D01*
X452000Y30684567D01*
X452000Y33838000D01*
X21138000Y33838000D01*
X21138001Y452000D01*
M02*
