%TF.GenerationSoftware,KiCad,Pcbnew,(5.1.6)-1*%
%TF.CreationDate,2022-08-01T13:49:51-05:00*%
%TF.ProjectId,vacuum_pcb,76616375-756d-45f7-9063-622e6b696361,rev?*%
%TF.SameCoordinates,Original*%
%TF.FileFunction,Copper,L2,Bot*%
%TF.FilePolarity,Positive*%
%FSLAX46Y46*%
G04 Gerber Fmt 4.6, Leading zero omitted, Abs format (unit mm)*
G04 Created by KiCad (PCBNEW (5.1.6)-1) date 2022-08-01 13:49:51*
%MOMM*%
%LPD*%
G01*
G04 APERTURE LIST*
%TA.AperFunction,ComponentPad*%
%ADD10C,2.100000*%
%TD*%
%TA.AperFunction,ComponentPad*%
%ADD11C,2.200000*%
%TD*%
%TA.AperFunction,ComponentPad*%
%ADD12C,3.000000*%
%TD*%
%TA.AperFunction,ViaPad*%
%ADD13C,3.400000*%
%TD*%
%TA.AperFunction,ViaPad*%
%ADD14C,3.000000*%
%TD*%
%TA.AperFunction,Conductor*%
%ADD15C,1.500000*%
%TD*%
%TA.AperFunction,Conductor*%
%ADD16C,2.200000*%
%TD*%
%TA.AperFunction,Conductor*%
%ADD17C,5.000000*%
%TD*%
%TA.AperFunction,Conductor*%
%ADD18C,0.254000*%
%TD*%
G04 APERTURE END LIST*
D10*
%TO.P,U1,1*%
%TO.N,Net-(J2-Pad1)*%
X25400000Y22860000D03*
%TO.P,U1,2*%
%TO.N,GND*%
X27940000Y22860000D03*
%TO.P,U1,3*%
%TO.N,Net-(U1-Pad3)*%
X30480000Y22860000D03*
%TO.P,U1,4*%
%TO.N,Net-(J3-Pad2)*%
X33020000Y22860000D03*
%TO.P,U1,5*%
%TO.N,Net-(U1-Pad5)*%
X35560000Y22860000D03*
%TO.P,U1,6*%
%TO.N,Net-(U1-Pad6)*%
X38100000Y22860000D03*
%TO.P,U1,7*%
%TO.N,Net-(U1-Pad7)*%
X40640000Y22860000D03*
%TO.P,U1,8*%
%TO.N,Net-(U1-Pad8)*%
X43180000Y22860000D03*
%TO.P,U1,9*%
%TO.N,Net-(D1-Pad2)*%
X45720000Y22860000D03*
%TO.P,U1,10*%
%TO.N,Net-(U1-Pad10)*%
X48260000Y22860000D03*
%TO.P,U1,11*%
%TO.N,Net-(U1-Pad11)*%
X50800000Y22860000D03*
%TO.P,U1,12*%
%TO.N,Net-(U1-Pad12)*%
X53340000Y22860000D03*
%TO.P,U1,13*%
%TO.N,Net-(U1-Pad13)*%
X55880000Y22860000D03*
%TO.P,U1,14*%
%TO.N,Net-(U1-Pad14)*%
X58420000Y22860000D03*
%TO.P,U1,15*%
%TO.N,Net-(U1-Pad15)*%
X60960000Y22860000D03*
%TO.P,U1,16*%
%TO.N,Net-(U1-Pad16)*%
X60960000Y7620000D03*
%TO.P,U1,17*%
%TO.N,Net-(U1-Pad17)*%
X58420000Y7620000D03*
%TO.P,U1,18*%
%TO.N,Net-(U1-Pad18)*%
X55880000Y7620000D03*
%TO.P,U1,19*%
%TO.N,Net-(U1-Pad19)*%
X53340000Y7620000D03*
%TO.P,U1,20*%
%TO.N,Net-(U1-Pad20)*%
X50800000Y7620000D03*
%TO.P,U1,21*%
%TO.N,Net-(U1-Pad21)*%
X48260000Y7620000D03*
%TO.P,U1,22*%
%TO.N,Net-(U1-Pad22)*%
X45720000Y7620000D03*
%TO.P,U1,23*%
%TO.N,Net-(J3-Pad1)*%
X43180000Y7620000D03*
%TO.P,U1,24*%
%TO.N,Net-(SW1-PadB)*%
X40640000Y7620000D03*
%TO.P,U1,25*%
%TO.N,Net-(SW1-PadA)*%
X38100000Y7620000D03*
%TO.P,U1,26*%
%TO.N,Net-(SW1-PadS1)*%
X35560000Y7620000D03*
%TO.P,U1,27*%
%TO.N,GND*%
X33020000Y7620000D03*
%TO.P,U1,28*%
%TO.N,Net-(U1-Pad28)*%
X30480000Y7620000D03*
%TO.P,U1,29*%
%TO.N,Net-(U1-Pad29)*%
X27940000Y7620000D03*
%TO.P,U1,30*%
%TO.N,Net-(U1-Pad30)*%
X25400000Y7620000D03*
%TD*%
D11*
%TO.P,M1,1*%
%TO.N,GND*%
X39370000Y29210000D03*
%TO.P,M1,2*%
X24130000Y29210000D03*
%TO.P,M1,3*%
%TO.N,Net-(J2-Pad2)*%
X24130000Y38100000D03*
%TO.P,M1,4*%
%TO.N,Net-(J1-Pad1)*%
X39370000Y38100000D03*
%TD*%
%TO.P,D1,2*%
%TO.N,Net-(D1-Pad2)*%
X45720000Y29210000D03*
%TO.P,D1,1*%
%TO.N,Net-(D1-Pad1)*%
X48260000Y29210000D03*
%TD*%
%TO.P,J2,1*%
%TO.N,Net-(J2-Pad1)*%
X17780000Y31750000D03*
%TO.P,J2,2*%
%TO.N,Net-(J2-Pad2)*%
X17780000Y34290000D03*
%TD*%
%TO.P,R1,1*%
%TO.N,Net-(D1-Pad1)*%
X53340000Y29210000D03*
%TO.P,R1,2*%
%TO.N,GND*%
X60960000Y29210000D03*
%TD*%
%TO.P,SW1,S2*%
%TO.N,GND*%
X3280000Y16430000D03*
%TO.P,SW1,S1*%
%TO.N,Net-(SW1-PadS1)*%
X3280000Y11430000D03*
%TO.P,SW1,MP*%
%TO.N,N/C*%
X10280000Y19530000D03*
X10280000Y8330000D03*
%TO.P,SW1,B*%
%TO.N,Net-(SW1-PadB)*%
X17780000Y16430000D03*
%TO.P,SW1,C*%
%TO.N,GND*%
X17780000Y13930000D03*
%TO.P,SW1,A*%
%TO.N,Net-(SW1-PadA)*%
X17780000Y11430000D03*
%TO.P,SW1,MP*%
%TO.N,N/C*%
X11080000Y8330000D03*
X9480000Y8330000D03*
X11080000Y19530000D03*
X9580000Y19530000D03*
%TD*%
%TO.P,J1,1*%
%TO.N,Net-(J1-Pad1)*%
X53340000Y41910000D03*
%TO.P,J1,2*%
%TO.N,GND*%
X53340000Y36830000D03*
%TD*%
D12*
%TO.P,J3,1*%
%TO.N,Net-(J3-Pad1)*%
X5080000Y24130000D03*
%TO.P,J3,2*%
%TO.N,Net-(J3-Pad2)*%
X5080000Y29210000D03*
%TO.P,J3,3*%
%TO.N,GND*%
X5080000Y34290000D03*
%TO.P,J3,4*%
%TO.N,Net-(J1-Pad1)*%
X5080000Y39370000D03*
%TD*%
D13*
%TO.N,GND*%
X2540000Y46990000D03*
X60960000Y46990000D03*
X60960000Y2540000D03*
X2540000Y2540000D03*
D14*
%TO.N,Net-(J1-Pad1)*%
X10160000Y39370000D03*
X45720000Y41910000D03*
%TD*%
D15*
%TO.N,Net-(D1-Pad1)*%
X48260000Y29210000D02*
X53340000Y29210000D01*
%TO.N,Net-(D1-Pad2)*%
X45720000Y22860000D02*
X45720000Y29210000D01*
%TO.N,Net-(SW1-PadB)*%
X35549993Y13130009D02*
X40640000Y8040002D01*
X40640000Y8040002D02*
X40640000Y7620000D01*
X18495000Y16430000D02*
X21794990Y13130010D01*
X21794990Y13130010D02*
X35549993Y13130009D01*
X17780000Y16430000D02*
X18495000Y16430000D01*
%TO.N,Net-(SW1-PadA)*%
X38100000Y8040002D02*
X38100000Y7620000D01*
X34710002Y11430000D02*
X38100000Y8040002D01*
X17780000Y11430000D02*
X34710002Y11430000D01*
D16*
%TO.N,Net-(J2-Pad1)*%
X17780000Y31750000D02*
X17780000Y29845000D01*
X24714991Y22910009D02*
X25400000Y22910009D01*
X17780000Y29845000D02*
X24714991Y22910009D01*
D17*
%TO.N,Net-(J1-Pad1)*%
X5080000Y39370000D02*
X10160000Y39370000D01*
X53340000Y41910000D02*
X45720000Y41910000D01*
D16*
X43180000Y41910000D02*
X39370000Y38100000D01*
X45720000Y41910000D02*
X45720000Y41910000D01*
D17*
X10160000Y39370000D02*
X10160000Y39370000D01*
D16*
X45720000Y41910000D02*
X43180000Y41910000D01*
%TO.N,Net-(J2-Pad2)*%
X24130000Y38100000D02*
X24130000Y35560000D01*
X22860000Y34290000D02*
X17780000Y34290000D01*
X24130000Y35560000D02*
X22860000Y34290000D01*
D15*
%TO.N,Net-(J3-Pad1)*%
X36389983Y14830019D02*
X22499157Y14830019D01*
X43180000Y7620000D02*
X43180000Y8040002D01*
X43180000Y8040002D02*
X36389983Y14830019D01*
X13199176Y24130000D02*
X22499157Y14830019D01*
X5080000Y24130000D02*
X13199176Y24130000D01*
%TO.N,Net-(J3-Pad2)*%
X31440001Y20859999D02*
X33020000Y22439998D01*
X33020000Y22439998D02*
X33020000Y22860000D01*
X21050001Y20859999D02*
X31440001Y20859999D01*
X5080000Y29210000D02*
X12700000Y29210000D01*
X12700000Y29210000D02*
X21050001Y20859999D01*
%TO.N,Net-(SW1-PadS1)*%
X35560000Y8040002D02*
X35560000Y7620000D01*
X3280000Y11430000D02*
X12700000Y11430000D01*
X33980001Y9620001D02*
X35560000Y8040002D01*
X19050000Y8890000D02*
X19780001Y9620001D01*
X12700000Y11430000D02*
X15240000Y8890000D01*
X15240000Y8890000D02*
X19050000Y8890000D01*
X19780001Y9620001D02*
X33980001Y9620001D01*
%TD*%
D18*
%TO.N,GND*%
G36*
X63048000Y452000D02*
G01*
X452000Y452000D01*
X452000Y8480396D01*
X7953000Y8480396D01*
X7953000Y8179604D01*
X8011681Y7884590D01*
X8126790Y7606694D01*
X8293901Y7356594D01*
X8506594Y7143901D01*
X8756694Y6976790D01*
X9034590Y6861681D01*
X9329604Y6803000D01*
X9630396Y6803000D01*
X9880000Y6852649D01*
X10129604Y6803000D01*
X10430396Y6803000D01*
X10680000Y6852649D01*
X10929604Y6803000D01*
X11230396Y6803000D01*
X11525410Y6861681D01*
X11803306Y6976790D01*
X12053406Y7143901D01*
X12266099Y7356594D01*
X12433210Y7606694D01*
X12548319Y7884590D01*
X12607000Y8179604D01*
X12607000Y8480396D01*
X12548319Y8775410D01*
X12433210Y9053306D01*
X12266099Y9303406D01*
X12053406Y9516099D01*
X11803306Y9683210D01*
X11525410Y9798319D01*
X11230396Y9857000D01*
X10929604Y9857000D01*
X10680000Y9807351D01*
X10430396Y9857000D01*
X10129604Y9857000D01*
X9880000Y9807351D01*
X9630396Y9857000D01*
X9329604Y9857000D01*
X9034590Y9798319D01*
X8756694Y9683210D01*
X8506594Y9516099D01*
X8293901Y9303406D01*
X8126790Y9053306D01*
X8011681Y8775410D01*
X7953000Y8480396D01*
X452000Y8480396D01*
X452000Y11580396D01*
X1753000Y11580396D01*
X1753000Y11279604D01*
X1811681Y10984590D01*
X1926790Y10706694D01*
X2093901Y10456594D01*
X2306594Y10243901D01*
X2556694Y10076790D01*
X2834590Y9961681D01*
X3129604Y9903000D01*
X3430396Y9903000D01*
X3725410Y9961681D01*
X4003306Y10076790D01*
X4253406Y10243901D01*
X4262505Y10253000D01*
X12212472Y10253000D01*
X14366853Y8098618D01*
X14403709Y8053709D01*
X14582930Y7906626D01*
X14787403Y7797333D01*
X15009268Y7730031D01*
X15182188Y7713000D01*
X15182197Y7713000D01*
X15239999Y7707307D01*
X15297801Y7713000D01*
X18992188Y7713000D01*
X19050000Y7707306D01*
X19107812Y7713000D01*
X19280732Y7730031D01*
X19502597Y7797333D01*
X19707070Y7906626D01*
X19886291Y8053709D01*
X19923151Y8098623D01*
X20267529Y8443001D01*
X24173538Y8443001D01*
X24091099Y8319622D01*
X23979760Y8050825D01*
X23923000Y7765472D01*
X23923000Y7474528D01*
X23979760Y7189175D01*
X24091099Y6920378D01*
X24252739Y6678467D01*
X24458467Y6472739D01*
X24700378Y6311099D01*
X24969175Y6199760D01*
X25254528Y6143000D01*
X25545472Y6143000D01*
X25830825Y6199760D01*
X26099622Y6311099D01*
X26341533Y6472739D01*
X26547261Y6678467D01*
X26670000Y6862159D01*
X26792739Y6678467D01*
X26998467Y6472739D01*
X27240378Y6311099D01*
X27509175Y6199760D01*
X27794528Y6143000D01*
X28085472Y6143000D01*
X28370825Y6199760D01*
X28639622Y6311099D01*
X28881533Y6472739D01*
X29087261Y6678467D01*
X29210000Y6862159D01*
X29332739Y6678467D01*
X29538467Y6472739D01*
X29780378Y6311099D01*
X30049175Y6199760D01*
X30334528Y6143000D01*
X30625472Y6143000D01*
X30910825Y6199760D01*
X31179622Y6311099D01*
X31421533Y6472739D01*
X31627261Y6678467D01*
X31788901Y6920378D01*
X31900240Y7189175D01*
X31957000Y7474528D01*
X31957000Y7765472D01*
X31900240Y8050825D01*
X31788901Y8319622D01*
X31706462Y8443001D01*
X33492473Y8443001D01*
X34097434Y7838039D01*
X34083000Y7765472D01*
X34083000Y7474528D01*
X34139760Y7189175D01*
X34251099Y6920378D01*
X34412739Y6678467D01*
X34618467Y6472739D01*
X34860378Y6311099D01*
X35129175Y6199760D01*
X35414528Y6143000D01*
X35705472Y6143000D01*
X35990825Y6199760D01*
X36259622Y6311099D01*
X36501533Y6472739D01*
X36707261Y6678467D01*
X36830000Y6862159D01*
X36952739Y6678467D01*
X37158467Y6472739D01*
X37400378Y6311099D01*
X37669175Y6199760D01*
X37954528Y6143000D01*
X38245472Y6143000D01*
X38530825Y6199760D01*
X38799622Y6311099D01*
X39041533Y6472739D01*
X39247261Y6678467D01*
X39370000Y6862159D01*
X39492739Y6678467D01*
X39698467Y6472739D01*
X39940378Y6311099D01*
X40209175Y6199760D01*
X40494528Y6143000D01*
X40785472Y6143000D01*
X41070825Y6199760D01*
X41339622Y6311099D01*
X41581533Y6472739D01*
X41787261Y6678467D01*
X41910000Y6862159D01*
X42032739Y6678467D01*
X42238467Y6472739D01*
X42480378Y6311099D01*
X42749175Y6199760D01*
X43034528Y6143000D01*
X43325472Y6143000D01*
X43610825Y6199760D01*
X43879622Y6311099D01*
X44121533Y6472739D01*
X44327261Y6678467D01*
X44450000Y6862159D01*
X44572739Y6678467D01*
X44778467Y6472739D01*
X45020378Y6311099D01*
X45289175Y6199760D01*
X45574528Y6143000D01*
X45865472Y6143000D01*
X46150825Y6199760D01*
X46419622Y6311099D01*
X46661533Y6472739D01*
X46867261Y6678467D01*
X46990000Y6862159D01*
X47112739Y6678467D01*
X47318467Y6472739D01*
X47560378Y6311099D01*
X47829175Y6199760D01*
X48114528Y6143000D01*
X48405472Y6143000D01*
X48690825Y6199760D01*
X48959622Y6311099D01*
X49201533Y6472739D01*
X49407261Y6678467D01*
X49530000Y6862159D01*
X49652739Y6678467D01*
X49858467Y6472739D01*
X50100378Y6311099D01*
X50369175Y6199760D01*
X50654528Y6143000D01*
X50945472Y6143000D01*
X51230825Y6199760D01*
X51499622Y6311099D01*
X51741533Y6472739D01*
X51947261Y6678467D01*
X52070000Y6862159D01*
X52192739Y6678467D01*
X52398467Y6472739D01*
X52640378Y6311099D01*
X52909175Y6199760D01*
X53194528Y6143000D01*
X53485472Y6143000D01*
X53770825Y6199760D01*
X54039622Y6311099D01*
X54281533Y6472739D01*
X54487261Y6678467D01*
X54610000Y6862159D01*
X54732739Y6678467D01*
X54938467Y6472739D01*
X55180378Y6311099D01*
X55449175Y6199760D01*
X55734528Y6143000D01*
X56025472Y6143000D01*
X56310825Y6199760D01*
X56579622Y6311099D01*
X56821533Y6472739D01*
X57027261Y6678467D01*
X57150000Y6862159D01*
X57272739Y6678467D01*
X57478467Y6472739D01*
X57720378Y6311099D01*
X57989175Y6199760D01*
X58274528Y6143000D01*
X58565472Y6143000D01*
X58850825Y6199760D01*
X59119622Y6311099D01*
X59361533Y6472739D01*
X59567261Y6678467D01*
X59690000Y6862159D01*
X59812739Y6678467D01*
X60018467Y6472739D01*
X60260378Y6311099D01*
X60529175Y6199760D01*
X60814528Y6143000D01*
X61105472Y6143000D01*
X61390825Y6199760D01*
X61659622Y6311099D01*
X61901533Y6472739D01*
X62107261Y6678467D01*
X62268901Y6920378D01*
X62380240Y7189175D01*
X62437000Y7474528D01*
X62437000Y7765472D01*
X62380240Y8050825D01*
X62268901Y8319622D01*
X62107261Y8561533D01*
X61901533Y8767261D01*
X61659622Y8928901D01*
X61390825Y9040240D01*
X61105472Y9097000D01*
X60814528Y9097000D01*
X60529175Y9040240D01*
X60260378Y8928901D01*
X60018467Y8767261D01*
X59812739Y8561533D01*
X59690000Y8377841D01*
X59567261Y8561533D01*
X59361533Y8767261D01*
X59119622Y8928901D01*
X58850825Y9040240D01*
X58565472Y9097000D01*
X58274528Y9097000D01*
X57989175Y9040240D01*
X57720378Y8928901D01*
X57478467Y8767261D01*
X57272739Y8561533D01*
X57150000Y8377841D01*
X57027261Y8561533D01*
X56821533Y8767261D01*
X56579622Y8928901D01*
X56310825Y9040240D01*
X56025472Y9097000D01*
X55734528Y9097000D01*
X55449175Y9040240D01*
X55180378Y8928901D01*
X54938467Y8767261D01*
X54732739Y8561533D01*
X54610000Y8377841D01*
X54487261Y8561533D01*
X54281533Y8767261D01*
X54039622Y8928901D01*
X53770825Y9040240D01*
X53485472Y9097000D01*
X53194528Y9097000D01*
X52909175Y9040240D01*
X52640378Y8928901D01*
X52398467Y8767261D01*
X52192739Y8561533D01*
X52070000Y8377841D01*
X51947261Y8561533D01*
X51741533Y8767261D01*
X51499622Y8928901D01*
X51230825Y9040240D01*
X50945472Y9097000D01*
X50654528Y9097000D01*
X50369175Y9040240D01*
X50100378Y8928901D01*
X49858467Y8767261D01*
X49652739Y8561533D01*
X49530000Y8377841D01*
X49407261Y8561533D01*
X49201533Y8767261D01*
X48959622Y8928901D01*
X48690825Y9040240D01*
X48405472Y9097000D01*
X48114528Y9097000D01*
X47829175Y9040240D01*
X47560378Y8928901D01*
X47318467Y8767261D01*
X47112739Y8561533D01*
X46990000Y8377841D01*
X46867261Y8561533D01*
X46661533Y8767261D01*
X46419622Y8928901D01*
X46150825Y9040240D01*
X45865472Y9097000D01*
X45574528Y9097000D01*
X45289175Y9040240D01*
X45020378Y8928901D01*
X44778467Y8767261D01*
X44572739Y8561533D01*
X44450000Y8377841D01*
X44327261Y8561533D01*
X44121533Y8767261D01*
X44086634Y8790580D01*
X44016291Y8876293D01*
X43971383Y8913148D01*
X37263134Y15621396D01*
X37226274Y15666310D01*
X37047053Y15813393D01*
X36842580Y15922686D01*
X36620715Y15989988D01*
X36447795Y16007019D01*
X36389983Y16012713D01*
X36332171Y16007019D01*
X22986686Y16007019D01*
X14072327Y24921377D01*
X14035467Y24966291D01*
X13856246Y25113374D01*
X13651773Y25222667D01*
X13429908Y25289969D01*
X13256988Y25307000D01*
X13199176Y25312694D01*
X13141364Y25307000D01*
X6611137Y25307000D01*
X6576799Y25358391D01*
X6308391Y25626799D01*
X5992777Y25837685D01*
X5642085Y25982947D01*
X5269793Y26057000D01*
X4890207Y26057000D01*
X4517915Y25982947D01*
X4167223Y25837685D01*
X3851609Y25626799D01*
X3583201Y25358391D01*
X3372315Y25042777D01*
X3227053Y24692085D01*
X3153000Y24319793D01*
X3153000Y23940207D01*
X3227053Y23567915D01*
X3372315Y23217223D01*
X3583201Y22901609D01*
X3851609Y22633201D01*
X4167223Y22422315D01*
X4517915Y22277053D01*
X4890207Y22203000D01*
X5269793Y22203000D01*
X5642085Y22277053D01*
X5992777Y22422315D01*
X6308391Y22633201D01*
X6576799Y22901609D01*
X6611137Y22953000D01*
X12711648Y22953000D01*
X17707647Y17957000D01*
X17629604Y17957000D01*
X17334590Y17898319D01*
X17056694Y17783210D01*
X16806594Y17616099D01*
X16593901Y17403406D01*
X16426790Y17153306D01*
X16311681Y16875410D01*
X16253000Y16580396D01*
X16253000Y16279604D01*
X16311681Y15984590D01*
X16426790Y15706694D01*
X16593901Y15456594D01*
X16806594Y15243901D01*
X17056694Y15076790D01*
X17334590Y14961681D01*
X17629604Y14903000D01*
X17930396Y14903000D01*
X18225410Y14961681D01*
X18277298Y14983174D01*
X20653470Y12607000D01*
X18762505Y12607000D01*
X18753406Y12616099D01*
X18503306Y12783210D01*
X18225410Y12898319D01*
X17930396Y12957000D01*
X17629604Y12957000D01*
X17334590Y12898319D01*
X17056694Y12783210D01*
X16806594Y12616099D01*
X16593901Y12403406D01*
X16426790Y12153306D01*
X16311681Y11875410D01*
X16253000Y11580396D01*
X16253000Y11279604D01*
X16311681Y10984590D01*
X16426790Y10706694D01*
X16593901Y10456594D01*
X16806594Y10243901D01*
X17056694Y10076790D01*
X17080329Y10067000D01*
X15727529Y10067000D01*
X13573151Y12221377D01*
X13536291Y12266291D01*
X13357070Y12413374D01*
X13152597Y12522667D01*
X12930732Y12589969D01*
X12757812Y12607000D01*
X12700000Y12612694D01*
X12642188Y12607000D01*
X4262505Y12607000D01*
X4253406Y12616099D01*
X4003306Y12783210D01*
X3725410Y12898319D01*
X3430396Y12957000D01*
X3129604Y12957000D01*
X2834590Y12898319D01*
X2556694Y12783210D01*
X2306594Y12616099D01*
X2093901Y12403406D01*
X1926790Y12153306D01*
X1811681Y11875410D01*
X1753000Y11580396D01*
X452000Y11580396D01*
X452000Y19680396D01*
X8053000Y19680396D01*
X8053000Y19379604D01*
X8111681Y19084590D01*
X8226790Y18806694D01*
X8393901Y18556594D01*
X8606594Y18343901D01*
X8856694Y18176790D01*
X9134590Y18061681D01*
X9429604Y18003000D01*
X9730396Y18003000D01*
X9930000Y18042703D01*
X10129604Y18003000D01*
X10430396Y18003000D01*
X10680000Y18052649D01*
X10929604Y18003000D01*
X11230396Y18003000D01*
X11525410Y18061681D01*
X11803306Y18176790D01*
X12053406Y18343901D01*
X12266099Y18556594D01*
X12433210Y18806694D01*
X12548319Y19084590D01*
X12607000Y19379604D01*
X12607000Y19680396D01*
X12548319Y19975410D01*
X12433210Y20253306D01*
X12266099Y20503406D01*
X12053406Y20716099D01*
X11803306Y20883210D01*
X11525410Y20998319D01*
X11230396Y21057000D01*
X10929604Y21057000D01*
X10680000Y21007351D01*
X10430396Y21057000D01*
X10129604Y21057000D01*
X9930000Y21017297D01*
X9730396Y21057000D01*
X9429604Y21057000D01*
X9134590Y20998319D01*
X8856694Y20883210D01*
X8606594Y20716099D01*
X8393901Y20503406D01*
X8226790Y20253306D01*
X8111681Y19975410D01*
X8053000Y19680396D01*
X452000Y19680396D01*
X452000Y29399793D01*
X3153000Y29399793D01*
X3153000Y29020207D01*
X3227053Y28647915D01*
X3372315Y28297223D01*
X3583201Y27981609D01*
X3851609Y27713201D01*
X4167223Y27502315D01*
X4517915Y27357053D01*
X4890207Y27283000D01*
X5269793Y27283000D01*
X5642085Y27357053D01*
X5992777Y27502315D01*
X6308391Y27713201D01*
X6576799Y27981609D01*
X6611137Y28033000D01*
X12212472Y28033000D01*
X20176859Y20068611D01*
X20213710Y20023708D01*
X20392931Y19876625D01*
X20597404Y19767332D01*
X20819269Y19700030D01*
X21050001Y19677305D01*
X21107813Y19682999D01*
X31382189Y19682999D01*
X31440001Y19677305D01*
X31497813Y19682999D01*
X31670733Y19700030D01*
X31892598Y19767332D01*
X32097071Y19876625D01*
X32276292Y20023708D01*
X32313152Y20068622D01*
X33811383Y21566853D01*
X33856291Y21603707D01*
X33926634Y21689420D01*
X33961533Y21712739D01*
X34167261Y21918467D01*
X34290000Y22102159D01*
X34412739Y21918467D01*
X34618467Y21712739D01*
X34860378Y21551099D01*
X35129175Y21439760D01*
X35414528Y21383000D01*
X35705472Y21383000D01*
X35990825Y21439760D01*
X36259622Y21551099D01*
X36501533Y21712739D01*
X36707261Y21918467D01*
X36830000Y22102159D01*
X36952739Y21918467D01*
X37158467Y21712739D01*
X37400378Y21551099D01*
X37669175Y21439760D01*
X37954528Y21383000D01*
X38245472Y21383000D01*
X38530825Y21439760D01*
X38799622Y21551099D01*
X39041533Y21712739D01*
X39247261Y21918467D01*
X39370000Y22102159D01*
X39492739Y21918467D01*
X39698467Y21712739D01*
X39940378Y21551099D01*
X40209175Y21439760D01*
X40494528Y21383000D01*
X40785472Y21383000D01*
X41070825Y21439760D01*
X41339622Y21551099D01*
X41581533Y21712739D01*
X41787261Y21918467D01*
X41910000Y22102159D01*
X42032739Y21918467D01*
X42238467Y21712739D01*
X42480378Y21551099D01*
X42749175Y21439760D01*
X43034528Y21383000D01*
X43325472Y21383000D01*
X43610825Y21439760D01*
X43879622Y21551099D01*
X44121533Y21712739D01*
X44327261Y21918467D01*
X44450000Y22102159D01*
X44572739Y21918467D01*
X44778467Y21712739D01*
X45020378Y21551099D01*
X45289175Y21439760D01*
X45574528Y21383000D01*
X45865472Y21383000D01*
X46150825Y21439760D01*
X46419622Y21551099D01*
X46661533Y21712739D01*
X46867261Y21918467D01*
X46990000Y22102159D01*
X47112739Y21918467D01*
X47318467Y21712739D01*
X47560378Y21551099D01*
X47829175Y21439760D01*
X48114528Y21383000D01*
X48405472Y21383000D01*
X48690825Y21439760D01*
X48959622Y21551099D01*
X49201533Y21712739D01*
X49407261Y21918467D01*
X49530000Y22102159D01*
X49652739Y21918467D01*
X49858467Y21712739D01*
X50100378Y21551099D01*
X50369175Y21439760D01*
X50654528Y21383000D01*
X50945472Y21383000D01*
X51230825Y21439760D01*
X51499622Y21551099D01*
X51741533Y21712739D01*
X51947261Y21918467D01*
X52070000Y22102159D01*
X52192739Y21918467D01*
X52398467Y21712739D01*
X52640378Y21551099D01*
X52909175Y21439760D01*
X53194528Y21383000D01*
X53485472Y21383000D01*
X53770825Y21439760D01*
X54039622Y21551099D01*
X54281533Y21712739D01*
X54487261Y21918467D01*
X54610000Y22102159D01*
X54732739Y21918467D01*
X54938467Y21712739D01*
X55180378Y21551099D01*
X55449175Y21439760D01*
X55734528Y21383000D01*
X56025472Y21383000D01*
X56310825Y21439760D01*
X56579622Y21551099D01*
X56821533Y21712739D01*
X57027261Y21918467D01*
X57150000Y22102159D01*
X57272739Y21918467D01*
X57478467Y21712739D01*
X57720378Y21551099D01*
X57989175Y21439760D01*
X58274528Y21383000D01*
X58565472Y21383000D01*
X58850825Y21439760D01*
X59119622Y21551099D01*
X59361533Y21712739D01*
X59567261Y21918467D01*
X59690000Y22102159D01*
X59812739Y21918467D01*
X60018467Y21712739D01*
X60260378Y21551099D01*
X60529175Y21439760D01*
X60814528Y21383000D01*
X61105472Y21383000D01*
X61390825Y21439760D01*
X61659622Y21551099D01*
X61901533Y21712739D01*
X62107261Y21918467D01*
X62268901Y22160378D01*
X62380240Y22429175D01*
X62437000Y22714528D01*
X62437000Y23005472D01*
X62380240Y23290825D01*
X62268901Y23559622D01*
X62107261Y23801533D01*
X61901533Y24007261D01*
X61659622Y24168901D01*
X61390825Y24280240D01*
X61105472Y24337000D01*
X60814528Y24337000D01*
X60529175Y24280240D01*
X60260378Y24168901D01*
X60018467Y24007261D01*
X59812739Y23801533D01*
X59690000Y23617841D01*
X59567261Y23801533D01*
X59361533Y24007261D01*
X59119622Y24168901D01*
X58850825Y24280240D01*
X58565472Y24337000D01*
X58274528Y24337000D01*
X57989175Y24280240D01*
X57720378Y24168901D01*
X57478467Y24007261D01*
X57272739Y23801533D01*
X57150000Y23617841D01*
X57027261Y23801533D01*
X56821533Y24007261D01*
X56579622Y24168901D01*
X56310825Y24280240D01*
X56025472Y24337000D01*
X55734528Y24337000D01*
X55449175Y24280240D01*
X55180378Y24168901D01*
X54938467Y24007261D01*
X54732739Y23801533D01*
X54610000Y23617841D01*
X54487261Y23801533D01*
X54281533Y24007261D01*
X54039622Y24168901D01*
X53770825Y24280240D01*
X53485472Y24337000D01*
X53194528Y24337000D01*
X52909175Y24280240D01*
X52640378Y24168901D01*
X52398467Y24007261D01*
X52192739Y23801533D01*
X52070000Y23617841D01*
X51947261Y23801533D01*
X51741533Y24007261D01*
X51499622Y24168901D01*
X51230825Y24280240D01*
X50945472Y24337000D01*
X50654528Y24337000D01*
X50369175Y24280240D01*
X50100378Y24168901D01*
X49858467Y24007261D01*
X49652739Y23801533D01*
X49530000Y23617841D01*
X49407261Y23801533D01*
X49201533Y24007261D01*
X48959622Y24168901D01*
X48690825Y24280240D01*
X48405472Y24337000D01*
X48114528Y24337000D01*
X47829175Y24280240D01*
X47560378Y24168901D01*
X47318467Y24007261D01*
X47112739Y23801533D01*
X46990000Y23617841D01*
X46897000Y23757026D01*
X46897000Y28227495D01*
X46906099Y28236594D01*
X46990000Y28362161D01*
X47073901Y28236594D01*
X47286594Y28023901D01*
X47536694Y27856790D01*
X47814590Y27741681D01*
X48109604Y27683000D01*
X48410396Y27683000D01*
X48705410Y27741681D01*
X48983306Y27856790D01*
X49233406Y28023901D01*
X49242505Y28033000D01*
X52357495Y28033000D01*
X52366594Y28023901D01*
X52616694Y27856790D01*
X52894590Y27741681D01*
X53189604Y27683000D01*
X53490396Y27683000D01*
X53785410Y27741681D01*
X54063306Y27856790D01*
X54313406Y28023901D01*
X54526099Y28236594D01*
X54693210Y28486694D01*
X54808319Y28764590D01*
X54867000Y29059604D01*
X54867000Y29360396D01*
X54808319Y29655410D01*
X54693210Y29933306D01*
X54526099Y30183406D01*
X54313406Y30396099D01*
X54063306Y30563210D01*
X53785410Y30678319D01*
X53490396Y30737000D01*
X53189604Y30737000D01*
X52894590Y30678319D01*
X52616694Y30563210D01*
X52366594Y30396099D01*
X52357495Y30387000D01*
X49242505Y30387000D01*
X49233406Y30396099D01*
X48983306Y30563210D01*
X48705410Y30678319D01*
X48410396Y30737000D01*
X48109604Y30737000D01*
X47814590Y30678319D01*
X47536694Y30563210D01*
X47286594Y30396099D01*
X47073901Y30183406D01*
X46990000Y30057839D01*
X46906099Y30183406D01*
X46693406Y30396099D01*
X46443306Y30563210D01*
X46165410Y30678319D01*
X45870396Y30737000D01*
X45569604Y30737000D01*
X45274590Y30678319D01*
X44996694Y30563210D01*
X44746594Y30396099D01*
X44533901Y30183406D01*
X44366790Y29933306D01*
X44251681Y29655410D01*
X44193000Y29360396D01*
X44193000Y29059604D01*
X44251681Y28764590D01*
X44366790Y28486694D01*
X44533901Y28236594D01*
X44543001Y28227494D01*
X44543000Y23757026D01*
X44450000Y23617841D01*
X44327261Y23801533D01*
X44121533Y24007261D01*
X43879622Y24168901D01*
X43610825Y24280240D01*
X43325472Y24337000D01*
X43034528Y24337000D01*
X42749175Y24280240D01*
X42480378Y24168901D01*
X42238467Y24007261D01*
X42032739Y23801533D01*
X41910000Y23617841D01*
X41787261Y23801533D01*
X41581533Y24007261D01*
X41339622Y24168901D01*
X41070825Y24280240D01*
X40785472Y24337000D01*
X40494528Y24337000D01*
X40209175Y24280240D01*
X39940378Y24168901D01*
X39698467Y24007261D01*
X39492739Y23801533D01*
X39370000Y23617841D01*
X39247261Y23801533D01*
X39041533Y24007261D01*
X38799622Y24168901D01*
X38530825Y24280240D01*
X38245472Y24337000D01*
X37954528Y24337000D01*
X37669175Y24280240D01*
X37400378Y24168901D01*
X37158467Y24007261D01*
X36952739Y23801533D01*
X36830000Y23617841D01*
X36707261Y23801533D01*
X36501533Y24007261D01*
X36259622Y24168901D01*
X35990825Y24280240D01*
X35705472Y24337000D01*
X35414528Y24337000D01*
X35129175Y24280240D01*
X34860378Y24168901D01*
X34618467Y24007261D01*
X34412739Y23801533D01*
X34290000Y23617841D01*
X34167261Y23801533D01*
X33961533Y24007261D01*
X33719622Y24168901D01*
X33450825Y24280240D01*
X33165472Y24337000D01*
X32874528Y24337000D01*
X32589175Y24280240D01*
X32320378Y24168901D01*
X32078467Y24007261D01*
X31872739Y23801533D01*
X31750000Y23617841D01*
X31627261Y23801533D01*
X31421533Y24007261D01*
X31179622Y24168901D01*
X30910825Y24280240D01*
X30625472Y24337000D01*
X30334528Y24337000D01*
X30049175Y24280240D01*
X29780378Y24168901D01*
X29538467Y24007261D01*
X29332739Y23801533D01*
X29171099Y23559622D01*
X29059760Y23290825D01*
X29003000Y23005472D01*
X29003000Y22714528D01*
X29059760Y22429175D01*
X29171099Y22160378D01*
X29253538Y22036999D01*
X26658932Y22036999D01*
X26675797Y22057549D01*
X26817590Y22322824D01*
X26904905Y22610665D01*
X26934388Y22910009D01*
X26904905Y23209353D01*
X26817590Y23497194D01*
X26675797Y23762469D01*
X26484976Y23994985D01*
X26252460Y24185806D01*
X25987185Y24327599D01*
X25699344Y24414914D01*
X25475011Y24437009D01*
X25347495Y24437009D01*
X19307000Y30477503D01*
X19307000Y31900396D01*
X19292293Y31974336D01*
X19284905Y32049344D01*
X19263027Y32121466D01*
X19248319Y32195410D01*
X19219468Y32265061D01*
X19197590Y32337185D01*
X19162059Y32403658D01*
X19133210Y32473306D01*
X19091326Y32535989D01*
X19055797Y32602460D01*
X19007985Y32660719D01*
X18966099Y32723406D01*
X18926505Y32763000D01*
X22784999Y32763000D01*
X22860000Y32755613D01*
X22935001Y32763000D01*
X22935011Y32763000D01*
X23159344Y32785095D01*
X23447185Y32872410D01*
X23712460Y33014203D01*
X23944976Y33205024D01*
X23992796Y33263293D01*
X25156711Y34427207D01*
X25214976Y34475024D01*
X25405797Y34707540D01*
X25547590Y34972815D01*
X25634905Y35260656D01*
X25657000Y35484989D01*
X25657000Y35484998D01*
X25664387Y35559999D01*
X25657000Y35635000D01*
X25657000Y38100000D01*
X37835613Y38100000D01*
X37843000Y38024999D01*
X37843000Y37949604D01*
X37857709Y37875654D01*
X37865096Y37800656D01*
X37886971Y37728543D01*
X37901681Y37654590D01*
X37930535Y37584930D01*
X37952411Y37512815D01*
X37987937Y37446350D01*
X38016790Y37376694D01*
X38058679Y37314003D01*
X38094204Y37247540D01*
X38142012Y37189285D01*
X38183901Y37126594D01*
X38237214Y37073281D01*
X38285024Y37015024D01*
X38343281Y36967214D01*
X38396594Y36913901D01*
X38459285Y36872012D01*
X38517540Y36824204D01*
X38584003Y36788679D01*
X38646694Y36746790D01*
X38716350Y36717937D01*
X38782815Y36682411D01*
X38854930Y36660535D01*
X38924590Y36631681D01*
X38998543Y36616971D01*
X39070656Y36595096D01*
X39145654Y36587709D01*
X39219604Y36573000D01*
X39294999Y36573000D01*
X39370000Y36565613D01*
X39445001Y36573000D01*
X39520396Y36573000D01*
X39594346Y36587709D01*
X39669344Y36595096D01*
X39741457Y36616971D01*
X39815410Y36631681D01*
X39885070Y36660535D01*
X39957185Y36682411D01*
X40023650Y36717937D01*
X40093306Y36746790D01*
X40155997Y36788679D01*
X40222460Y36824204D01*
X40280713Y36872011D01*
X40343406Y36913901D01*
X40556099Y37126594D01*
X40556103Y37126600D01*
X43468774Y40039270D01*
X43640284Y39830284D01*
X44085978Y39464513D01*
X44594466Y39192721D01*
X45146208Y39025352D01*
X45576212Y38983000D01*
X53483788Y38983000D01*
X53913792Y39025352D01*
X54465534Y39192721D01*
X54974022Y39464513D01*
X55419716Y39830284D01*
X55785487Y40275978D01*
X56057279Y40784466D01*
X56224648Y41336208D01*
X56281162Y41910000D01*
X56224648Y42483792D01*
X56057279Y43035534D01*
X55785487Y43544022D01*
X55419716Y43989716D01*
X54974022Y44355487D01*
X54465534Y44627279D01*
X53913792Y44794648D01*
X53483788Y44837000D01*
X45576212Y44837000D01*
X45146208Y44794648D01*
X44594466Y44627279D01*
X44085978Y44355487D01*
X43640284Y43989716D01*
X43274513Y43544022D01*
X43219194Y43440528D01*
X43180000Y43444388D01*
X42880655Y43414905D01*
X42760047Y43378319D01*
X42592815Y43327590D01*
X42327540Y43185797D01*
X42327538Y43185796D01*
X42327539Y43185796D01*
X42153288Y43042793D01*
X42153283Y43042788D01*
X42095024Y42994976D01*
X42047212Y42936717D01*
X38396600Y39286103D01*
X38396594Y39286099D01*
X38183901Y39073406D01*
X38142011Y39010713D01*
X38094204Y38952460D01*
X38058679Y38885997D01*
X38016790Y38823306D01*
X37987937Y38753650D01*
X37952411Y38687185D01*
X37930535Y38615070D01*
X37901681Y38545410D01*
X37886971Y38471457D01*
X37865096Y38399344D01*
X37857709Y38324346D01*
X37843000Y38250396D01*
X37843000Y38175001D01*
X37835613Y38100000D01*
X25657000Y38100000D01*
X25657000Y38250396D01*
X25642293Y38324336D01*
X25634905Y38399344D01*
X25613027Y38471466D01*
X25598319Y38545410D01*
X25569468Y38615061D01*
X25547590Y38687185D01*
X25512059Y38753658D01*
X25483210Y38823306D01*
X25441326Y38885989D01*
X25405797Y38952460D01*
X25357985Y39010719D01*
X25316099Y39073406D01*
X25262788Y39126717D01*
X25214976Y39184976D01*
X25156718Y39232787D01*
X25103406Y39286099D01*
X25040715Y39327987D01*
X24982459Y39375797D01*
X24915993Y39411324D01*
X24853306Y39453210D01*
X24783653Y39482061D01*
X24717184Y39517590D01*
X24645064Y39539467D01*
X24575410Y39568319D01*
X24501463Y39583028D01*
X24429343Y39604905D01*
X24354336Y39612293D01*
X24280396Y39627000D01*
X24205011Y39627000D01*
X24130000Y39634388D01*
X24054989Y39627000D01*
X23979604Y39627000D01*
X23905664Y39612293D01*
X23830656Y39604905D01*
X23758534Y39583027D01*
X23684590Y39568319D01*
X23614939Y39539468D01*
X23542815Y39517590D01*
X23476342Y39482059D01*
X23406694Y39453210D01*
X23344011Y39411326D01*
X23277540Y39375797D01*
X23219281Y39327985D01*
X23156594Y39286099D01*
X23103283Y39232788D01*
X23045024Y39184976D01*
X22997213Y39126718D01*
X22943901Y39073406D01*
X22902013Y39010715D01*
X22854203Y38952459D01*
X22818676Y38885993D01*
X22776790Y38823306D01*
X22747939Y38753653D01*
X22712410Y38687184D01*
X22690533Y38615064D01*
X22661681Y38545410D01*
X22646972Y38471463D01*
X22625095Y38399343D01*
X22617707Y38324337D01*
X22603000Y38250396D01*
X22603000Y38175010D01*
X22603001Y36192504D01*
X22227497Y35817000D01*
X17629604Y35817000D01*
X17555664Y35802293D01*
X17480656Y35794905D01*
X17408534Y35773027D01*
X17334590Y35758319D01*
X17264939Y35729468D01*
X17192815Y35707590D01*
X17126342Y35672059D01*
X17056694Y35643210D01*
X16994011Y35601326D01*
X16927540Y35565797D01*
X16869281Y35517985D01*
X16806594Y35476099D01*
X16753283Y35422788D01*
X16695024Y35374976D01*
X16647212Y35316717D01*
X16593901Y35263406D01*
X16552015Y35200719D01*
X16504203Y35142460D01*
X16468674Y35075989D01*
X16426790Y35013306D01*
X16397941Y34943658D01*
X16362410Y34877185D01*
X16340532Y34805061D01*
X16311681Y34735410D01*
X16296973Y34661466D01*
X16275095Y34589344D01*
X16267707Y34514336D01*
X16253000Y34440396D01*
X16253000Y34365011D01*
X16245612Y34290000D01*
X16253000Y34214989D01*
X16253000Y34139604D01*
X16267707Y34065664D01*
X16275095Y33990656D01*
X16296973Y33918534D01*
X16311681Y33844590D01*
X16340532Y33774939D01*
X16362410Y33702815D01*
X16397941Y33636342D01*
X16426790Y33566694D01*
X16468674Y33504011D01*
X16504203Y33437540D01*
X16552015Y33379281D01*
X16593901Y33316594D01*
X16647212Y33263283D01*
X16695024Y33205024D01*
X16753283Y33157212D01*
X16806594Y33103901D01*
X16869281Y33062015D01*
X16920476Y33020000D01*
X16869281Y32977985D01*
X16806594Y32936099D01*
X16753283Y32882788D01*
X16695024Y32834976D01*
X16647213Y32776718D01*
X16593901Y32723406D01*
X16552013Y32660715D01*
X16504203Y32602459D01*
X16468676Y32535993D01*
X16426790Y32473306D01*
X16397939Y32403653D01*
X16362410Y32337184D01*
X16340533Y32265064D01*
X16311681Y32195410D01*
X16296972Y32121463D01*
X16275095Y32049343D01*
X16267707Y31974337D01*
X16253000Y31900396D01*
X16253000Y31825010D01*
X16253001Y29920010D01*
X16245613Y29845000D01*
X16253001Y29769989D01*
X16275096Y29545656D01*
X16362411Y29257815D01*
X16504204Y28992540D01*
X16695025Y28760024D01*
X16753289Y28712208D01*
X23428497Y22036999D01*
X21537531Y22036999D01*
X13573151Y30001377D01*
X13536291Y30046291D01*
X13357070Y30193374D01*
X13152597Y30302667D01*
X12930732Y30369969D01*
X12757812Y30387000D01*
X12700000Y30392694D01*
X12642188Y30387000D01*
X6611137Y30387000D01*
X6576799Y30438391D01*
X6308391Y30706799D01*
X5992777Y30917685D01*
X5642085Y31062947D01*
X5269793Y31137000D01*
X4890207Y31137000D01*
X4517915Y31062947D01*
X4167223Y30917685D01*
X3851609Y30706799D01*
X3583201Y30438391D01*
X3372315Y30122777D01*
X3227053Y29772085D01*
X3153000Y29399793D01*
X452000Y29399793D01*
X452000Y39370000D01*
X2138838Y39370000D01*
X2195352Y38796208D01*
X2362721Y38244466D01*
X2634513Y37735978D01*
X3000284Y37290284D01*
X3445978Y36924513D01*
X3954466Y36652721D01*
X4506208Y36485352D01*
X4936212Y36443000D01*
X10303788Y36443000D01*
X10733792Y36485352D01*
X11285534Y36652721D01*
X11794022Y36924513D01*
X12239716Y37290284D01*
X12605487Y37735978D01*
X12877279Y38244466D01*
X13044648Y38796208D01*
X13101162Y39370000D01*
X13044648Y39943792D01*
X12877279Y40495534D01*
X12605487Y41004022D01*
X12239716Y41449716D01*
X11794022Y41815487D01*
X11285534Y42087279D01*
X10733792Y42254648D01*
X10303788Y42297000D01*
X4936212Y42297000D01*
X4506208Y42254648D01*
X3954466Y42087279D01*
X3445978Y41815487D01*
X3000284Y41449716D01*
X2634513Y41004022D01*
X2362721Y40495534D01*
X2195352Y39943792D01*
X2138838Y39370000D01*
X452000Y39370000D01*
X452000Y49078000D01*
X63048000Y49078000D01*
X63048000Y452000D01*
G37*
X63048000Y452000D02*
X452000Y452000D01*
X452000Y8480396D01*
X7953000Y8480396D01*
X7953000Y8179604D01*
X8011681Y7884590D01*
X8126790Y7606694D01*
X8293901Y7356594D01*
X8506594Y7143901D01*
X8756694Y6976790D01*
X9034590Y6861681D01*
X9329604Y6803000D01*
X9630396Y6803000D01*
X9880000Y6852649D01*
X10129604Y6803000D01*
X10430396Y6803000D01*
X10680000Y6852649D01*
X10929604Y6803000D01*
X11230396Y6803000D01*
X11525410Y6861681D01*
X11803306Y6976790D01*
X12053406Y7143901D01*
X12266099Y7356594D01*
X12433210Y7606694D01*
X12548319Y7884590D01*
X12607000Y8179604D01*
X12607000Y8480396D01*
X12548319Y8775410D01*
X12433210Y9053306D01*
X12266099Y9303406D01*
X12053406Y9516099D01*
X11803306Y9683210D01*
X11525410Y9798319D01*
X11230396Y9857000D01*
X10929604Y9857000D01*
X10680000Y9807351D01*
X10430396Y9857000D01*
X10129604Y9857000D01*
X9880000Y9807351D01*
X9630396Y9857000D01*
X9329604Y9857000D01*
X9034590Y9798319D01*
X8756694Y9683210D01*
X8506594Y9516099D01*
X8293901Y9303406D01*
X8126790Y9053306D01*
X8011681Y8775410D01*
X7953000Y8480396D01*
X452000Y8480396D01*
X452000Y11580396D01*
X1753000Y11580396D01*
X1753000Y11279604D01*
X1811681Y10984590D01*
X1926790Y10706694D01*
X2093901Y10456594D01*
X2306594Y10243901D01*
X2556694Y10076790D01*
X2834590Y9961681D01*
X3129604Y9903000D01*
X3430396Y9903000D01*
X3725410Y9961681D01*
X4003306Y10076790D01*
X4253406Y10243901D01*
X4262505Y10253000D01*
X12212472Y10253000D01*
X14366853Y8098618D01*
X14403709Y8053709D01*
X14582930Y7906626D01*
X14787403Y7797333D01*
X15009268Y7730031D01*
X15182188Y7713000D01*
X15182197Y7713000D01*
X15239999Y7707307D01*
X15297801Y7713000D01*
X18992188Y7713000D01*
X19050000Y7707306D01*
X19107812Y7713000D01*
X19280732Y7730031D01*
X19502597Y7797333D01*
X19707070Y7906626D01*
X19886291Y8053709D01*
X19923151Y8098623D01*
X20267529Y8443001D01*
X24173538Y8443001D01*
X24091099Y8319622D01*
X23979760Y8050825D01*
X23923000Y7765472D01*
X23923000Y7474528D01*
X23979760Y7189175D01*
X24091099Y6920378D01*
X24252739Y6678467D01*
X24458467Y6472739D01*
X24700378Y6311099D01*
X24969175Y6199760D01*
X25254528Y6143000D01*
X25545472Y6143000D01*
X25830825Y6199760D01*
X26099622Y6311099D01*
X26341533Y6472739D01*
X26547261Y6678467D01*
X26670000Y6862159D01*
X26792739Y6678467D01*
X26998467Y6472739D01*
X27240378Y6311099D01*
X27509175Y6199760D01*
X27794528Y6143000D01*
X28085472Y6143000D01*
X28370825Y6199760D01*
X28639622Y6311099D01*
X28881533Y6472739D01*
X29087261Y6678467D01*
X29210000Y6862159D01*
X29332739Y6678467D01*
X29538467Y6472739D01*
X29780378Y6311099D01*
X30049175Y6199760D01*
X30334528Y6143000D01*
X30625472Y6143000D01*
X30910825Y6199760D01*
X31179622Y6311099D01*
X31421533Y6472739D01*
X31627261Y6678467D01*
X31788901Y6920378D01*
X31900240Y7189175D01*
X31957000Y7474528D01*
X31957000Y7765472D01*
X31900240Y8050825D01*
X31788901Y8319622D01*
X31706462Y8443001D01*
X33492473Y8443001D01*
X34097434Y7838039D01*
X34083000Y7765472D01*
X34083000Y7474528D01*
X34139760Y7189175D01*
X34251099Y6920378D01*
X34412739Y6678467D01*
X34618467Y6472739D01*
X34860378Y6311099D01*
X35129175Y6199760D01*
X35414528Y6143000D01*
X35705472Y6143000D01*
X35990825Y6199760D01*
X36259622Y6311099D01*
X36501533Y6472739D01*
X36707261Y6678467D01*
X36830000Y6862159D01*
X36952739Y6678467D01*
X37158467Y6472739D01*
X37400378Y6311099D01*
X37669175Y6199760D01*
X37954528Y6143000D01*
X38245472Y6143000D01*
X38530825Y6199760D01*
X38799622Y6311099D01*
X39041533Y6472739D01*
X39247261Y6678467D01*
X39370000Y6862159D01*
X39492739Y6678467D01*
X39698467Y6472739D01*
X39940378Y6311099D01*
X40209175Y6199760D01*
X40494528Y6143000D01*
X40785472Y6143000D01*
X41070825Y6199760D01*
X41339622Y6311099D01*
X41581533Y6472739D01*
X41787261Y6678467D01*
X41910000Y6862159D01*
X42032739Y6678467D01*
X42238467Y6472739D01*
X42480378Y6311099D01*
X42749175Y6199760D01*
X43034528Y6143000D01*
X43325472Y6143000D01*
X43610825Y6199760D01*
X43879622Y6311099D01*
X44121533Y6472739D01*
X44327261Y6678467D01*
X44450000Y6862159D01*
X44572739Y6678467D01*
X44778467Y6472739D01*
X45020378Y6311099D01*
X45289175Y6199760D01*
X45574528Y6143000D01*
X45865472Y6143000D01*
X46150825Y6199760D01*
X46419622Y6311099D01*
X46661533Y6472739D01*
X46867261Y6678467D01*
X46990000Y6862159D01*
X47112739Y6678467D01*
X47318467Y6472739D01*
X47560378Y6311099D01*
X47829175Y6199760D01*
X48114528Y6143000D01*
X48405472Y6143000D01*
X48690825Y6199760D01*
X48959622Y6311099D01*
X49201533Y6472739D01*
X49407261Y6678467D01*
X49530000Y6862159D01*
X49652739Y6678467D01*
X49858467Y6472739D01*
X50100378Y6311099D01*
X50369175Y6199760D01*
X50654528Y6143000D01*
X50945472Y6143000D01*
X51230825Y6199760D01*
X51499622Y6311099D01*
X51741533Y6472739D01*
X51947261Y6678467D01*
X52070000Y6862159D01*
X52192739Y6678467D01*
X52398467Y6472739D01*
X52640378Y6311099D01*
X52909175Y6199760D01*
X53194528Y6143000D01*
X53485472Y6143000D01*
X53770825Y6199760D01*
X54039622Y6311099D01*
X54281533Y6472739D01*
X54487261Y6678467D01*
X54610000Y6862159D01*
X54732739Y6678467D01*
X54938467Y6472739D01*
X55180378Y6311099D01*
X55449175Y6199760D01*
X55734528Y6143000D01*
X56025472Y6143000D01*
X56310825Y6199760D01*
X56579622Y6311099D01*
X56821533Y6472739D01*
X57027261Y6678467D01*
X57150000Y6862159D01*
X57272739Y6678467D01*
X57478467Y6472739D01*
X57720378Y6311099D01*
X57989175Y6199760D01*
X58274528Y6143000D01*
X58565472Y6143000D01*
X58850825Y6199760D01*
X59119622Y6311099D01*
X59361533Y6472739D01*
X59567261Y6678467D01*
X59690000Y6862159D01*
X59812739Y6678467D01*
X60018467Y6472739D01*
X60260378Y6311099D01*
X60529175Y6199760D01*
X60814528Y6143000D01*
X61105472Y6143000D01*
X61390825Y6199760D01*
X61659622Y6311099D01*
X61901533Y6472739D01*
X62107261Y6678467D01*
X62268901Y6920378D01*
X62380240Y7189175D01*
X62437000Y7474528D01*
X62437000Y7765472D01*
X62380240Y8050825D01*
X62268901Y8319622D01*
X62107261Y8561533D01*
X61901533Y8767261D01*
X61659622Y8928901D01*
X61390825Y9040240D01*
X61105472Y9097000D01*
X60814528Y9097000D01*
X60529175Y9040240D01*
X60260378Y8928901D01*
X60018467Y8767261D01*
X59812739Y8561533D01*
X59690000Y8377841D01*
X59567261Y8561533D01*
X59361533Y8767261D01*
X59119622Y8928901D01*
X58850825Y9040240D01*
X58565472Y9097000D01*
X58274528Y9097000D01*
X57989175Y9040240D01*
X57720378Y8928901D01*
X57478467Y8767261D01*
X57272739Y8561533D01*
X57150000Y8377841D01*
X57027261Y8561533D01*
X56821533Y8767261D01*
X56579622Y8928901D01*
X56310825Y9040240D01*
X56025472Y9097000D01*
X55734528Y9097000D01*
X55449175Y9040240D01*
X55180378Y8928901D01*
X54938467Y8767261D01*
X54732739Y8561533D01*
X54610000Y8377841D01*
X54487261Y8561533D01*
X54281533Y8767261D01*
X54039622Y8928901D01*
X53770825Y9040240D01*
X53485472Y9097000D01*
X53194528Y9097000D01*
X52909175Y9040240D01*
X52640378Y8928901D01*
X52398467Y8767261D01*
X52192739Y8561533D01*
X52070000Y8377841D01*
X51947261Y8561533D01*
X51741533Y8767261D01*
X51499622Y8928901D01*
X51230825Y9040240D01*
X50945472Y9097000D01*
X50654528Y9097000D01*
X50369175Y9040240D01*
X50100378Y8928901D01*
X49858467Y8767261D01*
X49652739Y8561533D01*
X49530000Y8377841D01*
X49407261Y8561533D01*
X49201533Y8767261D01*
X48959622Y8928901D01*
X48690825Y9040240D01*
X48405472Y9097000D01*
X48114528Y9097000D01*
X47829175Y9040240D01*
X47560378Y8928901D01*
X47318467Y8767261D01*
X47112739Y8561533D01*
X46990000Y8377841D01*
X46867261Y8561533D01*
X46661533Y8767261D01*
X46419622Y8928901D01*
X46150825Y9040240D01*
X45865472Y9097000D01*
X45574528Y9097000D01*
X45289175Y9040240D01*
X45020378Y8928901D01*
X44778467Y8767261D01*
X44572739Y8561533D01*
X44450000Y8377841D01*
X44327261Y8561533D01*
X44121533Y8767261D01*
X44086634Y8790580D01*
X44016291Y8876293D01*
X43971383Y8913148D01*
X37263134Y15621396D01*
X37226274Y15666310D01*
X37047053Y15813393D01*
X36842580Y15922686D01*
X36620715Y15989988D01*
X36447795Y16007019D01*
X36389983Y16012713D01*
X36332171Y16007019D01*
X22986686Y16007019D01*
X14072327Y24921377D01*
X14035467Y24966291D01*
X13856246Y25113374D01*
X13651773Y25222667D01*
X13429908Y25289969D01*
X13256988Y25307000D01*
X13199176Y25312694D01*
X13141364Y25307000D01*
X6611137Y25307000D01*
X6576799Y25358391D01*
X6308391Y25626799D01*
X5992777Y25837685D01*
X5642085Y25982947D01*
X5269793Y26057000D01*
X4890207Y26057000D01*
X4517915Y25982947D01*
X4167223Y25837685D01*
X3851609Y25626799D01*
X3583201Y25358391D01*
X3372315Y25042777D01*
X3227053Y24692085D01*
X3153000Y24319793D01*
X3153000Y23940207D01*
X3227053Y23567915D01*
X3372315Y23217223D01*
X3583201Y22901609D01*
X3851609Y22633201D01*
X4167223Y22422315D01*
X4517915Y22277053D01*
X4890207Y22203000D01*
X5269793Y22203000D01*
X5642085Y22277053D01*
X5992777Y22422315D01*
X6308391Y22633201D01*
X6576799Y22901609D01*
X6611137Y22953000D01*
X12711648Y22953000D01*
X17707647Y17957000D01*
X17629604Y17957000D01*
X17334590Y17898319D01*
X17056694Y17783210D01*
X16806594Y17616099D01*
X16593901Y17403406D01*
X16426790Y17153306D01*
X16311681Y16875410D01*
X16253000Y16580396D01*
X16253000Y16279604D01*
X16311681Y15984590D01*
X16426790Y15706694D01*
X16593901Y15456594D01*
X16806594Y15243901D01*
X17056694Y15076790D01*
X17334590Y14961681D01*
X17629604Y14903000D01*
X17930396Y14903000D01*
X18225410Y14961681D01*
X18277298Y14983174D01*
X20653470Y12607000D01*
X18762505Y12607000D01*
X18753406Y12616099D01*
X18503306Y12783210D01*
X18225410Y12898319D01*
X17930396Y12957000D01*
X17629604Y12957000D01*
X17334590Y12898319D01*
X17056694Y12783210D01*
X16806594Y12616099D01*
X16593901Y12403406D01*
X16426790Y12153306D01*
X16311681Y11875410D01*
X16253000Y11580396D01*
X16253000Y11279604D01*
X16311681Y10984590D01*
X16426790Y10706694D01*
X16593901Y10456594D01*
X16806594Y10243901D01*
X17056694Y10076790D01*
X17080329Y10067000D01*
X15727529Y10067000D01*
X13573151Y12221377D01*
X13536291Y12266291D01*
X13357070Y12413374D01*
X13152597Y12522667D01*
X12930732Y12589969D01*
X12757812Y12607000D01*
X12700000Y12612694D01*
X12642188Y12607000D01*
X4262505Y12607000D01*
X4253406Y12616099D01*
X4003306Y12783210D01*
X3725410Y12898319D01*
X3430396Y12957000D01*
X3129604Y12957000D01*
X2834590Y12898319D01*
X2556694Y12783210D01*
X2306594Y12616099D01*
X2093901Y12403406D01*
X1926790Y12153306D01*
X1811681Y11875410D01*
X1753000Y11580396D01*
X452000Y11580396D01*
X452000Y19680396D01*
X8053000Y19680396D01*
X8053000Y19379604D01*
X8111681Y19084590D01*
X8226790Y18806694D01*
X8393901Y18556594D01*
X8606594Y18343901D01*
X8856694Y18176790D01*
X9134590Y18061681D01*
X9429604Y18003000D01*
X9730396Y18003000D01*
X9930000Y18042703D01*
X10129604Y18003000D01*
X10430396Y18003000D01*
X10680000Y18052649D01*
X10929604Y18003000D01*
X11230396Y18003000D01*
X11525410Y18061681D01*
X11803306Y18176790D01*
X12053406Y18343901D01*
X12266099Y18556594D01*
X12433210Y18806694D01*
X12548319Y19084590D01*
X12607000Y19379604D01*
X12607000Y19680396D01*
X12548319Y19975410D01*
X12433210Y20253306D01*
X12266099Y20503406D01*
X12053406Y20716099D01*
X11803306Y20883210D01*
X11525410Y20998319D01*
X11230396Y21057000D01*
X10929604Y21057000D01*
X10680000Y21007351D01*
X10430396Y21057000D01*
X10129604Y21057000D01*
X9930000Y21017297D01*
X9730396Y21057000D01*
X9429604Y21057000D01*
X9134590Y20998319D01*
X8856694Y20883210D01*
X8606594Y20716099D01*
X8393901Y20503406D01*
X8226790Y20253306D01*
X8111681Y19975410D01*
X8053000Y19680396D01*
X452000Y19680396D01*
X452000Y29399793D01*
X3153000Y29399793D01*
X3153000Y29020207D01*
X3227053Y28647915D01*
X3372315Y28297223D01*
X3583201Y27981609D01*
X3851609Y27713201D01*
X4167223Y27502315D01*
X4517915Y27357053D01*
X4890207Y27283000D01*
X5269793Y27283000D01*
X5642085Y27357053D01*
X5992777Y27502315D01*
X6308391Y27713201D01*
X6576799Y27981609D01*
X6611137Y28033000D01*
X12212472Y28033000D01*
X20176859Y20068611D01*
X20213710Y20023708D01*
X20392931Y19876625D01*
X20597404Y19767332D01*
X20819269Y19700030D01*
X21050001Y19677305D01*
X21107813Y19682999D01*
X31382189Y19682999D01*
X31440001Y19677305D01*
X31497813Y19682999D01*
X31670733Y19700030D01*
X31892598Y19767332D01*
X32097071Y19876625D01*
X32276292Y20023708D01*
X32313152Y20068622D01*
X33811383Y21566853D01*
X33856291Y21603707D01*
X33926634Y21689420D01*
X33961533Y21712739D01*
X34167261Y21918467D01*
X34290000Y22102159D01*
X34412739Y21918467D01*
X34618467Y21712739D01*
X34860378Y21551099D01*
X35129175Y21439760D01*
X35414528Y21383000D01*
X35705472Y21383000D01*
X35990825Y21439760D01*
X36259622Y21551099D01*
X36501533Y21712739D01*
X36707261Y21918467D01*
X36830000Y22102159D01*
X36952739Y21918467D01*
X37158467Y21712739D01*
X37400378Y21551099D01*
X37669175Y21439760D01*
X37954528Y21383000D01*
X38245472Y21383000D01*
X38530825Y21439760D01*
X38799622Y21551099D01*
X39041533Y21712739D01*
X39247261Y21918467D01*
X39370000Y22102159D01*
X39492739Y21918467D01*
X39698467Y21712739D01*
X39940378Y21551099D01*
X40209175Y21439760D01*
X40494528Y21383000D01*
X40785472Y21383000D01*
X41070825Y21439760D01*
X41339622Y21551099D01*
X41581533Y21712739D01*
X41787261Y21918467D01*
X41910000Y22102159D01*
X42032739Y21918467D01*
X42238467Y21712739D01*
X42480378Y21551099D01*
X42749175Y21439760D01*
X43034528Y21383000D01*
X43325472Y21383000D01*
X43610825Y21439760D01*
X43879622Y21551099D01*
X44121533Y21712739D01*
X44327261Y21918467D01*
X44450000Y22102159D01*
X44572739Y21918467D01*
X44778467Y21712739D01*
X45020378Y21551099D01*
X45289175Y21439760D01*
X45574528Y21383000D01*
X45865472Y21383000D01*
X46150825Y21439760D01*
X46419622Y21551099D01*
X46661533Y21712739D01*
X46867261Y21918467D01*
X46990000Y22102159D01*
X47112739Y21918467D01*
X47318467Y21712739D01*
X47560378Y21551099D01*
X47829175Y21439760D01*
X48114528Y21383000D01*
X48405472Y21383000D01*
X48690825Y21439760D01*
X48959622Y21551099D01*
X49201533Y21712739D01*
X49407261Y21918467D01*
X49530000Y22102159D01*
X49652739Y21918467D01*
X49858467Y21712739D01*
X50100378Y21551099D01*
X50369175Y21439760D01*
X50654528Y21383000D01*
X50945472Y21383000D01*
X51230825Y21439760D01*
X51499622Y21551099D01*
X51741533Y21712739D01*
X51947261Y21918467D01*
X52070000Y22102159D01*
X52192739Y21918467D01*
X52398467Y21712739D01*
X52640378Y21551099D01*
X52909175Y21439760D01*
X53194528Y21383000D01*
X53485472Y21383000D01*
X53770825Y21439760D01*
X54039622Y21551099D01*
X54281533Y21712739D01*
X54487261Y21918467D01*
X54610000Y22102159D01*
X54732739Y21918467D01*
X54938467Y21712739D01*
X55180378Y21551099D01*
X55449175Y21439760D01*
X55734528Y21383000D01*
X56025472Y21383000D01*
X56310825Y21439760D01*
X56579622Y21551099D01*
X56821533Y21712739D01*
X57027261Y21918467D01*
X57150000Y22102159D01*
X57272739Y21918467D01*
X57478467Y21712739D01*
X57720378Y21551099D01*
X57989175Y21439760D01*
X58274528Y21383000D01*
X58565472Y21383000D01*
X58850825Y21439760D01*
X59119622Y21551099D01*
X59361533Y21712739D01*
X59567261Y21918467D01*
X59690000Y22102159D01*
X59812739Y21918467D01*
X60018467Y21712739D01*
X60260378Y21551099D01*
X60529175Y21439760D01*
X60814528Y21383000D01*
X61105472Y21383000D01*
X61390825Y21439760D01*
X61659622Y21551099D01*
X61901533Y21712739D01*
X62107261Y21918467D01*
X62268901Y22160378D01*
X62380240Y22429175D01*
X62437000Y22714528D01*
X62437000Y23005472D01*
X62380240Y23290825D01*
X62268901Y23559622D01*
X62107261Y23801533D01*
X61901533Y24007261D01*
X61659622Y24168901D01*
X61390825Y24280240D01*
X61105472Y24337000D01*
X60814528Y24337000D01*
X60529175Y24280240D01*
X60260378Y24168901D01*
X60018467Y24007261D01*
X59812739Y23801533D01*
X59690000Y23617841D01*
X59567261Y23801533D01*
X59361533Y24007261D01*
X59119622Y24168901D01*
X58850825Y24280240D01*
X58565472Y24337000D01*
X58274528Y24337000D01*
X57989175Y24280240D01*
X57720378Y24168901D01*
X57478467Y24007261D01*
X57272739Y23801533D01*
X57150000Y23617841D01*
X57027261Y23801533D01*
X56821533Y24007261D01*
X56579622Y24168901D01*
X56310825Y24280240D01*
X56025472Y24337000D01*
X55734528Y24337000D01*
X55449175Y24280240D01*
X55180378Y24168901D01*
X54938467Y24007261D01*
X54732739Y23801533D01*
X54610000Y23617841D01*
X54487261Y23801533D01*
X54281533Y24007261D01*
X54039622Y24168901D01*
X53770825Y24280240D01*
X53485472Y24337000D01*
X53194528Y24337000D01*
X52909175Y24280240D01*
X52640378Y24168901D01*
X52398467Y24007261D01*
X52192739Y23801533D01*
X52070000Y23617841D01*
X51947261Y23801533D01*
X51741533Y24007261D01*
X51499622Y24168901D01*
X51230825Y24280240D01*
X50945472Y24337000D01*
X50654528Y24337000D01*
X50369175Y24280240D01*
X50100378Y24168901D01*
X49858467Y24007261D01*
X49652739Y23801533D01*
X49530000Y23617841D01*
X49407261Y23801533D01*
X49201533Y24007261D01*
X48959622Y24168901D01*
X48690825Y24280240D01*
X48405472Y24337000D01*
X48114528Y24337000D01*
X47829175Y24280240D01*
X47560378Y24168901D01*
X47318467Y24007261D01*
X47112739Y23801533D01*
X46990000Y23617841D01*
X46897000Y23757026D01*
X46897000Y28227495D01*
X46906099Y28236594D01*
X46990000Y28362161D01*
X47073901Y28236594D01*
X47286594Y28023901D01*
X47536694Y27856790D01*
X47814590Y27741681D01*
X48109604Y27683000D01*
X48410396Y27683000D01*
X48705410Y27741681D01*
X48983306Y27856790D01*
X49233406Y28023901D01*
X49242505Y28033000D01*
X52357495Y28033000D01*
X52366594Y28023901D01*
X52616694Y27856790D01*
X52894590Y27741681D01*
X53189604Y27683000D01*
X53490396Y27683000D01*
X53785410Y27741681D01*
X54063306Y27856790D01*
X54313406Y28023901D01*
X54526099Y28236594D01*
X54693210Y28486694D01*
X54808319Y28764590D01*
X54867000Y29059604D01*
X54867000Y29360396D01*
X54808319Y29655410D01*
X54693210Y29933306D01*
X54526099Y30183406D01*
X54313406Y30396099D01*
X54063306Y30563210D01*
X53785410Y30678319D01*
X53490396Y30737000D01*
X53189604Y30737000D01*
X52894590Y30678319D01*
X52616694Y30563210D01*
X52366594Y30396099D01*
X52357495Y30387000D01*
X49242505Y30387000D01*
X49233406Y30396099D01*
X48983306Y30563210D01*
X48705410Y30678319D01*
X48410396Y30737000D01*
X48109604Y30737000D01*
X47814590Y30678319D01*
X47536694Y30563210D01*
X47286594Y30396099D01*
X47073901Y30183406D01*
X46990000Y30057839D01*
X46906099Y30183406D01*
X46693406Y30396099D01*
X46443306Y30563210D01*
X46165410Y30678319D01*
X45870396Y30737000D01*
X45569604Y30737000D01*
X45274590Y30678319D01*
X44996694Y30563210D01*
X44746594Y30396099D01*
X44533901Y30183406D01*
X44366790Y29933306D01*
X44251681Y29655410D01*
X44193000Y29360396D01*
X44193000Y29059604D01*
X44251681Y28764590D01*
X44366790Y28486694D01*
X44533901Y28236594D01*
X44543001Y28227494D01*
X44543000Y23757026D01*
X44450000Y23617841D01*
X44327261Y23801533D01*
X44121533Y24007261D01*
X43879622Y24168901D01*
X43610825Y24280240D01*
X43325472Y24337000D01*
X43034528Y24337000D01*
X42749175Y24280240D01*
X42480378Y24168901D01*
X42238467Y24007261D01*
X42032739Y23801533D01*
X41910000Y23617841D01*
X41787261Y23801533D01*
X41581533Y24007261D01*
X41339622Y24168901D01*
X41070825Y24280240D01*
X40785472Y24337000D01*
X40494528Y24337000D01*
X40209175Y24280240D01*
X39940378Y24168901D01*
X39698467Y24007261D01*
X39492739Y23801533D01*
X39370000Y23617841D01*
X39247261Y23801533D01*
X39041533Y24007261D01*
X38799622Y24168901D01*
X38530825Y24280240D01*
X38245472Y24337000D01*
X37954528Y24337000D01*
X37669175Y24280240D01*
X37400378Y24168901D01*
X37158467Y24007261D01*
X36952739Y23801533D01*
X36830000Y23617841D01*
X36707261Y23801533D01*
X36501533Y24007261D01*
X36259622Y24168901D01*
X35990825Y24280240D01*
X35705472Y24337000D01*
X35414528Y24337000D01*
X35129175Y24280240D01*
X34860378Y24168901D01*
X34618467Y24007261D01*
X34412739Y23801533D01*
X34290000Y23617841D01*
X34167261Y23801533D01*
X33961533Y24007261D01*
X33719622Y24168901D01*
X33450825Y24280240D01*
X33165472Y24337000D01*
X32874528Y24337000D01*
X32589175Y24280240D01*
X32320378Y24168901D01*
X32078467Y24007261D01*
X31872739Y23801533D01*
X31750000Y23617841D01*
X31627261Y23801533D01*
X31421533Y24007261D01*
X31179622Y24168901D01*
X30910825Y24280240D01*
X30625472Y24337000D01*
X30334528Y24337000D01*
X30049175Y24280240D01*
X29780378Y24168901D01*
X29538467Y24007261D01*
X29332739Y23801533D01*
X29171099Y23559622D01*
X29059760Y23290825D01*
X29003000Y23005472D01*
X29003000Y22714528D01*
X29059760Y22429175D01*
X29171099Y22160378D01*
X29253538Y22036999D01*
X26658932Y22036999D01*
X26675797Y22057549D01*
X26817590Y22322824D01*
X26904905Y22610665D01*
X26934388Y22910009D01*
X26904905Y23209353D01*
X26817590Y23497194D01*
X26675797Y23762469D01*
X26484976Y23994985D01*
X26252460Y24185806D01*
X25987185Y24327599D01*
X25699344Y24414914D01*
X25475011Y24437009D01*
X25347495Y24437009D01*
X19307000Y30477503D01*
X19307000Y31900396D01*
X19292293Y31974336D01*
X19284905Y32049344D01*
X19263027Y32121466D01*
X19248319Y32195410D01*
X19219468Y32265061D01*
X19197590Y32337185D01*
X19162059Y32403658D01*
X19133210Y32473306D01*
X19091326Y32535989D01*
X19055797Y32602460D01*
X19007985Y32660719D01*
X18966099Y32723406D01*
X18926505Y32763000D01*
X22784999Y32763000D01*
X22860000Y32755613D01*
X22935001Y32763000D01*
X22935011Y32763000D01*
X23159344Y32785095D01*
X23447185Y32872410D01*
X23712460Y33014203D01*
X23944976Y33205024D01*
X23992796Y33263293D01*
X25156711Y34427207D01*
X25214976Y34475024D01*
X25405797Y34707540D01*
X25547590Y34972815D01*
X25634905Y35260656D01*
X25657000Y35484989D01*
X25657000Y35484998D01*
X25664387Y35559999D01*
X25657000Y35635000D01*
X25657000Y38100000D01*
X37835613Y38100000D01*
X37843000Y38024999D01*
X37843000Y37949604D01*
X37857709Y37875654D01*
X37865096Y37800656D01*
X37886971Y37728543D01*
X37901681Y37654590D01*
X37930535Y37584930D01*
X37952411Y37512815D01*
X37987937Y37446350D01*
X38016790Y37376694D01*
X38058679Y37314003D01*
X38094204Y37247540D01*
X38142012Y37189285D01*
X38183901Y37126594D01*
X38237214Y37073281D01*
X38285024Y37015024D01*
X38343281Y36967214D01*
X38396594Y36913901D01*
X38459285Y36872012D01*
X38517540Y36824204D01*
X38584003Y36788679D01*
X38646694Y36746790D01*
X38716350Y36717937D01*
X38782815Y36682411D01*
X38854930Y36660535D01*
X38924590Y36631681D01*
X38998543Y36616971D01*
X39070656Y36595096D01*
X39145654Y36587709D01*
X39219604Y36573000D01*
X39294999Y36573000D01*
X39370000Y36565613D01*
X39445001Y36573000D01*
X39520396Y36573000D01*
X39594346Y36587709D01*
X39669344Y36595096D01*
X39741457Y36616971D01*
X39815410Y36631681D01*
X39885070Y36660535D01*
X39957185Y36682411D01*
X40023650Y36717937D01*
X40093306Y36746790D01*
X40155997Y36788679D01*
X40222460Y36824204D01*
X40280713Y36872011D01*
X40343406Y36913901D01*
X40556099Y37126594D01*
X40556103Y37126600D01*
X43468774Y40039270D01*
X43640284Y39830284D01*
X44085978Y39464513D01*
X44594466Y39192721D01*
X45146208Y39025352D01*
X45576212Y38983000D01*
X53483788Y38983000D01*
X53913792Y39025352D01*
X54465534Y39192721D01*
X54974022Y39464513D01*
X55419716Y39830284D01*
X55785487Y40275978D01*
X56057279Y40784466D01*
X56224648Y41336208D01*
X56281162Y41910000D01*
X56224648Y42483792D01*
X56057279Y43035534D01*
X55785487Y43544022D01*
X55419716Y43989716D01*
X54974022Y44355487D01*
X54465534Y44627279D01*
X53913792Y44794648D01*
X53483788Y44837000D01*
X45576212Y44837000D01*
X45146208Y44794648D01*
X44594466Y44627279D01*
X44085978Y44355487D01*
X43640284Y43989716D01*
X43274513Y43544022D01*
X43219194Y43440528D01*
X43180000Y43444388D01*
X42880655Y43414905D01*
X42760047Y43378319D01*
X42592815Y43327590D01*
X42327540Y43185797D01*
X42327538Y43185796D01*
X42327539Y43185796D01*
X42153288Y43042793D01*
X42153283Y43042788D01*
X42095024Y42994976D01*
X42047212Y42936717D01*
X38396600Y39286103D01*
X38396594Y39286099D01*
X38183901Y39073406D01*
X38142011Y39010713D01*
X38094204Y38952460D01*
X38058679Y38885997D01*
X38016790Y38823306D01*
X37987937Y38753650D01*
X37952411Y38687185D01*
X37930535Y38615070D01*
X37901681Y38545410D01*
X37886971Y38471457D01*
X37865096Y38399344D01*
X37857709Y38324346D01*
X37843000Y38250396D01*
X37843000Y38175001D01*
X37835613Y38100000D01*
X25657000Y38100000D01*
X25657000Y38250396D01*
X25642293Y38324336D01*
X25634905Y38399344D01*
X25613027Y38471466D01*
X25598319Y38545410D01*
X25569468Y38615061D01*
X25547590Y38687185D01*
X25512059Y38753658D01*
X25483210Y38823306D01*
X25441326Y38885989D01*
X25405797Y38952460D01*
X25357985Y39010719D01*
X25316099Y39073406D01*
X25262788Y39126717D01*
X25214976Y39184976D01*
X25156718Y39232787D01*
X25103406Y39286099D01*
X25040715Y39327987D01*
X24982459Y39375797D01*
X24915993Y39411324D01*
X24853306Y39453210D01*
X24783653Y39482061D01*
X24717184Y39517590D01*
X24645064Y39539467D01*
X24575410Y39568319D01*
X24501463Y39583028D01*
X24429343Y39604905D01*
X24354336Y39612293D01*
X24280396Y39627000D01*
X24205011Y39627000D01*
X24130000Y39634388D01*
X24054989Y39627000D01*
X23979604Y39627000D01*
X23905664Y39612293D01*
X23830656Y39604905D01*
X23758534Y39583027D01*
X23684590Y39568319D01*
X23614939Y39539468D01*
X23542815Y39517590D01*
X23476342Y39482059D01*
X23406694Y39453210D01*
X23344011Y39411326D01*
X23277540Y39375797D01*
X23219281Y39327985D01*
X23156594Y39286099D01*
X23103283Y39232788D01*
X23045024Y39184976D01*
X22997213Y39126718D01*
X22943901Y39073406D01*
X22902013Y39010715D01*
X22854203Y38952459D01*
X22818676Y38885993D01*
X22776790Y38823306D01*
X22747939Y38753653D01*
X22712410Y38687184D01*
X22690533Y38615064D01*
X22661681Y38545410D01*
X22646972Y38471463D01*
X22625095Y38399343D01*
X22617707Y38324337D01*
X22603000Y38250396D01*
X22603000Y38175010D01*
X22603001Y36192504D01*
X22227497Y35817000D01*
X17629604Y35817000D01*
X17555664Y35802293D01*
X17480656Y35794905D01*
X17408534Y35773027D01*
X17334590Y35758319D01*
X17264939Y35729468D01*
X17192815Y35707590D01*
X17126342Y35672059D01*
X17056694Y35643210D01*
X16994011Y35601326D01*
X16927540Y35565797D01*
X16869281Y35517985D01*
X16806594Y35476099D01*
X16753283Y35422788D01*
X16695024Y35374976D01*
X16647212Y35316717D01*
X16593901Y35263406D01*
X16552015Y35200719D01*
X16504203Y35142460D01*
X16468674Y35075989D01*
X16426790Y35013306D01*
X16397941Y34943658D01*
X16362410Y34877185D01*
X16340532Y34805061D01*
X16311681Y34735410D01*
X16296973Y34661466D01*
X16275095Y34589344D01*
X16267707Y34514336D01*
X16253000Y34440396D01*
X16253000Y34365011D01*
X16245612Y34290000D01*
X16253000Y34214989D01*
X16253000Y34139604D01*
X16267707Y34065664D01*
X16275095Y33990656D01*
X16296973Y33918534D01*
X16311681Y33844590D01*
X16340532Y33774939D01*
X16362410Y33702815D01*
X16397941Y33636342D01*
X16426790Y33566694D01*
X16468674Y33504011D01*
X16504203Y33437540D01*
X16552015Y33379281D01*
X16593901Y33316594D01*
X16647212Y33263283D01*
X16695024Y33205024D01*
X16753283Y33157212D01*
X16806594Y33103901D01*
X16869281Y33062015D01*
X16920476Y33020000D01*
X16869281Y32977985D01*
X16806594Y32936099D01*
X16753283Y32882788D01*
X16695024Y32834976D01*
X16647213Y32776718D01*
X16593901Y32723406D01*
X16552013Y32660715D01*
X16504203Y32602459D01*
X16468676Y32535993D01*
X16426790Y32473306D01*
X16397939Y32403653D01*
X16362410Y32337184D01*
X16340533Y32265064D01*
X16311681Y32195410D01*
X16296972Y32121463D01*
X16275095Y32049343D01*
X16267707Y31974337D01*
X16253000Y31900396D01*
X16253000Y31825010D01*
X16253001Y29920010D01*
X16245613Y29845000D01*
X16253001Y29769989D01*
X16275096Y29545656D01*
X16362411Y29257815D01*
X16504204Y28992540D01*
X16695025Y28760024D01*
X16753289Y28712208D01*
X23428497Y22036999D01*
X21537531Y22036999D01*
X13573151Y30001377D01*
X13536291Y30046291D01*
X13357070Y30193374D01*
X13152597Y30302667D01*
X12930732Y30369969D01*
X12757812Y30387000D01*
X12700000Y30392694D01*
X12642188Y30387000D01*
X6611137Y30387000D01*
X6576799Y30438391D01*
X6308391Y30706799D01*
X5992777Y30917685D01*
X5642085Y31062947D01*
X5269793Y31137000D01*
X4890207Y31137000D01*
X4517915Y31062947D01*
X4167223Y30917685D01*
X3851609Y30706799D01*
X3583201Y30438391D01*
X3372315Y30122777D01*
X3227053Y29772085D01*
X3153000Y29399793D01*
X452000Y29399793D01*
X452000Y39370000D01*
X2138838Y39370000D01*
X2195352Y38796208D01*
X2362721Y38244466D01*
X2634513Y37735978D01*
X3000284Y37290284D01*
X3445978Y36924513D01*
X3954466Y36652721D01*
X4506208Y36485352D01*
X4936212Y36443000D01*
X10303788Y36443000D01*
X10733792Y36485352D01*
X11285534Y36652721D01*
X11794022Y36924513D01*
X12239716Y37290284D01*
X12605487Y37735978D01*
X12877279Y38244466D01*
X13044648Y38796208D01*
X13101162Y39370000D01*
X13044648Y39943792D01*
X12877279Y40495534D01*
X12605487Y41004022D01*
X12239716Y41449716D01*
X11794022Y41815487D01*
X11285534Y42087279D01*
X10733792Y42254648D01*
X10303788Y42297000D01*
X4936212Y42297000D01*
X4506208Y42254648D01*
X3954466Y42087279D01*
X3445978Y41815487D01*
X3000284Y41449716D01*
X2634513Y41004022D01*
X2362721Y40495534D01*
X2195352Y39943792D01*
X2138838Y39370000D01*
X452000Y39370000D01*
X452000Y49078000D01*
X63048000Y49078000D01*
X63048000Y452000D01*
%TD*%
M02*
