M48
; DRILL file {KiCad (5.1.6)-1} date 08/01/22 11:12:40
; FORMAT={-:-/ absolute / metric / decimal}
; #@! TF.CreationDate,2022-08-01T11:12:40-05:00
; #@! TF.GenerationSoftware,Kicad,Pcbnew,(5.1.6)-1
FMAT,2
METRIC
T1C0.800
T2C0.900
T3C1.200
T4C1.500
T5C3.200
%
G90
G05
T1
X60.96Y7.62
X58.42Y7.62
X55.88Y7.62
X53.34Y7.62
X50.8Y7.62
X48.26Y7.62
X45.72Y7.62
X43.18Y7.62
X40.64Y7.62
X38.1Y7.62
X35.56Y7.62
X33.02Y7.62
X30.48Y7.62
X27.94Y7.62
X25.4Y7.62
X25.4Y22.86
X27.94Y22.86
X30.48Y22.86
X33.02Y22.86
X35.56Y22.86
X38.1Y22.86
X40.64Y22.86
X43.18Y22.86
X45.72Y22.86
X48.26Y22.86
X50.8Y22.86
X53.34Y22.86
X55.88Y22.86
X58.42Y22.86
X60.96Y22.86
X60.96Y29.21
X53.34Y29.21
X48.26Y29.21
X45.72Y29.21
X39.37Y29.21
X24.13Y29.21
X17.78Y31.75
X17.78Y34.29
X53.34Y36.83
X39.37Y38.1
X24.13Y38.1
X53.34Y41.91
T2
X11.08Y8.33
X10.28Y8.33
X9.48Y8.33
X3.28Y11.43
X17.78Y11.43
X17.78Y13.93
X3.28Y16.43
X17.78Y16.43
X11.08Y19.53
X10.28Y19.53
X9.58Y19.53
T3
X5.08Y24.13
X5.08Y29.21
X5.08Y34.29
X5.08Y39.37
T4
X10.16Y39.37
X45.72Y41.91
T5
X2.54Y2.54
X60.96Y2.54
X60.96Y46.99
X2.54Y46.99
T0
M30
