%TF.GenerationSoftware,KiCad,Pcbnew,(5.1.6)-1*%
%TF.CreationDate,2022-03-29T12:26:59-05:00*%
%TF.ProjectId,edge_connector_small,65646765-5f63-46f6-9e6e-6563746f725f,rev?*%
%TF.SameCoordinates,Original*%
%TF.FileFunction,Copper,L2,Bot*%
%TF.FilePolarity,Positive*%
%FSLAX46Y46*%
G04 Gerber Fmt 4.6, Leading zero omitted, Abs format (unit mm)*
G04 Created by KiCad (PCBNEW (5.1.6)-1) date 2022-03-29 12:26:59*
%MOMM*%
%LPD*%
G01*
G04 APERTURE LIST*
%TA.AperFunction,ComponentPad*%
%ADD10C,3.000000*%
%TD*%
%TA.AperFunction,ComponentPad*%
%ADD11C,2.200000*%
%TD*%
%TA.AperFunction,ComponentPad*%
%ADD12C,5.500000*%
%TD*%
%TA.AperFunction,ViaPad*%
%ADD13C,5.000000*%
%TD*%
%TA.AperFunction,Conductor*%
%ADD14C,2.200000*%
%TD*%
%TA.AperFunction,Conductor*%
%ADD15C,4.500000*%
%TD*%
%TA.AperFunction,Conductor*%
%ADD16C,0.254000*%
%TD*%
G04 APERTURE END LIST*
D10*
%TO.P,J5,1*%
%TO.N,Net-(J11-Pad4)*%
X15240000Y53340000D03*
%TO.P,J5,2*%
%TO.N,Net-(J11-Pad3)*%
X15240000Y48260000D03*
%TO.P,J5,3*%
%TO.N,Net-(J11-Pad2)*%
X15240000Y43180000D03*
%TO.P,J5,4*%
%TO.N,Net-(J11-Pad1)*%
X15240000Y38100000D03*
%TD*%
%TO.P,J6,1*%
%TO.N,Net-(J12-Pad4)*%
X15240000Y25400000D03*
%TO.P,J6,2*%
%TO.N,Net-(J12-Pad3)*%
X15240000Y20320000D03*
%TO.P,J6,3*%
%TO.N,Net-(J12-Pad2)*%
X15240000Y15240000D03*
%TO.P,J6,4*%
%TO.N,Net-(J12-Pad1)*%
X15240000Y10160000D03*
%TO.P,J6,5*%
%TO.N,Net-(J13-Pad1)*%
X15240000Y5080000D03*
%TD*%
D11*
%TO.P,J11,1*%
%TO.N,Net-(J11-Pad1)*%
X5080000Y38100000D03*
%TO.P,J11,2*%
%TO.N,Net-(J11-Pad2)*%
X5080000Y40640000D03*
%TO.P,J11,3*%
%TO.N,Net-(J11-Pad3)*%
X5080000Y43180000D03*
%TO.P,J11,4*%
%TO.N,Net-(J11-Pad4)*%
X5080000Y45720000D03*
%TD*%
%TO.P,J12,4*%
%TO.N,Net-(J12-Pad4)*%
X5080000Y25400000D03*
%TO.P,J12,3*%
%TO.N,Net-(J12-Pad3)*%
X5080000Y22860000D03*
%TO.P,J12,2*%
%TO.N,Net-(J12-Pad2)*%
X5080000Y20320000D03*
%TO.P,J12,1*%
%TO.N,Net-(J12-Pad1)*%
X5080000Y17780000D03*
%TD*%
D12*
%TO.P,J13,1*%
%TO.N,Net-(J13-Pad1)*%
X7620000Y5080000D03*
%TD*%
D13*
%TO.N,*%
X7620000Y53340000D03*
X7620000Y31750000D03*
%TD*%
D14*
%TO.N,Net-(J11-Pad4)*%
X5080000Y45720000D02*
X7620000Y45720000D01*
X7620000Y45720000D02*
X15240000Y53340000D01*
%TO.N,Net-(J11-Pad3)*%
X15240000Y48260000D02*
X13554126Y48260000D01*
X8474126Y43180000D02*
X5080000Y43180000D01*
X13554126Y48260000D02*
X8474126Y43180000D01*
%TO.N,Net-(J11-Pad2)*%
X15240000Y43180000D02*
X11868252Y43180000D01*
X9328252Y40640000D02*
X5080000Y40640000D01*
X11868252Y43180000D02*
X9328252Y40640000D01*
%TO.N,Net-(J11-Pad1)*%
X5080000Y38100000D02*
X15240000Y38100000D01*
%TO.N,Net-(J12-Pad4)*%
X15240000Y25400000D02*
X5080000Y25400000D01*
%TO.N,Net-(J12-Pad3)*%
X15240000Y20320000D02*
X11868252Y20320000D01*
X9328252Y22860000D02*
X5080000Y22860000D01*
X11868252Y20320000D02*
X9328252Y22860000D01*
%TO.N,Net-(J12-Pad2)*%
X15240000Y15240000D02*
X13554126Y15240000D01*
X8474126Y20320000D02*
X5080000Y20320000D01*
X13554126Y15240000D02*
X8474126Y20320000D01*
%TO.N,Net-(J12-Pad1)*%
X15240000Y10160000D02*
X7620000Y17780000D01*
X7620000Y17780000D02*
X5080000Y17780000D01*
D15*
%TO.N,Net-(J13-Pad1)*%
X15240000Y5080000D02*
X7620000Y5080000D01*
%TD*%
D16*
%TO.N,Net-(J13-Pad1)*%
G36*
X19868000Y452000D02*
G01*
X452000Y452000D01*
X452000Y25400000D01*
X3545612Y25400000D01*
X3553000Y25324989D01*
X3553000Y25249604D01*
X3567707Y25175664D01*
X3575095Y25100656D01*
X3596973Y25028534D01*
X3611681Y24954590D01*
X3640532Y24884939D01*
X3662410Y24812815D01*
X3697941Y24746342D01*
X3726790Y24676694D01*
X3768674Y24614011D01*
X3804203Y24547540D01*
X3852015Y24489281D01*
X3893901Y24426594D01*
X3947212Y24373283D01*
X3995024Y24315024D01*
X4053283Y24267212D01*
X4106594Y24213901D01*
X4169281Y24172015D01*
X4220476Y24130000D01*
X4169281Y24087985D01*
X4106594Y24046099D01*
X4053283Y23992788D01*
X3995024Y23944976D01*
X3947212Y23886717D01*
X3893901Y23833406D01*
X3852015Y23770719D01*
X3804203Y23712460D01*
X3768674Y23645989D01*
X3726790Y23583306D01*
X3697941Y23513658D01*
X3662410Y23447185D01*
X3640532Y23375061D01*
X3611681Y23305410D01*
X3596973Y23231466D01*
X3575095Y23159344D01*
X3567707Y23084336D01*
X3553000Y23010396D01*
X3553000Y22935011D01*
X3545612Y22860000D01*
X3553000Y22784989D01*
X3553000Y22709604D01*
X3567707Y22635664D01*
X3575095Y22560656D01*
X3596973Y22488534D01*
X3611681Y22414590D01*
X3640532Y22344939D01*
X3662410Y22272815D01*
X3697941Y22206342D01*
X3726790Y22136694D01*
X3768674Y22074011D01*
X3804203Y22007540D01*
X3852015Y21949281D01*
X3893901Y21886594D01*
X3947212Y21833283D01*
X3995024Y21775024D01*
X4053283Y21727212D01*
X4106594Y21673901D01*
X4169281Y21632015D01*
X4220476Y21590000D01*
X4169281Y21547985D01*
X4106594Y21506099D01*
X4053283Y21452788D01*
X3995024Y21404976D01*
X3947212Y21346717D01*
X3893901Y21293406D01*
X3852015Y21230719D01*
X3804203Y21172460D01*
X3768674Y21105989D01*
X3726790Y21043306D01*
X3697941Y20973658D01*
X3662410Y20907185D01*
X3640532Y20835061D01*
X3611681Y20765410D01*
X3596973Y20691466D01*
X3575095Y20619344D01*
X3567707Y20544336D01*
X3553000Y20470396D01*
X3553000Y20395011D01*
X3545612Y20320000D01*
X3553000Y20244989D01*
X3553000Y20169604D01*
X3567707Y20095664D01*
X3575095Y20020656D01*
X3596973Y19948534D01*
X3611681Y19874590D01*
X3640532Y19804939D01*
X3662410Y19732815D01*
X3697941Y19666342D01*
X3726790Y19596694D01*
X3768674Y19534011D01*
X3804203Y19467540D01*
X3852015Y19409281D01*
X3893901Y19346594D01*
X3947212Y19293283D01*
X3995024Y19235024D01*
X4053283Y19187212D01*
X4106594Y19133901D01*
X4169281Y19092015D01*
X4220476Y19050000D01*
X4169281Y19007985D01*
X4106594Y18966099D01*
X4053283Y18912788D01*
X3995024Y18864976D01*
X3947212Y18806717D01*
X3893901Y18753406D01*
X3852015Y18690719D01*
X3804203Y18632460D01*
X3768674Y18565989D01*
X3726790Y18503306D01*
X3697941Y18433658D01*
X3662410Y18367185D01*
X3640532Y18295061D01*
X3611681Y18225410D01*
X3596973Y18151466D01*
X3575095Y18079344D01*
X3567707Y18004336D01*
X3553000Y17930396D01*
X3553000Y17855011D01*
X3545612Y17780000D01*
X3553000Y17704989D01*
X3553000Y17629604D01*
X3567707Y17555664D01*
X3575095Y17480656D01*
X3596973Y17408534D01*
X3611681Y17334590D01*
X3640532Y17264939D01*
X3662410Y17192815D01*
X3697941Y17126342D01*
X3726790Y17056694D01*
X3768674Y16994011D01*
X3804203Y16927540D01*
X3852015Y16869281D01*
X3893901Y16806594D01*
X3947212Y16753283D01*
X3995024Y16695024D01*
X4053283Y16647212D01*
X4106594Y16593901D01*
X4169281Y16552015D01*
X4227540Y16504203D01*
X4294011Y16468674D01*
X4356694Y16426790D01*
X4426342Y16397941D01*
X4492815Y16362410D01*
X4564939Y16340532D01*
X4634590Y16311681D01*
X4708534Y16296973D01*
X4780656Y16275095D01*
X4855664Y16267707D01*
X4929604Y16253000D01*
X6987497Y16253000D01*
X13323605Y9916891D01*
X13387053Y9597915D01*
X13532315Y9247223D01*
X13743201Y8931609D01*
X14011609Y8663201D01*
X14327223Y8452315D01*
X14677915Y8307053D01*
X15050207Y8233000D01*
X15429793Y8233000D01*
X15802085Y8307053D01*
X16152777Y8452315D01*
X16468391Y8663201D01*
X16736799Y8931609D01*
X16947685Y9247223D01*
X17092947Y9597915D01*
X17167000Y9970207D01*
X17167000Y10349793D01*
X17092947Y10722085D01*
X16947685Y11072777D01*
X16736799Y11388391D01*
X16468391Y11656799D01*
X16152777Y11867685D01*
X15802085Y12012947D01*
X15483109Y12076395D01*
X13846504Y13713000D01*
X14056808Y13713000D01*
X14327223Y13532315D01*
X14677915Y13387053D01*
X15050207Y13313000D01*
X15429793Y13313000D01*
X15802085Y13387053D01*
X16152777Y13532315D01*
X16468391Y13743201D01*
X16736799Y14011609D01*
X16947685Y14327223D01*
X17092947Y14677915D01*
X17167000Y15050207D01*
X17167000Y15429793D01*
X17092947Y15802085D01*
X16947685Y16152777D01*
X16736799Y16468391D01*
X16468391Y16736799D01*
X16152777Y16947685D01*
X15802085Y17092947D01*
X15429793Y17167000D01*
X15050207Y17167000D01*
X14677915Y17092947D01*
X14327223Y16947685D01*
X14134631Y16818999D01*
X12160630Y18793000D01*
X14056808Y18793000D01*
X14327223Y18612315D01*
X14677915Y18467053D01*
X15050207Y18393000D01*
X15429793Y18393000D01*
X15802085Y18467053D01*
X16152777Y18612315D01*
X16468391Y18823201D01*
X16736799Y19091609D01*
X16947685Y19407223D01*
X17092947Y19757915D01*
X17167000Y20130207D01*
X17167000Y20509793D01*
X17092947Y20882085D01*
X16947685Y21232777D01*
X16736799Y21548391D01*
X16468391Y21816799D01*
X16152777Y22027685D01*
X15802085Y22172947D01*
X15429793Y22247000D01*
X15050207Y22247000D01*
X14677915Y22172947D01*
X14327223Y22027685D01*
X14056808Y21847000D01*
X12500756Y21847000D01*
X10474755Y23873000D01*
X14056808Y23873000D01*
X14327223Y23692315D01*
X14677915Y23547053D01*
X15050207Y23473000D01*
X15429793Y23473000D01*
X15802085Y23547053D01*
X16152777Y23692315D01*
X16468391Y23903201D01*
X16736799Y24171609D01*
X16947685Y24487223D01*
X17092947Y24837915D01*
X17167000Y25210207D01*
X17167000Y25589793D01*
X17092947Y25962085D01*
X16947685Y26312777D01*
X16736799Y26628391D01*
X16468391Y26896799D01*
X16152777Y27107685D01*
X15802085Y27252947D01*
X15429793Y27327000D01*
X15050207Y27327000D01*
X14677915Y27252947D01*
X14327223Y27107685D01*
X14056808Y26927000D01*
X4929604Y26927000D01*
X4855664Y26912293D01*
X4780656Y26904905D01*
X4708534Y26883027D01*
X4634590Y26868319D01*
X4564939Y26839468D01*
X4492815Y26817590D01*
X4426342Y26782059D01*
X4356694Y26753210D01*
X4294011Y26711326D01*
X4227540Y26675797D01*
X4169281Y26627985D01*
X4106594Y26586099D01*
X4053283Y26532788D01*
X3995024Y26484976D01*
X3947212Y26426717D01*
X3893901Y26373406D01*
X3852015Y26310719D01*
X3804203Y26252460D01*
X3768674Y26185989D01*
X3726790Y26123306D01*
X3697941Y26053658D01*
X3662410Y25987185D01*
X3640532Y25915061D01*
X3611681Y25845410D01*
X3596973Y25771466D01*
X3575095Y25699344D01*
X3567707Y25624336D01*
X3553000Y25550396D01*
X3553000Y25475011D01*
X3545612Y25400000D01*
X452000Y25400000D01*
X452000Y32038284D01*
X4693000Y32038284D01*
X4693000Y31461716D01*
X4805482Y30896225D01*
X5026126Y30363545D01*
X5346450Y29884146D01*
X5754146Y29476450D01*
X6233545Y29156126D01*
X6766225Y28935482D01*
X7331716Y28823000D01*
X7908284Y28823000D01*
X8473775Y28935482D01*
X9006455Y29156126D01*
X9485854Y29476450D01*
X9893550Y29884146D01*
X10213874Y30363545D01*
X10434518Y30896225D01*
X10547000Y31461716D01*
X10547000Y32038284D01*
X10434518Y32603775D01*
X10213874Y33136455D01*
X9893550Y33615854D01*
X9485854Y34023550D01*
X9006455Y34343874D01*
X8473775Y34564518D01*
X7908284Y34677000D01*
X7331716Y34677000D01*
X6766225Y34564518D01*
X6233545Y34343874D01*
X5754146Y34023550D01*
X5346450Y33615854D01*
X5026126Y33136455D01*
X4805482Y32603775D01*
X4693000Y32038284D01*
X452000Y32038284D01*
X452000Y45720000D01*
X3545612Y45720000D01*
X3553000Y45644989D01*
X3553000Y45569604D01*
X3567707Y45495664D01*
X3575095Y45420656D01*
X3596973Y45348534D01*
X3611681Y45274590D01*
X3640532Y45204939D01*
X3662410Y45132815D01*
X3697941Y45066342D01*
X3726790Y44996694D01*
X3768674Y44934011D01*
X3804203Y44867540D01*
X3852015Y44809281D01*
X3893901Y44746594D01*
X3947212Y44693283D01*
X3995024Y44635024D01*
X4053283Y44587212D01*
X4106594Y44533901D01*
X4169281Y44492015D01*
X4220476Y44450000D01*
X4169281Y44407985D01*
X4106594Y44366099D01*
X4053283Y44312788D01*
X3995024Y44264976D01*
X3947212Y44206717D01*
X3893901Y44153406D01*
X3852015Y44090719D01*
X3804203Y44032460D01*
X3768674Y43965989D01*
X3726790Y43903306D01*
X3697941Y43833658D01*
X3662410Y43767185D01*
X3640532Y43695061D01*
X3611681Y43625410D01*
X3596973Y43551466D01*
X3575095Y43479344D01*
X3567707Y43404336D01*
X3553000Y43330396D01*
X3553000Y43255011D01*
X3545612Y43180000D01*
X3553000Y43104989D01*
X3553000Y43029604D01*
X3567707Y42955664D01*
X3575095Y42880656D01*
X3596973Y42808534D01*
X3611681Y42734590D01*
X3640532Y42664939D01*
X3662410Y42592815D01*
X3697941Y42526342D01*
X3726790Y42456694D01*
X3768674Y42394011D01*
X3804203Y42327540D01*
X3852015Y42269281D01*
X3893901Y42206594D01*
X3947212Y42153283D01*
X3995024Y42095024D01*
X4053283Y42047212D01*
X4106594Y41993901D01*
X4169281Y41952015D01*
X4220476Y41910000D01*
X4169281Y41867985D01*
X4106594Y41826099D01*
X4053283Y41772788D01*
X3995024Y41724976D01*
X3947212Y41666717D01*
X3893901Y41613406D01*
X3852015Y41550719D01*
X3804203Y41492460D01*
X3768674Y41425989D01*
X3726790Y41363306D01*
X3697941Y41293658D01*
X3662410Y41227185D01*
X3640532Y41155061D01*
X3611681Y41085410D01*
X3596973Y41011466D01*
X3575095Y40939344D01*
X3567707Y40864336D01*
X3553000Y40790396D01*
X3553000Y40715011D01*
X3545612Y40640000D01*
X3553000Y40564989D01*
X3553000Y40489604D01*
X3567707Y40415664D01*
X3575095Y40340656D01*
X3596973Y40268534D01*
X3611681Y40194590D01*
X3640532Y40124939D01*
X3662410Y40052815D01*
X3697941Y39986342D01*
X3726790Y39916694D01*
X3768674Y39854011D01*
X3804203Y39787540D01*
X3852015Y39729281D01*
X3893901Y39666594D01*
X3947212Y39613283D01*
X3995024Y39555024D01*
X4053283Y39507212D01*
X4106594Y39453901D01*
X4169281Y39412015D01*
X4220476Y39370000D01*
X4169281Y39327985D01*
X4106594Y39286099D01*
X4053283Y39232788D01*
X3995024Y39184976D01*
X3947212Y39126717D01*
X3893901Y39073406D01*
X3852015Y39010719D01*
X3804203Y38952460D01*
X3768674Y38885989D01*
X3726790Y38823306D01*
X3697941Y38753658D01*
X3662410Y38687185D01*
X3640532Y38615061D01*
X3611681Y38545410D01*
X3596973Y38471466D01*
X3575095Y38399344D01*
X3567707Y38324336D01*
X3553000Y38250396D01*
X3553000Y38175011D01*
X3545612Y38100000D01*
X3553000Y38024989D01*
X3553000Y37949604D01*
X3567707Y37875664D01*
X3575095Y37800656D01*
X3596973Y37728534D01*
X3611681Y37654590D01*
X3640532Y37584939D01*
X3662410Y37512815D01*
X3697941Y37446342D01*
X3726790Y37376694D01*
X3768674Y37314011D01*
X3804203Y37247540D01*
X3852015Y37189281D01*
X3893901Y37126594D01*
X3947212Y37073283D01*
X3995024Y37015024D01*
X4053283Y36967212D01*
X4106594Y36913901D01*
X4169281Y36872015D01*
X4227540Y36824203D01*
X4294011Y36788674D01*
X4356694Y36746790D01*
X4426342Y36717941D01*
X4492815Y36682410D01*
X4564939Y36660532D01*
X4634590Y36631681D01*
X4708534Y36616973D01*
X4780656Y36595095D01*
X4855664Y36587707D01*
X4929604Y36573000D01*
X14056808Y36573000D01*
X14327223Y36392315D01*
X14677915Y36247053D01*
X15050207Y36173000D01*
X15429793Y36173000D01*
X15802085Y36247053D01*
X16152777Y36392315D01*
X16468391Y36603201D01*
X16736799Y36871609D01*
X16947685Y37187223D01*
X17092947Y37537915D01*
X17167000Y37910207D01*
X17167000Y38289793D01*
X17092947Y38662085D01*
X16947685Y39012777D01*
X16736799Y39328391D01*
X16468391Y39596799D01*
X16152777Y39807685D01*
X15802085Y39952947D01*
X15429793Y40027000D01*
X15050207Y40027000D01*
X14677915Y39952947D01*
X14327223Y39807685D01*
X14056808Y39627000D01*
X10474755Y39627000D01*
X12500756Y41653000D01*
X14056808Y41653000D01*
X14327223Y41472315D01*
X14677915Y41327053D01*
X15050207Y41253000D01*
X15429793Y41253000D01*
X15802085Y41327053D01*
X16152777Y41472315D01*
X16468391Y41683201D01*
X16736799Y41951609D01*
X16947685Y42267223D01*
X17092947Y42617915D01*
X17167000Y42990207D01*
X17167000Y43369793D01*
X17092947Y43742085D01*
X16947685Y44092777D01*
X16736799Y44408391D01*
X16468391Y44676799D01*
X16152777Y44887685D01*
X15802085Y45032947D01*
X15429793Y45107000D01*
X15050207Y45107000D01*
X14677915Y45032947D01*
X14327223Y44887685D01*
X14056808Y44707000D01*
X12160630Y44707000D01*
X14134631Y46681001D01*
X14327223Y46552315D01*
X14677915Y46407053D01*
X15050207Y46333000D01*
X15429793Y46333000D01*
X15802085Y46407053D01*
X16152777Y46552315D01*
X16468391Y46763201D01*
X16736799Y47031609D01*
X16947685Y47347223D01*
X17092947Y47697915D01*
X17167000Y48070207D01*
X17167000Y48449793D01*
X17092947Y48822085D01*
X16947685Y49172777D01*
X16736799Y49488391D01*
X16468391Y49756799D01*
X16152777Y49967685D01*
X15802085Y50112947D01*
X15429793Y50187000D01*
X15050207Y50187000D01*
X14677915Y50112947D01*
X14327223Y49967685D01*
X14056808Y49787000D01*
X13846504Y49787000D01*
X15483109Y51423605D01*
X15802085Y51487053D01*
X16152777Y51632315D01*
X16468391Y51843201D01*
X16736799Y52111609D01*
X16947685Y52427223D01*
X17092947Y52777915D01*
X17167000Y53150207D01*
X17167000Y53529793D01*
X17092947Y53902085D01*
X16947685Y54252777D01*
X16736799Y54568391D01*
X16468391Y54836799D01*
X16152777Y55047685D01*
X15802085Y55192947D01*
X15429793Y55267000D01*
X15050207Y55267000D01*
X14677915Y55192947D01*
X14327223Y55047685D01*
X14011609Y54836799D01*
X13743201Y54568391D01*
X13532315Y54252777D01*
X13387053Y53902085D01*
X13323605Y53583109D01*
X6987497Y47247000D01*
X4929604Y47247000D01*
X4855664Y47232293D01*
X4780656Y47224905D01*
X4708534Y47203027D01*
X4634590Y47188319D01*
X4564939Y47159468D01*
X4492815Y47137590D01*
X4426342Y47102059D01*
X4356694Y47073210D01*
X4294011Y47031326D01*
X4227540Y46995797D01*
X4169281Y46947985D01*
X4106594Y46906099D01*
X4053283Y46852788D01*
X3995024Y46804976D01*
X3947212Y46746717D01*
X3893901Y46693406D01*
X3852015Y46630719D01*
X3804203Y46572460D01*
X3768674Y46505989D01*
X3726790Y46443306D01*
X3697941Y46373658D01*
X3662410Y46307185D01*
X3640532Y46235061D01*
X3611681Y46165410D01*
X3596973Y46091466D01*
X3575095Y46019344D01*
X3567707Y45944336D01*
X3553000Y45870396D01*
X3553000Y45795011D01*
X3545612Y45720000D01*
X452000Y45720000D01*
X452000Y53628284D01*
X4693000Y53628284D01*
X4693000Y53051716D01*
X4805482Y52486225D01*
X5026126Y51953545D01*
X5346450Y51474146D01*
X5754146Y51066450D01*
X6233545Y50746126D01*
X6766225Y50525482D01*
X7331716Y50413000D01*
X7908284Y50413000D01*
X8473775Y50525482D01*
X9006455Y50746126D01*
X9485854Y51066450D01*
X9893550Y51474146D01*
X10213874Y51953545D01*
X10434518Y52486225D01*
X10547000Y53051716D01*
X10547000Y53628284D01*
X10434518Y54193775D01*
X10213874Y54726455D01*
X9893550Y55205854D01*
X9485854Y55613550D01*
X9006455Y55933874D01*
X8473775Y56154518D01*
X7908284Y56267000D01*
X7331716Y56267000D01*
X6766225Y56154518D01*
X6233545Y55933874D01*
X5754146Y55613550D01*
X5346450Y55205854D01*
X5026126Y54726455D01*
X4805482Y54193775D01*
X4693000Y53628284D01*
X452000Y53628284D01*
X452000Y57968000D01*
X19868001Y57968000D01*
X19868000Y452000D01*
G37*
X19868000Y452000D02*
X452000Y452000D01*
X452000Y25400000D01*
X3545612Y25400000D01*
X3553000Y25324989D01*
X3553000Y25249604D01*
X3567707Y25175664D01*
X3575095Y25100656D01*
X3596973Y25028534D01*
X3611681Y24954590D01*
X3640532Y24884939D01*
X3662410Y24812815D01*
X3697941Y24746342D01*
X3726790Y24676694D01*
X3768674Y24614011D01*
X3804203Y24547540D01*
X3852015Y24489281D01*
X3893901Y24426594D01*
X3947212Y24373283D01*
X3995024Y24315024D01*
X4053283Y24267212D01*
X4106594Y24213901D01*
X4169281Y24172015D01*
X4220476Y24130000D01*
X4169281Y24087985D01*
X4106594Y24046099D01*
X4053283Y23992788D01*
X3995024Y23944976D01*
X3947212Y23886717D01*
X3893901Y23833406D01*
X3852015Y23770719D01*
X3804203Y23712460D01*
X3768674Y23645989D01*
X3726790Y23583306D01*
X3697941Y23513658D01*
X3662410Y23447185D01*
X3640532Y23375061D01*
X3611681Y23305410D01*
X3596973Y23231466D01*
X3575095Y23159344D01*
X3567707Y23084336D01*
X3553000Y23010396D01*
X3553000Y22935011D01*
X3545612Y22860000D01*
X3553000Y22784989D01*
X3553000Y22709604D01*
X3567707Y22635664D01*
X3575095Y22560656D01*
X3596973Y22488534D01*
X3611681Y22414590D01*
X3640532Y22344939D01*
X3662410Y22272815D01*
X3697941Y22206342D01*
X3726790Y22136694D01*
X3768674Y22074011D01*
X3804203Y22007540D01*
X3852015Y21949281D01*
X3893901Y21886594D01*
X3947212Y21833283D01*
X3995024Y21775024D01*
X4053283Y21727212D01*
X4106594Y21673901D01*
X4169281Y21632015D01*
X4220476Y21590000D01*
X4169281Y21547985D01*
X4106594Y21506099D01*
X4053283Y21452788D01*
X3995024Y21404976D01*
X3947212Y21346717D01*
X3893901Y21293406D01*
X3852015Y21230719D01*
X3804203Y21172460D01*
X3768674Y21105989D01*
X3726790Y21043306D01*
X3697941Y20973658D01*
X3662410Y20907185D01*
X3640532Y20835061D01*
X3611681Y20765410D01*
X3596973Y20691466D01*
X3575095Y20619344D01*
X3567707Y20544336D01*
X3553000Y20470396D01*
X3553000Y20395011D01*
X3545612Y20320000D01*
X3553000Y20244989D01*
X3553000Y20169604D01*
X3567707Y20095664D01*
X3575095Y20020656D01*
X3596973Y19948534D01*
X3611681Y19874590D01*
X3640532Y19804939D01*
X3662410Y19732815D01*
X3697941Y19666342D01*
X3726790Y19596694D01*
X3768674Y19534011D01*
X3804203Y19467540D01*
X3852015Y19409281D01*
X3893901Y19346594D01*
X3947212Y19293283D01*
X3995024Y19235024D01*
X4053283Y19187212D01*
X4106594Y19133901D01*
X4169281Y19092015D01*
X4220476Y19050000D01*
X4169281Y19007985D01*
X4106594Y18966099D01*
X4053283Y18912788D01*
X3995024Y18864976D01*
X3947212Y18806717D01*
X3893901Y18753406D01*
X3852015Y18690719D01*
X3804203Y18632460D01*
X3768674Y18565989D01*
X3726790Y18503306D01*
X3697941Y18433658D01*
X3662410Y18367185D01*
X3640532Y18295061D01*
X3611681Y18225410D01*
X3596973Y18151466D01*
X3575095Y18079344D01*
X3567707Y18004336D01*
X3553000Y17930396D01*
X3553000Y17855011D01*
X3545612Y17780000D01*
X3553000Y17704989D01*
X3553000Y17629604D01*
X3567707Y17555664D01*
X3575095Y17480656D01*
X3596973Y17408534D01*
X3611681Y17334590D01*
X3640532Y17264939D01*
X3662410Y17192815D01*
X3697941Y17126342D01*
X3726790Y17056694D01*
X3768674Y16994011D01*
X3804203Y16927540D01*
X3852015Y16869281D01*
X3893901Y16806594D01*
X3947212Y16753283D01*
X3995024Y16695024D01*
X4053283Y16647212D01*
X4106594Y16593901D01*
X4169281Y16552015D01*
X4227540Y16504203D01*
X4294011Y16468674D01*
X4356694Y16426790D01*
X4426342Y16397941D01*
X4492815Y16362410D01*
X4564939Y16340532D01*
X4634590Y16311681D01*
X4708534Y16296973D01*
X4780656Y16275095D01*
X4855664Y16267707D01*
X4929604Y16253000D01*
X6987497Y16253000D01*
X13323605Y9916891D01*
X13387053Y9597915D01*
X13532315Y9247223D01*
X13743201Y8931609D01*
X14011609Y8663201D01*
X14327223Y8452315D01*
X14677915Y8307053D01*
X15050207Y8233000D01*
X15429793Y8233000D01*
X15802085Y8307053D01*
X16152777Y8452315D01*
X16468391Y8663201D01*
X16736799Y8931609D01*
X16947685Y9247223D01*
X17092947Y9597915D01*
X17167000Y9970207D01*
X17167000Y10349793D01*
X17092947Y10722085D01*
X16947685Y11072777D01*
X16736799Y11388391D01*
X16468391Y11656799D01*
X16152777Y11867685D01*
X15802085Y12012947D01*
X15483109Y12076395D01*
X13846504Y13713000D01*
X14056808Y13713000D01*
X14327223Y13532315D01*
X14677915Y13387053D01*
X15050207Y13313000D01*
X15429793Y13313000D01*
X15802085Y13387053D01*
X16152777Y13532315D01*
X16468391Y13743201D01*
X16736799Y14011609D01*
X16947685Y14327223D01*
X17092947Y14677915D01*
X17167000Y15050207D01*
X17167000Y15429793D01*
X17092947Y15802085D01*
X16947685Y16152777D01*
X16736799Y16468391D01*
X16468391Y16736799D01*
X16152777Y16947685D01*
X15802085Y17092947D01*
X15429793Y17167000D01*
X15050207Y17167000D01*
X14677915Y17092947D01*
X14327223Y16947685D01*
X14134631Y16818999D01*
X12160630Y18793000D01*
X14056808Y18793000D01*
X14327223Y18612315D01*
X14677915Y18467053D01*
X15050207Y18393000D01*
X15429793Y18393000D01*
X15802085Y18467053D01*
X16152777Y18612315D01*
X16468391Y18823201D01*
X16736799Y19091609D01*
X16947685Y19407223D01*
X17092947Y19757915D01*
X17167000Y20130207D01*
X17167000Y20509793D01*
X17092947Y20882085D01*
X16947685Y21232777D01*
X16736799Y21548391D01*
X16468391Y21816799D01*
X16152777Y22027685D01*
X15802085Y22172947D01*
X15429793Y22247000D01*
X15050207Y22247000D01*
X14677915Y22172947D01*
X14327223Y22027685D01*
X14056808Y21847000D01*
X12500756Y21847000D01*
X10474755Y23873000D01*
X14056808Y23873000D01*
X14327223Y23692315D01*
X14677915Y23547053D01*
X15050207Y23473000D01*
X15429793Y23473000D01*
X15802085Y23547053D01*
X16152777Y23692315D01*
X16468391Y23903201D01*
X16736799Y24171609D01*
X16947685Y24487223D01*
X17092947Y24837915D01*
X17167000Y25210207D01*
X17167000Y25589793D01*
X17092947Y25962085D01*
X16947685Y26312777D01*
X16736799Y26628391D01*
X16468391Y26896799D01*
X16152777Y27107685D01*
X15802085Y27252947D01*
X15429793Y27327000D01*
X15050207Y27327000D01*
X14677915Y27252947D01*
X14327223Y27107685D01*
X14056808Y26927000D01*
X4929604Y26927000D01*
X4855664Y26912293D01*
X4780656Y26904905D01*
X4708534Y26883027D01*
X4634590Y26868319D01*
X4564939Y26839468D01*
X4492815Y26817590D01*
X4426342Y26782059D01*
X4356694Y26753210D01*
X4294011Y26711326D01*
X4227540Y26675797D01*
X4169281Y26627985D01*
X4106594Y26586099D01*
X4053283Y26532788D01*
X3995024Y26484976D01*
X3947212Y26426717D01*
X3893901Y26373406D01*
X3852015Y26310719D01*
X3804203Y26252460D01*
X3768674Y26185989D01*
X3726790Y26123306D01*
X3697941Y26053658D01*
X3662410Y25987185D01*
X3640532Y25915061D01*
X3611681Y25845410D01*
X3596973Y25771466D01*
X3575095Y25699344D01*
X3567707Y25624336D01*
X3553000Y25550396D01*
X3553000Y25475011D01*
X3545612Y25400000D01*
X452000Y25400000D01*
X452000Y32038284D01*
X4693000Y32038284D01*
X4693000Y31461716D01*
X4805482Y30896225D01*
X5026126Y30363545D01*
X5346450Y29884146D01*
X5754146Y29476450D01*
X6233545Y29156126D01*
X6766225Y28935482D01*
X7331716Y28823000D01*
X7908284Y28823000D01*
X8473775Y28935482D01*
X9006455Y29156126D01*
X9485854Y29476450D01*
X9893550Y29884146D01*
X10213874Y30363545D01*
X10434518Y30896225D01*
X10547000Y31461716D01*
X10547000Y32038284D01*
X10434518Y32603775D01*
X10213874Y33136455D01*
X9893550Y33615854D01*
X9485854Y34023550D01*
X9006455Y34343874D01*
X8473775Y34564518D01*
X7908284Y34677000D01*
X7331716Y34677000D01*
X6766225Y34564518D01*
X6233545Y34343874D01*
X5754146Y34023550D01*
X5346450Y33615854D01*
X5026126Y33136455D01*
X4805482Y32603775D01*
X4693000Y32038284D01*
X452000Y32038284D01*
X452000Y45720000D01*
X3545612Y45720000D01*
X3553000Y45644989D01*
X3553000Y45569604D01*
X3567707Y45495664D01*
X3575095Y45420656D01*
X3596973Y45348534D01*
X3611681Y45274590D01*
X3640532Y45204939D01*
X3662410Y45132815D01*
X3697941Y45066342D01*
X3726790Y44996694D01*
X3768674Y44934011D01*
X3804203Y44867540D01*
X3852015Y44809281D01*
X3893901Y44746594D01*
X3947212Y44693283D01*
X3995024Y44635024D01*
X4053283Y44587212D01*
X4106594Y44533901D01*
X4169281Y44492015D01*
X4220476Y44450000D01*
X4169281Y44407985D01*
X4106594Y44366099D01*
X4053283Y44312788D01*
X3995024Y44264976D01*
X3947212Y44206717D01*
X3893901Y44153406D01*
X3852015Y44090719D01*
X3804203Y44032460D01*
X3768674Y43965989D01*
X3726790Y43903306D01*
X3697941Y43833658D01*
X3662410Y43767185D01*
X3640532Y43695061D01*
X3611681Y43625410D01*
X3596973Y43551466D01*
X3575095Y43479344D01*
X3567707Y43404336D01*
X3553000Y43330396D01*
X3553000Y43255011D01*
X3545612Y43180000D01*
X3553000Y43104989D01*
X3553000Y43029604D01*
X3567707Y42955664D01*
X3575095Y42880656D01*
X3596973Y42808534D01*
X3611681Y42734590D01*
X3640532Y42664939D01*
X3662410Y42592815D01*
X3697941Y42526342D01*
X3726790Y42456694D01*
X3768674Y42394011D01*
X3804203Y42327540D01*
X3852015Y42269281D01*
X3893901Y42206594D01*
X3947212Y42153283D01*
X3995024Y42095024D01*
X4053283Y42047212D01*
X4106594Y41993901D01*
X4169281Y41952015D01*
X4220476Y41910000D01*
X4169281Y41867985D01*
X4106594Y41826099D01*
X4053283Y41772788D01*
X3995024Y41724976D01*
X3947212Y41666717D01*
X3893901Y41613406D01*
X3852015Y41550719D01*
X3804203Y41492460D01*
X3768674Y41425989D01*
X3726790Y41363306D01*
X3697941Y41293658D01*
X3662410Y41227185D01*
X3640532Y41155061D01*
X3611681Y41085410D01*
X3596973Y41011466D01*
X3575095Y40939344D01*
X3567707Y40864336D01*
X3553000Y40790396D01*
X3553000Y40715011D01*
X3545612Y40640000D01*
X3553000Y40564989D01*
X3553000Y40489604D01*
X3567707Y40415664D01*
X3575095Y40340656D01*
X3596973Y40268534D01*
X3611681Y40194590D01*
X3640532Y40124939D01*
X3662410Y40052815D01*
X3697941Y39986342D01*
X3726790Y39916694D01*
X3768674Y39854011D01*
X3804203Y39787540D01*
X3852015Y39729281D01*
X3893901Y39666594D01*
X3947212Y39613283D01*
X3995024Y39555024D01*
X4053283Y39507212D01*
X4106594Y39453901D01*
X4169281Y39412015D01*
X4220476Y39370000D01*
X4169281Y39327985D01*
X4106594Y39286099D01*
X4053283Y39232788D01*
X3995024Y39184976D01*
X3947212Y39126717D01*
X3893901Y39073406D01*
X3852015Y39010719D01*
X3804203Y38952460D01*
X3768674Y38885989D01*
X3726790Y38823306D01*
X3697941Y38753658D01*
X3662410Y38687185D01*
X3640532Y38615061D01*
X3611681Y38545410D01*
X3596973Y38471466D01*
X3575095Y38399344D01*
X3567707Y38324336D01*
X3553000Y38250396D01*
X3553000Y38175011D01*
X3545612Y38100000D01*
X3553000Y38024989D01*
X3553000Y37949604D01*
X3567707Y37875664D01*
X3575095Y37800656D01*
X3596973Y37728534D01*
X3611681Y37654590D01*
X3640532Y37584939D01*
X3662410Y37512815D01*
X3697941Y37446342D01*
X3726790Y37376694D01*
X3768674Y37314011D01*
X3804203Y37247540D01*
X3852015Y37189281D01*
X3893901Y37126594D01*
X3947212Y37073283D01*
X3995024Y37015024D01*
X4053283Y36967212D01*
X4106594Y36913901D01*
X4169281Y36872015D01*
X4227540Y36824203D01*
X4294011Y36788674D01*
X4356694Y36746790D01*
X4426342Y36717941D01*
X4492815Y36682410D01*
X4564939Y36660532D01*
X4634590Y36631681D01*
X4708534Y36616973D01*
X4780656Y36595095D01*
X4855664Y36587707D01*
X4929604Y36573000D01*
X14056808Y36573000D01*
X14327223Y36392315D01*
X14677915Y36247053D01*
X15050207Y36173000D01*
X15429793Y36173000D01*
X15802085Y36247053D01*
X16152777Y36392315D01*
X16468391Y36603201D01*
X16736799Y36871609D01*
X16947685Y37187223D01*
X17092947Y37537915D01*
X17167000Y37910207D01*
X17167000Y38289793D01*
X17092947Y38662085D01*
X16947685Y39012777D01*
X16736799Y39328391D01*
X16468391Y39596799D01*
X16152777Y39807685D01*
X15802085Y39952947D01*
X15429793Y40027000D01*
X15050207Y40027000D01*
X14677915Y39952947D01*
X14327223Y39807685D01*
X14056808Y39627000D01*
X10474755Y39627000D01*
X12500756Y41653000D01*
X14056808Y41653000D01*
X14327223Y41472315D01*
X14677915Y41327053D01*
X15050207Y41253000D01*
X15429793Y41253000D01*
X15802085Y41327053D01*
X16152777Y41472315D01*
X16468391Y41683201D01*
X16736799Y41951609D01*
X16947685Y42267223D01*
X17092947Y42617915D01*
X17167000Y42990207D01*
X17167000Y43369793D01*
X17092947Y43742085D01*
X16947685Y44092777D01*
X16736799Y44408391D01*
X16468391Y44676799D01*
X16152777Y44887685D01*
X15802085Y45032947D01*
X15429793Y45107000D01*
X15050207Y45107000D01*
X14677915Y45032947D01*
X14327223Y44887685D01*
X14056808Y44707000D01*
X12160630Y44707000D01*
X14134631Y46681001D01*
X14327223Y46552315D01*
X14677915Y46407053D01*
X15050207Y46333000D01*
X15429793Y46333000D01*
X15802085Y46407053D01*
X16152777Y46552315D01*
X16468391Y46763201D01*
X16736799Y47031609D01*
X16947685Y47347223D01*
X17092947Y47697915D01*
X17167000Y48070207D01*
X17167000Y48449793D01*
X17092947Y48822085D01*
X16947685Y49172777D01*
X16736799Y49488391D01*
X16468391Y49756799D01*
X16152777Y49967685D01*
X15802085Y50112947D01*
X15429793Y50187000D01*
X15050207Y50187000D01*
X14677915Y50112947D01*
X14327223Y49967685D01*
X14056808Y49787000D01*
X13846504Y49787000D01*
X15483109Y51423605D01*
X15802085Y51487053D01*
X16152777Y51632315D01*
X16468391Y51843201D01*
X16736799Y52111609D01*
X16947685Y52427223D01*
X17092947Y52777915D01*
X17167000Y53150207D01*
X17167000Y53529793D01*
X17092947Y53902085D01*
X16947685Y54252777D01*
X16736799Y54568391D01*
X16468391Y54836799D01*
X16152777Y55047685D01*
X15802085Y55192947D01*
X15429793Y55267000D01*
X15050207Y55267000D01*
X14677915Y55192947D01*
X14327223Y55047685D01*
X14011609Y54836799D01*
X13743201Y54568391D01*
X13532315Y54252777D01*
X13387053Y53902085D01*
X13323605Y53583109D01*
X6987497Y47247000D01*
X4929604Y47247000D01*
X4855664Y47232293D01*
X4780656Y47224905D01*
X4708534Y47203027D01*
X4634590Y47188319D01*
X4564939Y47159468D01*
X4492815Y47137590D01*
X4426342Y47102059D01*
X4356694Y47073210D01*
X4294011Y47031326D01*
X4227540Y46995797D01*
X4169281Y46947985D01*
X4106594Y46906099D01*
X4053283Y46852788D01*
X3995024Y46804976D01*
X3947212Y46746717D01*
X3893901Y46693406D01*
X3852015Y46630719D01*
X3804203Y46572460D01*
X3768674Y46505989D01*
X3726790Y46443306D01*
X3697941Y46373658D01*
X3662410Y46307185D01*
X3640532Y46235061D01*
X3611681Y46165410D01*
X3596973Y46091466D01*
X3575095Y46019344D01*
X3567707Y45944336D01*
X3553000Y45870396D01*
X3553000Y45795011D01*
X3545612Y45720000D01*
X452000Y45720000D01*
X452000Y53628284D01*
X4693000Y53628284D01*
X4693000Y53051716D01*
X4805482Y52486225D01*
X5026126Y51953545D01*
X5346450Y51474146D01*
X5754146Y51066450D01*
X6233545Y50746126D01*
X6766225Y50525482D01*
X7331716Y50413000D01*
X7908284Y50413000D01*
X8473775Y50525482D01*
X9006455Y50746126D01*
X9485854Y51066450D01*
X9893550Y51474146D01*
X10213874Y51953545D01*
X10434518Y52486225D01*
X10547000Y53051716D01*
X10547000Y53628284D01*
X10434518Y54193775D01*
X10213874Y54726455D01*
X9893550Y55205854D01*
X9485854Y55613550D01*
X9006455Y55933874D01*
X8473775Y56154518D01*
X7908284Y56267000D01*
X7331716Y56267000D01*
X6766225Y56154518D01*
X6233545Y55933874D01*
X5754146Y55613550D01*
X5346450Y55205854D01*
X5026126Y54726455D01*
X4805482Y54193775D01*
X4693000Y53628284D01*
X452000Y53628284D01*
X452000Y57968000D01*
X19868001Y57968000D01*
X19868000Y452000D01*
%TD*%
M02*
