M48
; DRILL file {KiCad (5.1.6)-1} date 03/29/22 12:33:57
; FORMAT={-:-/ absolute / metric / decimal}
; #@! TF.CreationDate,2022-03-29T12:33:57-05:00
; #@! TF.GenerationSoftware,Kicad,Pcbnew,(5.1.6)-1
FMAT,2
METRIC
T1C0.800
T2C1.200
T3C3.200
%
G90
G05
T1
X5.08Y25.4
X5.08Y22.86
X5.08Y20.32
X5.08Y17.78
X5.08Y45.72
X5.08Y43.18
X5.08Y40.64
X5.08Y38.1
T2
X15.24Y53.34
X15.24Y48.26
X15.24Y43.18
X15.24Y38.1
X15.24Y25.4
X15.24Y20.32
X15.24Y15.24
X15.24Y10.16
X15.24Y5.08
T3
X7.62Y53.34
X7.62Y31.75
X7.62Y5.08
T0
M30
