%TF.GenerationSoftware,KiCad,Pcbnew,(5.1.6)-1*%
%TF.CreationDate,2022-08-08T08:16:50-05:00*%
%TF.ProjectId,controller4,636f6e74-726f-46c6-9c65-72342e6b6963,rev?*%
%TF.SameCoordinates,Original*%
%TF.FileFunction,Soldermask,Bot*%
%TF.FilePolarity,Negative*%
%FSLAX46Y46*%
G04 Gerber Fmt 4.6, Leading zero omitted, Abs format (unit mm)*
G04 Created by KiCad (PCBNEW (5.1.6)-1) date 2022-08-08 08:16:50*
%MOMM*%
%LPD*%
G01*
G04 APERTURE LIST*
%ADD10C,2.200000*%
%ADD11C,3.200000*%
G04 APERTURE END LIST*
D10*
%TO.C,J7*%
X92710000Y41910000D03*
X92710000Y39370000D03*
X92710000Y36830000D03*
X92710000Y34290000D03*
X92710000Y31750000D03*
%TD*%
%TO.C,C1*%
X77470000Y31750000D03*
X80010000Y31750000D03*
%TD*%
%TO.C,C2*%
X80010000Y40640000D03*
X77470000Y40640000D03*
%TD*%
%TO.C,C3*%
X77470000Y49530000D03*
X80010000Y49530000D03*
%TD*%
%TO.C,C4*%
X80010000Y58420000D03*
X77470000Y58420000D03*
%TD*%
%TO.C,C5*%
X68580000Y48260000D03*
X71120000Y48260000D03*
%TD*%
%TO.C,C6*%
X77470000Y67310000D03*
X80010000Y67310000D03*
%TD*%
%TO.C,C7*%
X91440000Y13970000D03*
X88900000Y13970000D03*
%TD*%
%TO.C,J1*%
X3810000Y68580000D03*
X3810000Y63500000D03*
%TD*%
%TO.C,J2*%
X19050000Y69850000D03*
X21590000Y69850000D03*
X24130000Y69850000D03*
X26670000Y69850000D03*
%TD*%
%TO.C,J3*%
X40640000Y69850000D03*
X38100000Y69850000D03*
X35560000Y69850000D03*
X33020000Y69850000D03*
%TD*%
%TO.C,J4*%
X46990000Y69850000D03*
X49530000Y69850000D03*
X52070000Y69850000D03*
X54610000Y69850000D03*
%TD*%
%TO.C,J5*%
X68580000Y69789999D03*
X66040000Y69789999D03*
X63500000Y69789999D03*
X60960000Y69789999D03*
%TD*%
%TO.C,J6*%
X92710000Y59690000D03*
X92710000Y57150000D03*
X92710000Y54610000D03*
X92710000Y52070000D03*
%TD*%
%TO.C,J8*%
X10160000Y31750000D03*
X7620000Y31750000D03*
%TD*%
%TO.C,J9*%
X33020000Y5080000D03*
X35560000Y5080000D03*
X38100000Y5080000D03*
%TD*%
%TO.C,J10*%
X63500000Y5080000D03*
X60960000Y5080000D03*
X58420000Y5080000D03*
X55880000Y5080000D03*
X53340000Y5080000D03*
X50800000Y5080000D03*
X48260000Y5080000D03*
X45720000Y5080000D03*
%TD*%
%TO.C,J11*%
X92710000Y24130000D03*
X92710000Y21590000D03*
%TD*%
%TO.C,M1*%
X12700000Y55880000D03*
X12700000Y40640000D03*
X3810000Y40640000D03*
X3810000Y55880000D03*
%TD*%
%TO.C,M2*%
X78740000Y6350000D03*
X78740000Y8890000D03*
X78740000Y11430000D03*
X78740000Y13970000D03*
X78740000Y16510000D03*
X78740000Y19050000D03*
%TD*%
%TO.C,R1*%
X85090000Y69850000D03*
X77470000Y69850000D03*
%TD*%
%TO.C,R2*%
X85090000Y60960000D03*
X77470000Y60960000D03*
%TD*%
%TO.C,R3*%
X77470000Y52070000D03*
X85090000Y52070000D03*
%TD*%
%TO.C,R4*%
X85090000Y43180000D03*
X77470000Y43180000D03*
%TD*%
%TO.C,R5*%
X77470000Y34290000D03*
X85090000Y34290000D03*
%TD*%
%TO.C,R6*%
X82550000Y29210000D03*
X74930000Y29210000D03*
%TD*%
%TO.C,R7*%
X74930000Y38100000D03*
X82550000Y38100000D03*
%TD*%
%TO.C,R8*%
X82550000Y46990000D03*
X74930000Y46990000D03*
%TD*%
%TO.C,R9*%
X74930000Y55880000D03*
X82550000Y55880000D03*
%TD*%
%TO.C,R10*%
X82550000Y64770000D03*
X74930000Y64770000D03*
%TD*%
%TO.C,R11*%
X82550000Y16510000D03*
X82550000Y8890000D03*
%TD*%
%TO.C,U1*%
X30480000Y44450000D03*
X33020000Y44450000D03*
X35560000Y44450000D03*
X38100000Y44450000D03*
X40640000Y44450000D03*
X43180000Y44450000D03*
X45720000Y44450000D03*
X48260000Y44450000D03*
X50800000Y44450000D03*
X53340000Y44450000D03*
X55880000Y44450000D03*
X58420000Y44450000D03*
X60960000Y44450000D03*
X63500000Y44450000D03*
X66040000Y44450000D03*
X66040000Y19050000D03*
X63500000Y19050000D03*
X60960000Y19050000D03*
X58420000Y19050000D03*
X55880000Y19050000D03*
X53340000Y19050000D03*
X50800000Y19050000D03*
X48260000Y19050000D03*
X45720000Y19050000D03*
X43180000Y19050000D03*
X40640000Y19050000D03*
X38100000Y19050000D03*
X35560000Y19050000D03*
X33020000Y19050000D03*
X30480000Y19050000D03*
%TD*%
D11*
X5080000Y5080000D03*
X11430000Y69850000D03*
X93980000Y5080000D03*
X93980000Y69850000D03*
D10*
X19050000Y64770000D03*
X30480000Y64770000D03*
X33020000Y64770000D03*
X44450000Y64770000D03*
X46990000Y64770000D03*
X60960000Y64770000D03*
X19050000Y19050000D03*
X19050000Y40640000D03*
X71120000Y44450000D03*
X71120000Y24130000D03*
X68580000Y24130000D03*
X30480000Y24130000D03*
X26670000Y5080000D03*
X45720000Y8890000D03*
X33020000Y8890000D03*
X26670000Y31750000D03*
X30480000Y31750000D03*
X30480000Y40640000D03*
X21590000Y62230000D03*
X33020000Y62230000D03*
X35560000Y62230000D03*
X46990000Y62230000D03*
X49530000Y62230000D03*
X60960000Y62230000D03*
X21590000Y40640000D03*
X21590000Y27940000D03*
X53340000Y8890000D03*
X73660000Y8890000D03*
X50800000Y11430000D03*
X73799990Y11430000D03*
X73660000Y16510000D03*
X40640000Y16510000D03*
X88900000Y21590000D03*
X63500000Y21590000D03*
M02*
