M48
; DRILL file {KiCad (5.1.6)-1} date 08/08/22 08:17:02
; FORMAT={-:-/ absolute / metric / decimal}
; #@! TF.CreationDate,2022-08-08T08:17:02-05:00
; #@! TF.GenerationSoftware,Kicad,Pcbnew,(5.1.6)-1
FMAT,2
METRIC
T1C0.800
T2C0.900
T3C3.100
%
G90
G05
T1
X63.5Y5.08
X60.96Y5.08
X58.42Y5.08
X55.88Y5.08
X53.34Y5.08
X50.8Y5.08
X48.26Y5.08
X45.72Y5.08
X38.1Y5.08
X35.56Y5.08
X33.02Y5.08
X78.74Y6.35
X82.55Y8.89
X78.74Y8.89
X78.74Y11.43
X91.44Y13.97
X88.9Y13.97
X78.74Y13.97
X78.74Y16.51
X82.55Y16.51
X78.74Y19.05
X92.71Y21.59
X92.71Y24.13
X74.93Y29.21
X82.55Y29.21
X92.71Y31.75
X80.01Y31.75
X77.47Y31.75
X10.16Y31.75
X7.62Y31.75
X77.47Y34.29
X85.09Y34.29
X92.71Y34.29
X92.71Y36.83
X74.93Y38.1
X82.55Y38.1
X92.71Y39.37
X3.81Y40.64
X12.7Y40.64
X77.47Y40.64
X80.01Y40.64
X92.71Y41.91
X77.47Y43.18
X85.09Y43.18
X82.55Y46.99
X74.93Y46.99
X68.58Y48.26
X71.12Y48.26
X80.01Y49.53
X77.47Y49.53
X77.47Y52.07
X85.09Y52.07
X92.71Y52.07
X92.71Y54.61
X3.81Y55.88
X12.7Y55.88
X74.93Y55.88
X82.55Y55.88
X92.71Y57.15
X77.47Y58.42
X80.01Y58.42
X92.71Y59.69
X77.47Y60.96
X85.09Y60.96
X3.81Y63.5
X74.93Y64.77
X82.55Y64.77
X80.01Y67.31
X77.47Y67.31
X3.81Y68.58
X68.58Y69.79
X66.04Y69.79
X63.5Y69.79
X60.96Y69.79
X19.05Y69.85
X21.59Y69.85
X24.13Y69.85
X26.67Y69.85
X33.02Y69.85
X35.56Y69.85
X38.1Y69.85
X40.64Y69.85
X46.99Y69.85
X49.53Y69.85
X52.07Y69.85
X54.61Y69.85
X77.47Y69.85
X85.09Y69.85
T2
X26.67Y5.08
X33.02Y8.89
X45.72Y8.89
X53.34Y8.89
X73.66Y8.89
X73.8Y11.43
X50.8Y11.43
X40.64Y16.51
X73.66Y16.51
X66.04Y19.05
X63.5Y19.05
X60.96Y19.05
X58.42Y19.05
X55.88Y19.05
X53.34Y19.05
X50.8Y19.05
X48.26Y19.05
X45.72Y19.05
X43.18Y19.05
X40.64Y19.05
X38.1Y19.05
X35.56Y19.05
X33.02Y19.05
X30.48Y19.05
X19.05Y19.05
X63.5Y21.59
X88.9Y21.59
X71.12Y24.13
X68.58Y24.13
X30.48Y24.13
X21.59Y27.94
X30.48Y31.75
X26.67Y31.75
X19.05Y40.64
X21.59Y40.64
X30.48Y40.64
X71.12Y44.45
X66.04Y44.45
X63.5Y44.45
X60.96Y44.45
X58.42Y44.45
X55.88Y44.45
X53.34Y44.45
X50.8Y44.45
X48.26Y44.45
X45.72Y44.45
X43.18Y44.45
X40.64Y44.45
X38.1Y44.45
X35.56Y44.45
X33.02Y44.45
X30.48Y44.45
X21.59Y62.23
X33.02Y62.23
X35.56Y62.23
X46.99Y62.23
X49.53Y62.23
X60.96Y62.23
X60.96Y64.77
X46.99Y64.77
X44.45Y64.77
X33.02Y64.77
X30.48Y64.77
X19.05Y64.77
T3
X5.08Y5.08
X93.98Y5.08
X93.98Y69.85
X11.43Y69.85
T0
M30
